<svg xmlns="http://www.w3.org/2000/svg" viewBox="0 0 92.35 73.96"><title>das-traumpaar-herz</title><path d="M89.31,52,50.67,86.83,12,52C2,42.71,2,28,12,18.9c9-8,23.65-8,32.62,0l6,5.52,6.21-5.52c8.77-8,23.36-8,32.43,0C99.36,28,99.36,42.71,89.31,52Z" transform="translate(-4.5 -12.87)" style="fill:#ff46af"/><path d="M27.18,35.91a11.79,11.79,0,0,1-.54-1.39q-1.81-5.18-2.28-5.59a4.8,4.8,0,0,0-.16,1.31l0,.73,0,.72,0,.45,0,.44q0,.3,0,.7l0,.6h-.06a19.77,19.77,0,0,0,.14,3.42V39a.76.76,0,0,1,.08.39.37.37,0,0,1-.1.26.35.35,0,0,1-.27.11q-.42,0-.42-1a5.76,5.76,0,0,1,0-.61,5.69,5.69,0,0,0,0-.61q0-.9-.06-2.67t-.07-2.66q0-.63.07-1.65t.06-1.64v-.24a1.48,1.48,0,0,1,.36-1.2l.06.06.2,0a.56.56,0,0,1,.19.12.68.68,0,0,1,.09.16l0,.11,0,.1a23.13,23.13,0,0,0,1.44,3.69q1.07,2.29,1.44,3.33.13.39.32,1.14a13.47,13.47,0,0,0,.41,1.4,5.37,5.37,0,0,0,.5,1l0-.05a92.67,92.67,0,0,0,.46-10.11l0-.23,0-.24q0-.39.29-.39a.38.38,0,0,1,.31.17.59.59,0,0,1,.13.37v1.24l-.11.15q0,1-.11,3.44t-.26,4.46a11.29,11.29,0,0,1-.28,2.27l-.34.08h0l-.22,0a.26.26,0,0,1-.23-.11,1,1,0,0,1-.13-.33.8.8,0,0,0-.09-.26l0-.05a10.87,10.87,0,0,0-.67-2.13Q27.28,36.19,27.18,35.91Z" transform="translate(-4.5 -12.87)" style="fill:#fff;stroke:#fff;stroke-miterlimit:10"/><path d="M35.7,40q-2.36,0-2.36-6.83v-.64q0-5.18,1.46-5.18a1.19,1.19,0,0,1,.27,0,5.49,5.49,0,0,0,.83.2l.44.07q.39.06.77.72a5.14,5.14,0,0,1,.63,1.75A11.73,11.73,0,0,1,38,32.44l0,.09,0,1.11,0,1.11q0,.39,0,.79t-.06.91a10.63,10.63,0,0,1-.15,1.06,8,8,0,0,1-.25.93,3.63,3.63,0,0,1-.41.85,1.85,1.85,0,0,1-.58.55A1.42,1.42,0,0,1,35.7,40ZM34,34.67a15,15,0,0,0,.17,2,10.39,10.39,0,0,0,.29,1.4,3.45,3.45,0,0,0,.45,1,.86.86,0,0,0,.71.44,1,1,0,0,0,.69-.27,1.83,1.83,0,0,0,.48-.76,7.92,7.92,0,0,0,.46-2.11q.08-1,.08-1.78,0-.67-.11-2.19t-.12-2.19L37,30.06l0-.09a2.22,2.22,0,0,0-.23-1,1.94,1.94,0,0,0-.61-.73,1.44,1.44,0,0,0-.85-.28,1,1,0,0,0-1.09.82,4.67,4.67,0,0,0-.09.8c0,.06,0,.2,0,.43s0,.47,0,.75a4.13,4.13,0,0,1-.09.7q0,.22,0,.87t0,.87l0,.73Z" transform="translate(-4.5 -12.87)" style="fill:#fff;stroke:#fff;stroke-miterlimit:10"/><path d="M44.19,30.15l-.11,1a10.56,10.56,0,0,0-.1,1.26,14.21,14.21,0,0,1-.08,1.53q-.08.77-.29,2-.12.71-.25,1.53l0,.4a13.79,13.79,0,0,1-.22,1.37,2.64,2.64,0,0,1-.19.59q-.1.23-.24.23-.29,0-.46-.83A21.84,21.84,0,0,1,42,36.89q-.08-1.31-.12-1.68t-.16-1.1l-.08-.5q-.16-1-.2-1.43t-.08-1.26l0-.31q0-.58-.06-1t-.12-.86a5,5,0,0,0-.28-1,.35.35,0,0,1,.32-.15.27.27,0,0,1,.22.11.73.73,0,0,1,.13.3q0,.28.06.75v.24q0,.52.47,3.68t.45,4.84a1.82,1.82,0,0,1,.11.5,1.63,1.63,0,0,0,.11.5h0l.3-1.94q0-.35.13-.91.12-.84.21-1.67l0-.26q.08-.74.14-2a17.67,17.67,0,0,1,.13-1.79q.14-.94.14-1.15l.36-.15a.41.41,0,0,1,.24.07.22.22,0,0,1,.1.18.46.46,0,0,1,0,.15,26.06,26.06,0,0,1,1.07,6l0,.69c0,.38,0,.65,0,.82a4.58,4.58,0,0,0,.1.62,3.7,3.7,0,0,0,.21.71,13.83,13.83,0,0,0,.41-3.08q.17-2.45.17-4.25a12,12,0,0,1,.14-1.44,11.37,11.37,0,0,0,.13-1.44.59.59,0,0,0-.08-.32q0-.29.4-.29a.4.4,0,0,1,.23,0,.23.23,0,0,1,0,.18,2.68,2.68,0,0,1-.1.8l0,.12a7.52,7.52,0,0,0-.18,1.74.36.36,0,0,0,0,.21l-.12.37.06.13a.45.45,0,0,0-.06.22l.06.35-.06.08q0,.65-.16,2.9t-.24,2.84a4.13,4.13,0,0,1-.12.51,2.74,2.74,0,0,0-.11.61,10.44,10.44,0,0,1-.07,1.13,1.84,1.84,0,0,1-.17.64q-.13.25-.3.25a.25.25,0,0,1-.17-.06.33.33,0,0,1-.1-.17,1.62,1.62,0,0,1-.06-.43v-.16q0-.53-.22-1.4l-.08-.37q-.12-.6-.16-1t-.17-1.9q-.19-2-.34-3.15l-.19-1.38Zm1.75,7.93v0h0S46,38.08,45.94,38.08Z" transform="translate(-4.5 -12.87)" style="fill:#fff;stroke:#fff;stroke-miterlimit:10"/><path d="M58.6,39.51h-.33q-.43,0-.55-.19a.21.21,0,0,1,0-.12.37.37,0,0,1,.12-.1L58,39h.58l.08-.07a.87.87,0,0,1,0-.17,1.35,1.35,0,0,0,0-.22q0-.77-.07-2-.08-1.43-.08-2t0-2.17q0-1.6,0-2.16a19.18,19.18,0,0,0-.1-2.15A2.36,2.36,0,0,0,58,28l-.24,0-.25,0c-.26,0-.38-.11-.38-.32,0,0,.06-.1.18-.15a.79.79,0,0,1,.3-.08q.66,0,1.52.07a3.67,3.67,0,0,1,.92.17c.24.08.35.18.35.32a.45.45,0,0,1,0,.15l-.46,0a1.09,1.09,0,0,0-.58-.11l-.1.05a4.48,4.48,0,0,1,.06,1q0,.73,0,2.2t0,2.21q0,.77.07,2t.07,2v.24c0,.09,0,.2,0,.34a1.22,1.22,0,0,0,.06.52l0,0q0,.18.44.18h.59c.4,0,.6.09.6.26a.33.33,0,0,1-.13.27.49.49,0,0,1-.32.1l-.33,0-.33,0a1,1,0,0,0-.37.1.83.83,0,0,1-.34.11Q58.67,39.7,58.6,39.51Z" transform="translate(-4.5 -12.87)" style="fill:#fff;stroke:#fff;stroke-miterlimit:10"/><path d="M66.13,39.59l-.23-.15,0-.68,0-.67,0-.33,0-.33a1.2,1.2,0,0,0-.08-.44q0-1.5-.2-4.61t-.22-4.44a13.35,13.35,0,0,1-1.67-.06q-.41-.07-.41-.29a.37.37,0,0,1,.38-.21q.46,0,1.75.08t1.75.09h.86q.36,0,.36.24a.2.2,0,0,1-.13.18A.7.7,0,0,1,68,28l-.85,0-.87,0a.08.08,0,0,0-.08.05,2.07,2.07,0,0,0,0,.35q0,1.81.24,5.45t.24,5.45c0,.08-.06.17-.18.24A.63.63,0,0,1,66.13,39.59Z" transform="translate(-4.5 -12.87)" style="fill:#fff;stroke:#fff;stroke-miterlimit:10"/><path d="M70.71,28.67l-.33-.15,0-.16.26-.22.29-.26a1.86,1.86,0,0,0,.43-.56.86.86,0,0,0,.06-.32,1.36,1.36,0,0,1-.42-.37.74.74,0,0,1-.17-.45.48.48,0,0,1,.24-.41.91.91,0,0,1,.53-.16.7.7,0,0,1,.67.53l0,.05a.46.46,0,0,1,0,.23,2.11,2.11,0,0,1-.25.85,4.05,4.05,0,0,1-.63.95A1.11,1.11,0,0,1,70.71,28.67Z" transform="translate(-4.5 -12.87)" style="fill:#fff;stroke:#fff;stroke-miterlimit:10"/><path d="M75,39.47l.1-.15.35.06a1.52,1.52,0,0,0,.37.06,1.11,1.11,0,0,0,.79-.32,2,2,0,0,0,.51-.85,6,6,0,0,0,.29-1.81,4.39,4.39,0,0,0-.24-1.4,6.89,6.89,0,0,0-.62-1.35l-.24-.39q-.42-.71-.66-1.14a6,6,0,0,1-.41-1A4.47,4.47,0,0,1,75,29.74a3.39,3.39,0,0,1,.09-.75,4.63,4.63,0,0,1,.27-.82,1.82,1.82,0,0,1,.51-.7,1.1,1.1,0,0,1,.72-.27,1,1,0,0,1,.51.16q.26.16.26.35c0,.1-.09.15-.26.15a.63.63,0,0,1-.21-.05.57.57,0,0,0-.22-.05.77.77,0,0,0-.54.22,1.44,1.44,0,0,0-.36.58,3.7,3.7,0,0,0-.25,1.25,2.77,2.77,0,0,0,.1.73l.07.31a2.28,2.28,0,0,0,.12.37l.1.33.15.34.35.57.16.24.46.73c.13.21.25.43.37.68a4.74,4.74,0,0,1,.29.73,7,7,0,0,1,.18.82,6.69,6.69,0,0,1,.07,1,4.72,4.72,0,0,1-.28,1.67,3.21,3.21,0,0,1-.42.78,1.84,1.84,0,0,1-.61.52,1.8,1.8,0,0,1-.88.22l-.1,0a1.1,1.1,0,0,1-.43-.16A.44.44,0,0,1,75,39.47ZM77.23,27.8v0h0S77.25,27.8,77.23,27.8Z" transform="translate(-4.5 -12.87)" style="fill:#fff;stroke:#fff;stroke-miterlimit:10"/><path d="M29.72,63.75s.11-.14.33-.27l.27-.17.45-.27a3.44,3.44,0,0,0,.46-.31,2.22,2.22,0,0,0,.48-1,5.34,5.34,0,0,0,.17-1.33q0-1.64-.09-4.93-.1-3.14-.1-4.93l-.12-.2a2.5,2.5,0,0,0-.48-.09,3,3,0,0,1-.69-.15q-.3-.1-.29-.24s.05-.1.16-.15a.65.65,0,0,1,.26-.08,8.77,8.77,0,0,1,1.22.13,13.48,13.48,0,0,1,1.48.31q.65.18.65.34a.21.21,0,0,1-.1.18.39.39,0,0,1-.23.07,2.19,2.19,0,0,1-.54-.1,2.19,2.19,0,0,0-.55-.09q-.18,0-.18.37,0,1.41.1,3.86t.1,3.84v2a1.91,1.91,0,0,0-.12.78,3.24,3.24,0,0,1-.13.85,4.84,4.84,0,0,1-.36.93,2.19,2.19,0,0,1-.66.8,1.49,1.49,0,0,1-.9.31H30.2l-.46-.43v-.07Z" transform="translate(-4.5 -12.87)" style="fill:#fff;stroke:#fff;stroke-miterlimit:10"/><path d="M38.66,62.25a1.68,1.68,0,0,1-.7-.2,2.06,2.06,0,0,1-.61-.45,4.42,4.42,0,0,1-.44-1.88q-.17-1.55-.2-3.53v-.6q0-2.48-.07-3.79T36.53,50l.13-.26q.46.05.46,1l.06,4.92q0,.59.11,2t.11,2q0,2.11,1.51,2.11.92,0,1.18-3.89l0-.38q.14-4.54.14-7.55l0-.17,0-.16q0-.21.34-.21t.29.12a2.49,2.49,0,0,1,0,.64A8.59,8.59,0,0,1,40.77,52a.35.35,0,0,1,0,.12c0,.12,0,.37,0,.74s0,.62,0,.73a1.55,1.55,0,0,0,0,.18,1.55,1.55,0,0,1,0,.19q0,.35,0,1.27,0,1.82-.09,3.06a9.08,9.08,0,0,1-.48,2.73,2,2,0,0,1-.57.88A1.3,1.3,0,0,1,38.66,62.25Z" transform="translate(-4.5 -12.87)" style="fill:#fff;stroke:#fff;stroke-miterlimit:10"/><path d="M44.43,61.74l.1-.15.35.06a1.5,1.5,0,0,0,.37.06A1.11,1.11,0,0,0,46,61.4a2,2,0,0,0,.51-.85,6,6,0,0,0,.29-1.81,4.39,4.39,0,0,0-.24-1.4A6.86,6.86,0,0,0,46,56l-.24-.39q-.42-.71-.66-1.14a5.94,5.94,0,0,1-.41-1A4.47,4.47,0,0,1,44.43,52a3.41,3.41,0,0,1,.09-.75,4.64,4.64,0,0,1,.27-.82,1.82,1.82,0,0,1,.51-.7,1.1,1.1,0,0,1,.72-.27,1,1,0,0,1,.51.16q.26.16.26.35t-.27.15a.63.63,0,0,1-.21-.05A.57.57,0,0,0,46.1,50a.77.77,0,0,0-.54.22,1.44,1.44,0,0,0-.36.58A3.7,3.7,0,0,0,45,52.09a2.74,2.74,0,0,0,.1.72l.07.31a2.21,2.21,0,0,0,.12.37l.1.33.15.33.35.57L46,55l.46.73q.19.31.37.68a4.58,4.58,0,0,1,.29.73,6.93,6.93,0,0,1,.18.82,6.76,6.76,0,0,1,.07,1,4.73,4.73,0,0,1-.27,1.67,3.21,3.21,0,0,1-.42.78,1.83,1.83,0,0,1-.61.52,1.8,1.8,0,0,1-.88.22l-.1,0a1.11,1.11,0,0,1-.43-.16A.45.45,0,0,1,44.43,61.74Zm2.23-11.67v0h0S46.68,50.07,46.66,50.07Z" transform="translate(-4.5 -12.87)" style="fill:#fff;stroke:#fff;stroke-miterlimit:10"/><path d="M52.77,61.86l-.23-.15,0-.68,0-.67,0-.33,0-.33a1.2,1.2,0,0,0-.08-.44q0-1.5-.2-4.61T52,50.21a13.34,13.34,0,0,1-1.67-.06q-.41-.07-.41-.29a.37.37,0,0,1,.38-.21q.46,0,1.75.08t1.75.09h.86q.36,0,.36.24a.2.2,0,0,1-.13.18.7.7,0,0,1-.31.06l-.85,0-.87,0a.08.08,0,0,0-.08.05,2.19,2.19,0,0,0,0,.35q0,1.81.24,5.45t.24,5.45c0,.08-.06.16-.18.24A.62.62,0,0,1,52.77,61.86Z" transform="translate(-4.5 -12.87)" style="fill:#fff;stroke:#fff;stroke-miterlimit:10"/><path d="M66.77,62.25a1.68,1.68,0,0,1-.7-.2,2.06,2.06,0,0,1-.61-.45A4.42,4.42,0,0,1,65,59.72q-.17-1.55-.2-3.53v-.6q0-2.48-.07-3.79T64.64,50l.13-.26q.46.05.46,1l.06,4.92q0,.59.11,2t.11,2q0,2.11,1.51,2.11.92,0,1.18-3.89l0-.38q.14-4.54.14-7.55l0-.17,0-.16c0-.14.11-.21.34-.21s.26,0,.29.12a2.45,2.45,0,0,1,0,.64A8.62,8.62,0,0,1,68.89,52a.36.36,0,0,1,0,.12c0,.12,0,.37,0,.74s0,.62,0,.73a1.45,1.45,0,0,0,0,.18,1.56,1.56,0,0,1,0,.19q0,.35,0,1.27,0,1.82-.09,3.06a9.08,9.08,0,0,1-.48,2.73,2,2,0,0,1-.58.88A1.3,1.3,0,0,1,66.77,62.25Z" transform="translate(-4.5 -12.87)" style="fill:#fff;stroke:#fff;stroke-miterlimit:10"/><path d="M72.54,61.74l.1-.15.35.06a1.5,1.5,0,0,0,.37.06,1.11,1.11,0,0,0,.79-.32,2,2,0,0,0,.51-.85A6,6,0,0,0,75,58.74a4.39,4.39,0,0,0-.24-1.4A6.86,6.86,0,0,0,74.11,56l-.24-.39q-.42-.71-.66-1.14a6,6,0,0,1-.41-1A4.48,4.48,0,0,1,72.54,52a3.4,3.4,0,0,1,.09-.75,4.64,4.64,0,0,1,.27-.82,1.82,1.82,0,0,1,.51-.7,1.1,1.1,0,0,1,.72-.27,1,1,0,0,1,.51.16q.26.16.26.35c0,.1-.09.15-.26.15a.63.63,0,0,1-.21-.05.57.57,0,0,0-.22-.05.77.77,0,0,0-.54.22,1.44,1.44,0,0,0-.36.58,3.7,3.7,0,0,0-.25,1.25,2.76,2.76,0,0,0,.1.72l.07.31a2.28,2.28,0,0,0,.12.37l.1.33.15.33.35.57.16.24.46.73c.13.21.25.43.37.68a4.72,4.72,0,0,1,.29.73,6.94,6.94,0,0,1,.18.82,6.7,6.7,0,0,1,.07,1,4.72,4.72,0,0,1-.28,1.67,3.2,3.2,0,0,1-.42.78,1.84,1.84,0,0,1-.61.52,1.81,1.81,0,0,1-.88.22l-.1,0a1.11,1.11,0,0,1-.43-.16A.44.44,0,0,1,72.54,61.74Zm2.23-11.67v0h0S74.79,50.07,74.77,50.07Z" transform="translate(-4.5 -12.87)" style="fill:#fff;stroke:#fff;stroke-miterlimit:10"/></svg>