<?xml version="1.0" encoding="utf-8"?>
<!-- Generator: Adobe Illustrator 19.0.0, SVG Export Plug-In . SVG Version: 6.00 Build 0)  -->
<svg version="1.1" id="Ebene_1" xmlns="http://www.w3.org/2000/svg" xmlns:xlink="http://www.w3.org/1999/xlink" x="0px" y="0px"
	 viewBox="-255 347 100 100" style="enable-background:new -255 347 100 100;" xml:space="preserve">
<style type="text/css">
	.st0{fill:#FF46AF;}
	.st1{fill:#FFFFFF;stroke:#FFFFFF;stroke-width:0.5;stroke-miterlimit:10;}
</style>
<circle class="st0" cx="-205" cy="397" r="40"/>
<g>
	<path class="st1" d="M-229.7,403.4l-0.2-0.2l0-0.8l0-0.8l0-0.4l0-0.4c0-0.2,0-0.4-0.1-0.6c0-1.2-0.1-3.2-0.2-5.7
		c-0.1-2.7-0.2-4.5-0.2-5.5c-0.8,0-1.3,0-1.5-0.1c-0.3-0.1-0.4-0.2-0.4-0.4c0.1-0.2,0.2-0.3,0.3-0.3c0.3,0,0.8,0,1.6,0.1
		c0.7,0.1,1.3,0.1,1.6,0.1l0.4,0l0.4,0c0.2,0,0.3,0.1,0.3,0.3c0,0.1,0,0.2-0.1,0.2s-0.2,0.1-0.3,0.1c-0.2,0-0.4,0-0.8,0
		c-0.4,0-0.6,0-0.8,0c0,0-0.1,0-0.1,0.1c0,0.1,0,0.2,0,0.4c0,1.5,0.1,3.8,0.2,6.8c0.1,3,0.2,5.3,0.2,6.8c0,0.1-0.1,0.2-0.2,0.3
		C-229.5,403.3-229.6,403.4-229.7,403.4z"/>
	<path class="st1" d="M-222.3,403.5c-0.1-3.3-0.1-5.3-0.1-6.2l0-0.1l0.1-0.2c0-0.3,0-0.5-0.1-0.9l-0.3-0.1c-0.1,0-0.2,0.1-0.4,0.1
		c-0.1,0-0.3,0-0.6-0.1c-0.2-0.1-0.4-0.1-0.6-0.1l-0.2,0.1c0,0.3,0,0.8,0,1.5c0,0.6,0,1.1,0,1.5l0.1,0.1c0,0.4,0,1.1,0.1,1.9
		c0,0.9,0.1,1.5,0.1,1.9c0,0.2,0,0.3-0.1,0.4c-0.1,0.1-0.1,0.2-0.2,0.2c-0.3,0-0.4-0.5-0.4-1.4l0-2.1l0-2.1c0-1.4,0-2.2-0.1-2.3
		c0.1-0.1,0.1-0.7,0.1-1.5c0-0.7,0-1.6-0.1-2.7c0-1.3-0.1-2.2-0.1-2.7c0-0.1,0-0.2,0.1-0.3c0.1-0.1,0.1-0.1,0.2-0.1
		c0.2,0,0.4,0.4,0.4,1.3c0,0.8,0,1.7,0,2.8c0,1.1,0,2.1,0,2.8c0,0.2,0.5,0.3,1.4,0.3h0.1c0.2,0,0.4-0.1,0.5-0.2s0.2-0.3,0.2-0.6
		c0-0.8,0-1.8-0.1-3.2c-0.1-1.5-0.1-2.5-0.1-3.2c0-0.1,0-0.2,0.1-0.2c0.1-0.1,0.1-0.1,0.2-0.1c0,0,0.1,0,0.2,0.1l0.2,0.1
		c0,1.3,0,3.1,0.1,5.4c0.1,2.3,0.1,4.1,0.1,5.4c0,1.8,0,3.3,0.1,4.6l-0.1,0.3C-221.8,403.6-221.9,403.5-222.3,403.5z M-222.9,395.2
		L-222.9,395.2L-222.9,395.2L-222.9,395.2z"/>
	<path class="st1" d="M-218.4,402.7L-218.4,402.7c0-0.4,0.1-0.7,0.1-1c0-0.3,0-0.8,0-1.5c0-0.8,0-1.3,0-1.5c0-0.9,0-2,0.1-3.5
		c0-1.4,0.1-2.6,0.1-3.5c0-0.4,0-0.8,0-1.4c0-0.5,0-1,0-1.4c0-0.2,0-0.4,0.1-0.5s0.2-0.2,0.4-0.2c0.1,0,0.2,0,0.3,0.1
		c0.1,0,0.3,0.1,0.5,0.1c0.3,0,0.6,0.1,0.8,0.2s0.3,0.2,0.3,0.4s-0.1,0.3-0.3,0.5c-0.7-0.3-1.2-0.4-1.5-0.4l-0.1,0.1
		c0,0.3,0,0.6,0,1c0,0.5,0,1.1,0,1.8s0,1.3,0,1.8c0,0.4,0.1,0.6,0.3,0.6l0.3,0c0.2,0,0.3,0,0.3,0c0.5,0,0.7,0.1,0.7,0.4
		c0,0.2,0,0.3-0.1,0.4s-0.2,0.2-0.3,0.2c-0.2,0-0.3-0.1-0.4-0.2l-0.6-0.1h-0.1l-0.1,0.1v0.1c0,0.4,0,1,0,1.8l0,1.6l0,1.6
		c0,0.6,0,1.2,0.1,1.8c0,0.4,0.1,0.6,0.2,0.7c0.1,0.1,0.3,0.2,0.6,0.2l0.3,0l0.3,0c0.4,0,0.5,0.1,0.5,0.3c0,0.3-0.3,0.4-0.8,0.4
		h-1.5c-0.2,0-0.3-0.2-0.4-0.5c0-0.1,0-0.2,0-0.3C-218.4,402.9-218.4,402.8-218.4,402.7z"/>
	<path class="st1" d="M-206.1,404l-0.3-0.2c-0.1-0.9-0.2-2.1-0.2-3.3c0-0.4,0-1.1,0-2.2c0-0.9,0-1.6,0-2.1c-0.1-0.2-0.1-0.4-0.1-0.5
		c0.1-0.3,0.2-1,0.2-2.1c0-2.8,0-4.2-0.1-4.5c0.1-0.4,0.2-0.6,0.3-0.6h0.8c0.1,0,0.3,0.1,0.6,0.2c0.2,0.2,0.5,0.3,0.6,0.5
		c0.3,0.3,0.5,1.3,0.5,2.7c0,0.4,0,0.7,0,1s0,0.6,0,0.8c0,0.3-0.1,0.5-0.1,0.7c-0.1,0.2-0.1,0.4-0.3,0.6c-0.1,0.2-0.2,0.4-0.4,0.5
		c-0.1,0.1-0.3,0.3-0.6,0.4c-0.2,0.1-0.5,0.3-0.8,0.4v2.8c0,0.5,0,1.3,0.1,2.3c0,1.1,0.1,1.8,0.1,2.2
		C-205.7,403.8-205.8,404-206.1,404z M-205.8,393.1c0,0.3,0,0.7,0,1.1c0,0.4,0,0.8,0,1.1l0.1,0.2c0.2,0,0.4-0.1,0.5-0.2
		s0.3-0.3,0.4-0.4c0.2-0.3,0.3-0.8,0.4-1.4c0.1-0.4,0.1-0.9,0.1-1.5v-0.6c0-0.3,0-0.5,0-0.7c0-0.2,0-0.3-0.1-0.5
		c0-0.2-0.1-0.4-0.2-0.5s-0.2-0.2-0.3-0.3c-0.1-0.1-0.3-0.1-0.5-0.1c-0.2,0-0.3,0-0.3,0.1c-0.1,0.1-0.1,0.3-0.1,0.5
		c0,0.3,0,0.8,0,1.7C-205.8,392.2-205.8,392.8-205.8,393.1z"/>
	<path class="st1" d="M-200,399.9C-200.1,399.9-200.1,400-200,399.9c-0.1,0-0.1,0.1-0.1,0.1c0,0,0,0,0,0c0,0,0,0,0,0l0,0.5
		c0,0.4-0.1,0.9-0.2,1.7c-0.1,0.4-0.1,0.7-0.2,1c-0.1,0.3-0.2,0.4-0.3,0.4c-0.1,0-0.2,0-0.2-0.1c-0.1-0.1-0.1-0.2-0.1-0.3l0-0.1
		l0-0.1c0.2-1,0.4-2.1,0.6-3.3l0.2-1.4c0-0.3,0.1-0.6,0.1-0.9l0.1-0.8l0.2-1.5c0.1-0.4,0.2-1.1,0.3-2c0.2-0.9,0.3-1.7,0.3-2.1
		l0.1-0.8l0-0.4c0-0.4,0.1-0.7,0.1-0.9c0-0.4,0.1-0.6,0.1-0.7l0.1,0c0,0,0.1,0,0.1,0c0.1,0,0.3,0,0.3-0.1c0.1,0,0.2,0,0.2,0.1
		c0.1,0.1,0.1,0.2,0.1,0.2c0,0.4,0,0.8,0,1.2c0,0.4,0.1,0.8,0.1,1.3l0.1,1.2c0.1,2.2,0.5,5.9,1,11.2v0.1c0,0.2,0,0.3-0.1,0.3
		c-0.1,0-0.2,0-0.3,0s-0.1-0.1-0.1-0.1c0-0.1,0-0.2-0.1-0.3l-0.3-3c-0.2-0.1-0.5-0.1-0.9-0.1c-0.1,0-0.4,0-0.7-0.1
		S-199.9,399.9-200,399.9z M-200,399.3c0,0.1,0.2,0.1,0.7,0.2s0.9,0.1,1.2,0.1h0.2c-0.1-1.6-0.3-4.9-0.7-9.8c-0.6,4-1,6-1,6.2
		C-199.9,397.6-200,398.8-200,399.3z"/>
	<path class="st1" d="M-191.1,403.9l-0.3-0.1c-0.1-0.2-0.3-0.7-0.5-1.6c-0.2-0.9-0.3-1.8-0.5-2.9c-0.1-0.9-0.3-1.8-0.4-2.6
		c-0.1-0.8-0.3-1.2-0.4-1.2h-0.1c-0.3,0-0.4,0.1-0.4,0.3c0,0.8,0.1,2.5,0.2,5.1c0,1.4,0.1,2.2,0.2,2.4l-0.1,0.4h-0.3l-0.1-0.2
		c-0.2-6.7-0.3-11.5-0.3-14.6c0-0.2,0-0.3,0-0.4c0-0.1,0.1-0.2,0.1-0.3c0.1-0.1,0.2-0.2,0.3-0.2c0.6,0,1.1,0.2,1.5,0.6
		c0.4,0.4,0.6,0.9,0.6,1.7v1.7c0,0.3-0.1,0.7-0.2,1.2c-0.1,0.5-0.3,0.9-0.5,1.4c-0.2,0.4-0.2,0.6-0.2,0.6c0,0.1,0.2,1.3,0.7,3.7
		c0.5,2.4,0.7,3.7,0.8,3.8c0,0,0,0,0,0.1c0,0,0.1,0.2,0.1,0.3c0.1,0.2,0.1,0.4,0.1,0.6C-190.9,403.8-190.9,403.9-191.1,403.9z
		 M-193.5,394.9L-193.5,394.9c0.3,0,0.5-0.1,0.7-0.4c0.2-0.3,0.3-0.7,0.4-1.1c0.1-0.4,0.2-0.8,0.2-1.2s0.1-0.7,0.1-1
		c0-0.4,0-0.6,0-0.9c0-0.2-0.1-0.5-0.1-0.7c-0.1-0.3-0.2-0.5-0.4-0.6c-0.2-0.1-0.4-0.2-0.7-0.2c-0.1,0-0.1,0.1-0.2,0.2
		c0,0.1-0.1,0.3-0.1,0.4c0,0.8,0,1.7,0,2.8S-193.5,394.1-193.5,394.9z"/>
	<path class="st1" d="M-186.5,403.4l-0.2-0.2l0-0.8l0-0.8l0-0.4l0-0.4c0-0.2,0-0.4-0.1-0.6c0-1.2-0.1-3.2-0.2-5.7
		c-0.1-2.7-0.2-4.5-0.2-5.5c-0.8,0-1.3,0-1.5-0.1c-0.3-0.1-0.4-0.2-0.4-0.4c0.1-0.2,0.2-0.3,0.3-0.3c0.3,0,0.8,0,1.6,0.1
		c0.7,0.1,1.3,0.1,1.6,0.1l0.4,0l0.4,0c0.2,0,0.3,0.1,0.3,0.3c0,0.1,0,0.2-0.1,0.2c-0.1,0.1-0.2,0.1-0.3,0.1c-0.2,0-0.4,0-0.8,0
		c-0.4,0-0.6,0-0.8,0c0,0-0.1,0-0.1,0.1c0,0.1,0,0.2,0,0.4c0,1.5,0.1,3.8,0.2,6.8c0.1,3,0.2,5.3,0.2,6.8c0,0.1-0.1,0.2-0.2,0.3
		C-186.3,403.3-186.4,403.4-186.5,403.4z"/>
	<path class="st1" d="M-180.3,403.6c0.1-0.4,0.2-1.7,0.2-4c0-0.5,0-1.1-0.1-1.9l-0.1-1.6l-0.1-0.3l0.1-0.3c-0.1-0.2-0.2-0.6-0.3-1.1
		c-0.2-0.5-0.3-1-0.5-1.5l-0.2-0.7c0-0.2-0.2-0.5-0.3-1.1s-0.3-1-0.4-1.4c-0.1-0.4-0.1-0.7-0.2-0.9l0.3-0.2c0.1,0,0.3,0.5,0.5,1.5
		c0.2,0.6,0.4,1.4,0.6,2.3l0.1,0.5c0.2,1,0.4,1.5,0.5,1.5l0.1-0.4l0-0.1c0.1-0.1,0.2-0.7,0.4-1.6c0.1-1,0.3-1.9,0.5-2.7
		c0.2-0.9,0.3-1.3,0.5-1.3c0.1,0,0.1,0,0.2,0.1c0.1,0,0.1,0.1,0.1,0.2c0,0.2-0.2,1.1-0.5,2.5l-0.1,0.2c-0.1,0.4-0.2,0.8-0.2,1.1
		s-0.1,0.7-0.2,1c-0.1,0.8-0.2,1.5-0.2,2.1c0.1,0.2,0.1,0.3,0.1,0.4c0,0.1,0,0.2-0.1,0.3c0,0.1-0.1,0.3-0.1,0.4c0,0.2,0,0.6,0.1,1
		c0,0.5,0.1,0.9,0.1,1.1c0,0.7,0,1.3,0,1.8s0,1.2,0,1.8v0.1c0,1-0.1,1.6-0.4,1.6c0,0-0.1,0-0.2-0.1S-180.3,403.6-180.3,403.6z"/>
</g>
</svg>
