<?xml version="1.0" encoding="utf-8"?>
<!-- Generator: Adobe Illustrator 18.0.0, SVG Export Plug-In . SVG Version: 6.00 Build 0)  -->
<!DOCTYPE svg PUBLIC "-//W3C//DTD SVG 1.1//EN" "http://www.w3.org/Graphics/SVG/1.1/DTD/svg11.dtd">
<svg version="1.1" id="Ebene_1" xmlns="http://www.w3.org/2000/svg" xmlns:xlink="http://www.w3.org/1999/xlink" x="0px" y="0px"
	 viewBox="0 0 200 200" enable-background="new 0 0 200 200" xml:space="preserve">
<circle fill="#FFFFFF" cx="100" cy="100" r="85.2"/>
<g>
	<path fill="#FF48B0" d="M43.4,108.6l-2,0.2c-1.2,0-1.8-0.5-1.8-1.5c0-0.8,1.1-1.4,3.4-1.7c0.4-0.1,0.9-0.1,1.4-0.1
		c0.5,0,1,0.3,1.3,0.8c0.4,0.5,0.6,1.3,0.6,2.2c0,0.9,0.2,2.4,0.5,4.4c0.3,2,0.5,3.4,0.5,4.1c0,1.3-0.4,1.9-1.3,1.9
		c-0.9,0-1.4-0.4-1.7-1.1V118c-0.2,0.1-0.6,0.3-1.1,0.6c-1.1,0.6-2.1,0.9-3.1,0.9c-0.7,0-1.5-0.2-2.2-0.5c-1.6-0.6-2.8-1.7-3.7-3.2
		c-0.9-1.6-1.5-3.1-1.8-4.5c-0.3-1.4-0.5-2.6-0.6-3.4c-0.1-0.8-0.2-1.8-0.3-2.9c-0.1-1.4-0.1-3-0.1-5l0-3.8c0-3.4,0.1-5.8,0.3-7.2
		c0.2-1.5,0.4-2.7,0.7-3.6c0.2-0.9,0.5-1.8,0.8-2.5c0.3-0.7,0.7-1.4,1.1-2.1c0.4-0.7,0.9-1.3,1.5-1.7c1.2-1,2.7-1.5,4.2-1.5
		c1.6,0,2.4,0.5,2.4,1.5c0,0.4-0.1,0.7-0.4,0.9s-0.6,0.3-1,0.3l-1.5-0.3c-1.3,0-2.3,0.8-3.1,2.4c-0.8,1.7-1.3,3.3-1.5,4.9
		s-0.4,2.8-0.5,3.7c-0.1,0.9-0.2,2-0.3,3.2c-0.1,1.6-0.1,3.3-0.1,4.9l0,3.2c0,3.3,0.1,5.7,0.4,7.1c0.3,1.4,0.6,2.5,0.9,3.4
		c0.3,0.8,0.7,1.5,1.1,2.1c1.4,1.1,2.7,1.7,3.8,1.9c1.5,0,2.8-0.7,3.8-2.2C44.1,111.5,43.9,109.5,43.4,108.6z"/>
	<path fill="#FF48B0" d="M50.7,91.8l-0.3-4.4c0-2.5,0.7-3.7,2.2-3.7c0.9,0,2.2,0.2,3.8,0.6c1.6,0.4,2.4,1,2.4,1.7
		c0,0.7-0.5,1.3-1.5,1.6c-1.6-0.5-2.9-0.9-3.9-1c0.1,0.7,0.1,1.5,0.1,2.2l-0.2,7.5c0,0,0.1,0.3,0.2,0.8l1.9-0.1
		c1.7,0,2.5,0.5,2.5,1.4c0,0.4-0.2,0.7-0.5,1c-0.3,0.3-0.7,0.4-1.2,0.4s-1,0-1.5-0.1h-1.3c0.1,1.3,0.2,2.6,0.2,3.9l-0.2,9.4
		c0,1.9,0,2.9,0.1,2.9l3.8-0.1c1.3,0,2,0.4,2,1.3c0,0.5-0.2,0.9-0.7,1.1c-0.5,0.2-1,0.4-1.5,0.4h-4.4c-0.5,0-0.9-0.2-1.2-0.5
		s-0.6-0.7-0.6-1.1v-1.4l-0.3-8.8L50.7,91.8z"/>
	<path fill="#FF48B0" d="M61.9,115.9l2.2,0.4c0.7,0,1.2-0.3,1.7-0.9c0.5-0.6,0.9-1.3,1.1-2.2c0.5-1.7,0.7-3.1,0.7-4.4
		c0-1.3-0.2-2.5-0.6-3.8c-0.4-1.3-0.9-2.4-1.6-3.5c-0.6-1.1-1.2-2.2-1.8-3.3c-1.5-2.6-2.2-5.2-2.2-7.8c0-1.6,0.3-2.9,0.8-4.1
		c1-2.2,2.3-3.4,3.9-3.4c0.6,0,1.2,0.2,1.7,0.6c0.5,0.4,0.8,0.8,0.8,1.3c0,0.8-0.4,1.2-1.3,1.2c-0.4,0-0.7-0.1-1.1-0.3
		c-1.1,0.1-1.8,1.3-2.2,3.7c-0.1,0.5-0.1,1.1-0.1,1.8c0,0.7,0.2,1.6,0.5,2.6c0.3,1,0.7,2,1.2,2.8c0.5,0.8,1,1.7,1.5,2.7
		c0.5,1,1,1.9,1.5,2.8c1.1,2.1,1.6,4.5,1.6,7.3c0,2.1-0.5,4.1-1.4,6c-0.5,0.9-1.1,1.7-2,2.3c-0.9,0.6-1.9,0.9-3,0.9v0.1
		c-1.4-0.2-2.2-0.9-2.3-2L61.9,115.9z"/>
	<path fill="#FF48B0" d="M72.6,105.5l0-3v-1.2c0-5.1,0.3-8.7,0.8-10.7c0.6-2.5,1.5-4.2,2.5-5.1c1.5-1.3,3.3-2,5.6-2
		c0.5,0,0.9,0.1,1.2,0.4c0.3,0.3,0.4,0.6,0.4,0.9c0,0.4-0.1,0.7-0.3,1c-0.2,0.3-0.5,0.4-0.8,0.4h-2.4c-0.7,0-1.3,0.5-1.9,1.4
		c-0.5,0.9-0.9,2-1.1,3.4c-0.4,2.5-0.7,4.6-0.6,6.2v0.3l-0.2,10c0,2.1,0.1,3.6,0.3,4.4c0.2,0.8,0.5,1.5,0.7,2
		c0.2,0.5,0.5,0.9,0.9,1.2c0.8,0.7,1.8,1.1,3,1.1c0.4,0,0.8-0.2,1.1-0.5c0.4,0,0.8,0.1,1.1,0.3c0.3,0.2,0.5,0.5,0.5,0.9
		c0,1.4-1,2.1-2.9,2.1c-0.8,0-1.6-0.1-2.5-0.3c-0.9-0.2-1.5-0.5-1.9-0.7C73.7,116.2,72.6,112.1,72.6,105.5z"/>
	<path fill="#FF48B0" d="M89,86.7l-0.2,13c0.6,0.2,1.6,0.3,2.8,0.3h1.9c0.1-0.2,0.1-0.7,0.1-1.7s-0.1-3.1-0.3-6.4S93,86.2,93,84.5
		c0-0.4,0.2-0.7,0.5-1c0.3-0.3,0.6-0.4,0.9-0.4s0.5,0,0.7,0.1c0.2,0.1,0.4,0.1,0.6,0.2c0.2,0.1,0.4,0.1,0.5,0.2
		c0,4.5,0.2,11.1,0.5,19.8c0.3,8.7,0.5,13.1,0.5,13.4s-0.2,0.6-0.5,0.9c-0.4,0.3-0.8,0.4-1.2,0.4s-0.8-0.3-1.1-1
		c-0.3-0.7-0.5-1.6-0.5-2.9c-0.1-1.3-0.2-2.4-0.2-3.4c0-0.4,0-0.9,0-1.4c0-0.7,0-1.5,0-2.4c0-1.6,0.1-2.5,0.1-2.8v-0.2l0.1-1.5
		l-0.3-0.5v-0.1c-0.3,0.1-0.6,0.1-0.9,0.1l-3.4-0.5v6l0.3,8.6c0,0.5-0.1,0.9-0.4,1.3c-0.3,0.4-0.6,0.6-1.1,0.6
		c-0.7,0-1.2-0.6-1.4-1.9s-0.4-3-0.4-5.2l0.2-7.9c0-1.6,0-2.5-0.1-2.7V100c0.1-1.8,0.2-2.8,0.2-3l-0.4-11.7c0-0.4,0.1-0.8,0.4-1.1
		c0.3-0.3,0.6-0.5,1-0.5C88.5,83.6,89,84.7,89,86.7z"/>
	<path fill="#FF48B0" d="M100.9,91.8l-0.3-4.4c0-2.5,0.7-3.7,2.2-3.7c0.9,0,2.2,0.2,3.8,0.6c1.6,0.4,2.4,1,2.4,1.7
		c0,0.7-0.5,1.3-1.5,1.6c-1.6-0.5-2.9-0.9-3.9-1c0.1,0.7,0.1,1.5,0.1,2.2l-0.2,7.5c0,0,0.1,0.3,0.2,0.8l1.9-0.1
		c1.7,0,2.5,0.5,2.5,1.4c0,0.4-0.2,0.7-0.5,1c-0.3,0.3-0.7,0.4-1.2,0.4s-1,0-1.5-0.1h-1.3c0.1,1.3,0.2,2.6,0.2,3.9l-0.2,9.4
		c0,1.9,0,2.9,0.1,2.9l3.8-0.1c1.3,0,2,0.4,2,1.3c0,0.5-0.2,0.9-0.7,1.1c-0.5,0.2-1,0.4-1.5,0.4h-4.4c-0.5,0-0.9-0.2-1.2-0.5
		c-0.4-0.3-0.6-0.7-0.6-1.1v-1.4l-0.3-8.8L100.9,91.8z"/>
	<path fill="#FF48B0" d="M111.9,97l0.3-9.7c0-1.6,0.6-2.9,1.9-3.8v0.3c0.1-0.1,0.3-0.1,0.4-0.1c0.8,0,1.8,1.4,3,4.2
		c1.2,2.8,2.3,5.9,3.3,9.2c1,3.4,2,6.7,2.9,10.1c1,3.4,1.6,5.4,1.8,6c0.7-7.3,1-16.1,1-26.4l-0.1-1.4c0-1,0.4-1.5,1.3-1.5
		c0.5,0,0.9,0.2,1.1,0.6c0.2,0.4,0.4,0.9,0.4,1.4v3.9c0,4.1-0.2,9.5-0.5,16.3c-0.3,6.8-0.8,10.7-1.3,11.5c-0.9,0.3-1.6,0.4-2,0.4
		s-0.6-0.1-0.8-0.4c-0.2-0.2-0.4-0.6-0.5-1.1c-0.1-0.5-0.2-0.8-0.3-1l0-0.2c0-1.3-1.2-5.4-3.7-12.3c-2.5-6.9-4.3-11.6-5.4-14.2v26.2
		c0,0.1,0.1,0.2,0.2,0.4c0.2,0.4,0.3,0.7,0.3,1c0,0.3-0.2,0.6-0.5,1c-0.3,0.3-0.7,0.5-1.1,0.5c-1.1,0-1.7-1.1-1.7-3.2L111.9,97z"/>
	<path fill="#FF48B0" d="M140.2,94.7l-0.1,3.1c0,1.5,0.6,4.3,1.8,8.4c1.2,4.1,2.2,6.8,3,8.1c0.1,0.2,0.3,0.5,0.7,0.9
		c0.3,0.5,0.6,0.9,0.8,1.2s0.2,0.7,0.2,1.1c0,0.4-0.1,0.7-0.4,1c-0.3,0.3-0.6,0.4-1,0.4c-0.8,0-1.7-0.9-2.5-2.6s-1.7-3.8-2.3-6.3
		c-1.2-4.3-2-8-2.6-11.1c-1.3,2.5-1.9,5.5-1.9,9v9.6c0,0.8-0.4,1.2-1.1,1.2c-0.5,0-0.9-0.1-1.3-0.4c-0.3-0.3-0.5-0.7-0.5-1.2v-15.8
		c0-1.9,0.2-4.7,0.5-8.4s0.5-6.5,0.5-8.4c0.3-0.7,0.8-1,1.3-1c0.6,0,1,0.2,1.3,0.5c0.3,0.3,0.5,0.7,0.5,1.1v0.2
		c-0.5,0.8-0.7,4-0.7,9.5v1.9c0.1-0.1,0.7-1.4,1.9-3.8c3-6,4.8-8.9,5.5-8.9c0.5,0,1,0.1,1.4,0.4c0.4,0.2,0.6,0.6,0.6,1
		c0,0-0.4,0.7-1.2,2.1C142,91.6,140.5,94,140.2,94.7z"/>
	<path fill="#FF48B0" d="M148.8,91.8l-0.3-4.4c0-2.5,0.7-3.7,2.2-3.7c0.9,0,2.2,0.2,3.8,0.6c1.6,0.4,2.4,1,2.4,1.7
		c0,0.7-0.5,1.3-1.5,1.6c-1.6-0.5-2.9-0.9-3.9-1c0.1,0.7,0.1,1.5,0.1,2.2l-0.2,7.5c0,0,0.1,0.3,0.2,0.8l1.9-0.1
		c1.7,0,2.5,0.5,2.5,1.4c0,0.4-0.2,0.7-0.5,1c-0.3,0.3-0.7,0.4-1.2,0.4s-1,0-1.5-0.1h-1.3c0.1,1.3,0.2,2.6,0.2,3.9l-0.2,9.4
		c0,1.9,0,2.9,0.1,2.9l3.8-0.1c1.3,0,2,0.4,2,1.3c0,0.5-0.2,0.9-0.7,1.1c-0.5,0.2-1,0.4-1.5,0.4h-4.4c-0.5,0-0.9-0.2-1.2-0.5
		c-0.4-0.3-0.6-0.7-0.6-1.1v-1.4l-0.3-8.8L148.8,91.8z"/>
	<path fill="#FF48B0" d="M161.3,87.5c-1,0-1.5-1.1-1.5-3.4c0-1.2,0.1-2.2,0.3-2.8c0.2-0.7,0.6-1.3,1.1-1.8c0.6-0.5,1.3-0.8,2.1-0.8
		c0.8,0,1.5,0.2,2.1,0.5s1,0.7,1.3,1.1s0.5,1,0.7,1.7c0.3,1,0.4,2.4,0.4,4.1c0,1.7-0.2,3.4-0.5,5.2c-0.3,1.8-0.7,3.3-1.1,4.7
		c-1,3.6-1.6,7.8-1.6,12.7c0,1.7,0,2.8,0,3.5c-0.6,0-1,0-1.1,0.1c-0.1,0.1-0.2,0.1-0.2,0.1c-0.6,0-1.1-0.4-1.3-1.2
		c0-3.8,0.5-8.2,1.5-13.1S165,89.2,165,86c0-3.2-0.5-4.8-1.5-4.8c-0.7,0-1,0.8-1,2.3c0,0.3,0.1,1.2,0.4,2.8c0,0.2-0.2,0.4-0.6,0.6
		C161.8,87.4,161.4,87.5,161.3,87.5z M165.5,116.3c0,1.3-0.7,2-2.1,2c-0.5,0-0.9-0.2-1.3-0.6c-0.4-0.4-0.5-0.8-0.5-1.3
		s0.2-1,0.6-1.4c0.4-0.4,0.9-0.6,1.4-0.6s0.9,0.2,1.3,0.7C165.3,115.4,165.5,115.9,165.5,116.3z"/>
</g>
</svg>
