<?xml version="1.0" encoding="utf-8"?>
<!-- Generator: Adobe Illustrator 19.0.0, SVG Export Plug-In . SVG Version: 6.00 Build 0)  -->
<svg version="1.1" id="Ebene_1" xmlns="http://www.w3.org/2000/svg" xmlns:xlink="http://www.w3.org/1999/xlink" x="0px" y="0px"
	 viewBox="-145 237 320 320" style="enable-background:new -145 237 320 320;" xml:space="preserve">
<style type="text/css">
	.st0{fill:#FF48B0;}
	.st1{fill:#FFFFFF;stroke:#FFFFFF;stroke-width:2;stroke-miterlimit:10;}
</style>
<circle class="st0" cx="15" cy="397" r="136.3"/>
<g>
	<path class="st1" d="M-5.6,370.5l-0.7-0.6l-0.1-2.7l-0.1-2.6l0.1-1.3l0.1-1.3c0-0.6-0.1-1.2-0.2-1.7c0-3.9-0.2-10-0.6-18.1
		c-0.4-8.4-0.7-14.2-0.7-17.5c-2.7,0-4.5-0.1-5.3-0.2c-0.9-0.2-1.3-0.6-1.3-1.1c0.2-0.5,0.6-0.8,1.2-0.8c1,0,2.8,0.1,5.5,0.3
		c2.6,0.2,4.4,0.4,5.5,0.4l1.4,0l1.3,0c0.8,0,1.1,0.3,1.1,0.9c0,0.3-0.1,0.5-0.4,0.7c-0.3,0.2-0.6,0.2-1,0.2c-0.5,0-1.4,0-2.7-0.1
		c-1.3-0.1-2.2-0.1-2.7-0.1c-0.1,0-0.2,0.1-0.2,0.2c0,0.2-0.1,0.7-0.1,1.4c0,4.8,0.2,11.9,0.7,21.4c0.5,9.5,0.7,16.6,0.7,21.4
		c0,0.3-0.2,0.6-0.6,0.9C-4.9,370.3-5.3,370.5-5.6,370.5z"/>
	<path class="st1" d="M20,371c-0.2-10.3-0.3-16.8-0.3-19.6l-0.2-0.3l0.2-0.6c0-0.8-0.1-1.7-0.2-2.7l-1-0.3c-0.4,0.1-0.8,0.2-1.3,0.2
		c-0.4,0-1.1-0.1-2-0.4c-0.8-0.2-1.5-0.4-2-0.4l-0.6,0.3c0,1,0,2.6-0.1,4.6c-0.1,2-0.1,3.6-0.1,4.6l0.2,0.3c0,1.4,0.1,3.4,0.2,6.1
		c0.1,2.7,0.2,4.7,0.2,6.1c0,0.5-0.1,1-0.3,1.3c-0.2,0.4-0.4,0.6-0.8,0.6c-0.9,0-1.4-1.5-1.4-4.4l0.1-6.7l0.1-6.7
		c0-4.4-0.1-6.8-0.2-7.1c0.2-0.5,0.3-2.1,0.3-4.8c0-2.1-0.1-5-0.2-8.6c-0.2-4-0.2-6.9-0.2-8.5c0-0.4,0.1-0.7,0.3-1s0.5-0.4,0.8-0.4
		c0.8,0,1.3,1.4,1.3,4.2c0,2.4,0,5.4-0.1,9c-0.1,3.6-0.1,6.5-0.1,8.8c0,0.6,1.6,0.9,4.9,0.9h0.2c0.8,0,1.4-0.2,1.8-0.5
		c0.4-0.4,0.5-1,0.5-1.9c0-2.4-0.1-5.8-0.4-10.1c-0.3-4.6-0.4-8-0.4-10c0-0.3,0.1-0.5,0.3-0.8c0.2-0.2,0.5-0.3,0.7-0.3
		c0,0,0.2,0.1,0.6,0.2l0.6,0.2c0,4.1,0.1,9.8,0.4,17c0.3,7.3,0.4,13,0.4,17c0,5.6,0.1,10.5,0.4,14.5l-0.4,0.8
		C21.9,371.2,21.2,371,20,371z M17.9,344.7v-0.1l0.1,0.1H17.9z"/>
	<path class="st1" d="M33.4,368.5l-0.2-0.3c0.3-1,0.5-2,0.5-3c0-0.8-0.1-2.4-0.2-4.8c-0.1-2.4-0.2-4-0.2-4.8c0-2.8,0.1-6.4,0.2-11
		s0.2-8.2,0.2-11c0-1.2,0-2.6-0.1-4.4c-0.1-1.7-0.1-3.2-0.1-4.3c0-0.7,0.1-1.2,0.4-1.6c0.3-0.3,0.7-0.5,1.4-0.5c0.5,0,0.8,0.2,1,0.5
		c0.3,0.1,0.9,0.2,1.9,0.3c1.1,0.1,2,0.4,2.8,0.6c0.8,0.3,1.2,0.7,1.2,1.1s-0.4,0.9-1.2,1.5c-2.3-0.9-4-1.3-5.1-1.4l-0.3,0.4
		c0,0.9,0.1,1.9,0.1,3.1c0,1.5,0,3.4-0.1,5.7s-0.1,4.1-0.1,5.7c0,1.4,0.3,2,0.9,2l1.1-0.1c0.6,0,1-0.1,1.1-0.1
		c1.6,0,2.5,0.4,2.5,1.3c0,0.5-0.1,1-0.3,1.3c-0.2,0.4-0.5,0.6-0.9,0.6c-0.7,0-1.2-0.2-1.5-0.6l-2.1-0.4h-0.3l-0.3,0.4v0.2
		c0.1,1.1,0.1,3,0.1,5.8l-0.1,5.2l-0.1,5.2c0,1.9,0.1,3.8,0.2,5.8c0.1,1.1,0.3,1.9,0.7,2.2c0.4,0.4,1.1,0.6,2.1,0.6l1.1-0.1l1.2-0.1
		c1.2,0,1.9,0.3,1.9,1c0,0.9-0.9,1.3-2.8,1.3h-5.2c-0.8,0-1.2-0.5-1.3-1.5c0-0.3,0-0.6,0-0.9C33.4,369.1,33.4,368.8,33.4,368.5z"/>
	<path class="st1" d="M-47.5,420.9l-0.3,4c-0.2,2-0.3,3.7-0.3,5c0,2-0.1,4-0.3,6c-0.2,2-0.5,4.7-0.9,8c-0.2,1.9-0.5,3.9-0.8,6
		l-0.2,1.6c-0.1,1.6-0.4,3.4-0.7,5.4c-0.1,0.9-0.3,1.7-0.6,2.3c-0.2,0.6-0.5,0.9-0.7,0.9c-0.6,0-1.1-1.1-1.5-3.3
		c-0.3-2.2-0.6-5.3-0.8-9.3c-0.2-3.4-0.3-5.6-0.4-6.6s-0.2-2.4-0.5-4.3l-0.2-2c-0.3-2.6-0.5-4.5-0.6-5.6c-0.1-1.1-0.2-2.8-0.2-4.9
		l-0.1-1.2c0-1.5-0.1-2.8-0.2-3.8c-0.1-1-0.2-2.1-0.4-3.4c-0.2-1.4-0.5-2.6-0.9-3.9c0.2-0.4,0.5-0.6,1-0.6c0.3,0,0.5,0.1,0.7,0.4
		c0.2,0.3,0.3,0.7,0.4,1.2c0.1,0.7,0.1,1.7,0.2,3v1c0.1,1.4,0.6,6.2,1.5,14.5c0.8,8.1,1.3,14.5,1.4,19c0.1,0.4,0.3,1.1,0.3,2
		c0.1,1,0.2,1.7,0.3,2h0.1l1-7.6c0.1-0.9,0.2-2.1,0.4-3.6c0.2-2.2,0.5-4.4,0.7-6.6l0.1-1c0.2-1.9,0.3-4.5,0.4-7.7
		c0.1-3.4,0.2-5.7,0.4-7c0.3-2.5,0.4-4,0.4-4.5l1.1-0.6c0.3,0,0.5,0.1,0.8,0.3c0.2,0.2,0.3,0.4,0.3,0.7c0,0.1-0.1,0.3-0.2,0.6
		c1.7,6.5,2.8,14.4,3.4,23.5l0.2,2.7c0.1,1.5,0.1,2.5,0.2,3.2c0,0.7,0.1,1.5,0.3,2.4c0.2,1,0.4,2,0.7,2.8c0.5-1.6,0.9-5.7,1.3-12.1
		c0.4-6.4,0.5-12,0.5-16.7c0-1.2,0.1-3.1,0.4-5.7c0.3-2.4,0.4-4.3,0.4-5.7c0-0.5-0.1-0.9-0.2-1.2c0-0.8,0.4-1.1,1.3-1.1
		c0.4,0,0.6,0.1,0.7,0.2c0.1,0.1,0.2,0.3,0.2,0.7c0,1.3-0.1,2.3-0.3,3.1l0.1,0.5c-0.4,1.9-0.6,4.2-0.6,6.8c0,0.4,0,0.7,0.1,0.8
		l-0.4,1.5l0.2,0.5c-0.1,0.3-0.2,0.6-0.2,0.9l0.2,1.4l-0.2,0.3c0,1.7-0.2,5.5-0.5,11.4c-0.3,5.9-0.6,9.6-0.8,11.2c0,0.3-0.1,1-0.4,2
		c-0.2,1.1-0.3,1.9-0.3,2.4c0,1.3-0.1,2.8-0.2,4.5c-0.1,1-0.3,1.9-0.5,2.5s-0.6,1-1,1c-0.2,0-0.4-0.1-0.5-0.3
		c-0.2-0.2-0.3-0.4-0.3-0.7c-0.1-0.6-0.2-1.1-0.2-1.7l0-0.6c-0.1-1.4-0.3-3.2-0.7-5.5c-0.1-0.9-0.2-1.3-0.2-1.5
		c-0.2-1.6-0.4-2.8-0.5-3.8c-0.1-0.9-0.3-3.4-0.5-7.5c-0.4-5.2-0.8-9.3-1.1-12.4c-0.4-3.6-0.6-5.4-0.6-5.4S-47.1,421.4-47.5,420.9z
		 M-42,452.1L-42,452.1L-42,452.1C-41.9,452.1-42,452.1-42,452.1z"/>
	<path class="st1" d="M-27.3,456l-0.2-0.3c0.3-1,0.5-2,0.5-3c0-0.8-0.1-2.4-0.2-4.8c-0.1-2.4-0.2-4-0.2-4.8c0-2.8,0.1-6.4,0.2-11
		s0.2-8.2,0.2-11c0-1.2,0-2.6-0.1-4.4c-0.1-1.7-0.1-3.2-0.1-4.3c0-0.7,0.1-1.2,0.4-1.6c0.3-0.3,0.7-0.5,1.4-0.5c0.5,0,0.8,0.2,1,0.5
		c0.3,0.1,0.9,0.2,1.9,0.3c1.1,0.1,2,0.4,2.8,0.6c0.8,0.3,1.2,0.7,1.2,1.1c0,0.5-0.4,0.9-1.2,1.5c-2.3-0.9-4-1.3-5.1-1.4l-0.3,0.4
		c0,0.9,0.1,1.9,0.1,3.1c0,1.5,0,3.4-0.1,5.7c-0.1,2.3-0.1,4.1-0.1,5.7c0,1.4,0.3,2,0.9,2l1.1-0.1c0.6,0,1-0.1,1.1-0.1
		c1.6,0,2.5,0.4,2.5,1.3c0,0.5-0.1,1-0.3,1.3c-0.2,0.4-0.5,0.6-0.9,0.6c-0.7,0-1.2-0.2-1.5-0.6l-2.1-0.4H-25l-0.3,0.4v0.2
		c0.1,1.1,0.1,3,0.1,5.8l-0.1,5.2l-0.1,5.2c0,1.9,0.1,3.8,0.2,5.8c0.1,1.1,0.3,1.9,0.7,2.2c0.4,0.4,1.1,0.6,2.1,0.6l1.1-0.1l1.2-0.1
		c1.2,0,1.9,0.3,1.9,1c0,0.9-0.9,1.3-2.8,1.3h-5.2c-0.8,0-1.2-0.5-1.3-1.5c0-0.3,0-0.6,0-0.9S-27.3,456.4-27.3,456z"/>
	<path class="st1" d="M-7.3,456.8c-0.2-4-0.2-8.3-0.2-12.7l0.1-8.6l0.1-8.6c0-4.8-0.1-9.3-0.2-13.7c-0.4-0.3-0.5-0.8-0.5-1.5
		c0-0.4,0.2-0.7,0.5-1.1c0.4-0.4,0.7-0.5,1-0.5c0.3,0,0.6,0.2,1,0.6c0.4,0.4,0.6,0.7,0.7,0.7c0.3,0.2,0.8,0.3,1.5,0.4
		c0.7,0.1,1.2,0.3,1.5,0.5c0.6,0.4,1.5,1.1,2.5,2.2c0.9,1.1,1.7,1.8,2.1,2.2l-0.1,0.1c0,0.3,0.3,0.9,1,1.9c0.6,0.9,0.9,1.6,1.1,2.1
		c0.7,2.1,1,5,1,8.7c0,0.6,0,1.2,0,1.7s0,1.1,0,1.7v0.6c0,0.2,0,0.5,0,0.7c0,1,0.1,1.7,0.3,2.2c-0.2,1.5-0.5,4.5-0.9,8.8
		c-0.1,1.2-0.3,2.6-0.6,4c-0.3,1.4-0.7,2.6-1.1,3.5C2.7,453.8,2,454.9,1,456s-2.1,2-3.4,2.8h-4.4C-7.1,458.8-7.3,458.1-7.3,456.8z
		 M-5,455.6l0.2,0.1l0.2,1h2c0.2-0.4,0.5-0.7,0.8-1c0.1-0.1,0.1-0.1,0.2-0.2c0.1-0.1,0.1-0.1,0.2-0.2l0.5-0.5
		c3-3.1,4.5-8.9,4.5-17.5c0-0.5,0-1,0-1.4c0-0.4,0-0.8,0-1.2l-0.3-7.3c0-1.3-0.3-2.7-0.6-4.3c-0.4-1.5-0.9-3-1.5-4.5
		c-0.7-1.5-1.6-2.8-2.6-3.7c-1.1-0.9-2.2-1.4-3.4-1.4c-0.5,0-0.7,4.5-0.7,13.5c0,10.3,0.2,19.4,0.7,27.2L-5,455.6z"/>
	<path class="st1" d="M17.5,456.8c-0.2-4-0.2-8.3-0.2-12.7l0.1-8.6l0.1-8.6c0-4.8-0.1-9.3-0.2-13.7c-0.4-0.3-0.5-0.8-0.5-1.5
		c0-0.4,0.2-0.7,0.5-1.1s0.7-0.5,1-0.5c0.3,0,0.6,0.2,1,0.6c0.4,0.4,0.6,0.7,0.7,0.7c0.3,0.2,0.8,0.3,1.5,0.4
		c0.7,0.1,1.2,0.3,1.5,0.5c0.6,0.4,1.5,1.1,2.5,2.2c1,1.1,1.7,1.8,2.1,2.2l-0.1,0.1c0,0.3,0.3,0.9,1,1.9c0.6,0.9,0.9,1.6,1.1,2.1
		c0.7,2.1,1,5,1,8.7c0,0.6,0,1.2,0,1.7s0,1.1,0,1.7v0.6c0,0.2,0,0.5,0,0.7c0,1,0.1,1.7,0.3,2.2c-0.2,1.5-0.5,4.5-0.9,8.8
		c-0.1,1.2-0.3,2.6-0.6,4s-0.7,2.6-1.1,3.5c-0.5,1.1-1.2,2.1-2.2,3.2c-1,1.1-2.1,2-3.4,2.8H18C17.6,458.8,17.5,458.1,17.5,456.8z
		 M19.8,455.6l0.2,0.1l0.2,1h2c0.2-0.4,0.5-0.7,0.8-1c0.1-0.1,0.1-0.1,0.2-0.2s0.2-0.1,0.2-0.2l0.5-0.5c3-3.1,4.5-8.9,4.5-17.5
		c0-0.5,0-1,0-1.4c0-0.4,0-0.8,0-1.2l-0.3-7.3c0-1.3-0.3-2.7-0.6-4.3c-0.4-1.5-0.9-3-1.5-4.5c-0.7-1.5-1.6-2.8-2.6-3.7
		c-1.1-0.9-2.2-1.4-3.4-1.4c-0.5,0-0.7,4.5-0.7,13.5c0,10.3,0.2,19.4,0.7,27.2L19.8,455.6z"/>
	<path class="st1" d="M45.6,457.7c-0.2,0-0.4,0-0.5,0c-0.2,0-0.3,0-0.5,0c-0.9,0-1.5-0.2-1.7-0.7c0-0.2,0-0.3,0.1-0.5
		c0.1-0.1,0.2-0.2,0.4-0.4l0.4-0.4h1.8l0.2-0.3c0-0.1,0-0.3,0.1-0.7c0.1-0.4,0.1-0.7,0.1-0.9c0-2-0.1-4.7-0.2-8
		c-0.2-3.8-0.2-6.4-0.2-8c0-1.5,0.1-4.3,0.2-8.5c0.1-4.2,0.2-7,0.2-8.5c0-3.4-0.1-6.2-0.3-8.4c-0.4-0.1-1-0.2-1.9-0.2l-0.7,0.1
		l-0.8,0.1c-0.8,0-1.2-0.4-1.2-1.2c0-0.2,0.2-0.4,0.6-0.6s0.7-0.3,1-0.3c1.4,0,3,0.1,4.8,0.3c1.1,0.1,2.1,0.3,2.9,0.7
		c0.7,0.3,1.1,0.7,1.1,1.2c0,0.1-0.1,0.3-0.2,0.6l-1.5,0.1c-0.3-0.3-0.9-0.4-1.8-0.4l-0.3,0.2c0.1,0.4,0.2,1.7,0.2,3.9
		c0,1.9,0,4.8-0.1,8.7c-0.1,3.9-0.1,6.8-0.1,8.7c0,2,0.1,4.7,0.2,8c0.1,3.3,0.2,6,0.2,8l0,0.9c0,0.4,0,0.8,0,1.3
		c0,1.1,0.1,1.8,0.2,2l-0.1,0.2c0,0.5,0.5,0.7,1.4,0.7c0.4,0,0.7,0,0.9,0c0.3,0,0.6,0,0.9,0c1.3,0,1.9,0.3,1.9,1
		c0,0.4-0.1,0.8-0.4,1.1s-0.6,0.4-1,0.4c-0.3,0-0.6,0-1.1-0.1c-0.5-0.1-0.8-0.1-1.1-0.1c-0.3,0-0.7,0.1-1.2,0.4
		c-0.5,0.3-0.8,0.4-1.1,0.4C46.3,458.4,45.8,458.2,45.6,457.7z"/>
	<path class="st1" d="M74.8,443.6c-0.1-0.2-0.7-2-1.7-5.5c-3.8-13.6-6.2-20.9-7.2-22c-0.3,1.4-0.5,3.2-0.5,5.1l0.1,2.9l0.1,2.8
		l-0.1,1.8l-0.1,1.7c0,0.8,0,1.7,0.1,2.7l0.1,2.4h-0.2c0,8.1,0.1,12.6,0.4,13.4v6.6c0.2,0.3,0.2,0.8,0.2,1.5c0,0.4-0.1,0.7-0.3,1
		s-0.5,0.4-0.9,0.4c-0.9,0-1.3-1.3-1.3-3.9c0-0.6,0-1.4,0.1-2.4c0.1-0.9,0.1-1.7,0.1-2.4c0-2.4-0.1-5.9-0.2-10.5
		c-0.1-4.3-0.2-7.8-0.2-10.5c0-1.6,0.1-3.8,0.2-6.5c0.1-2.9,0.2-5,0.2-6.4v-0.9c0-2.4,0.4-4,1.1-4.7l0.2,0.2l0.6-0.2
		c0.2,0.1,0.4,0.2,0.6,0.5c0.1,0.2,0.2,0.4,0.3,0.6l0.1,0.4l0.1,0.4c0.7,3.5,2.2,8.3,4.6,14.5c2.3,6,3.8,10.4,4.5,13.1
		c0.3,1,0.6,2.5,1,4.5c0.4,2.1,0.8,4,1.3,5.5c0.4,1.5,1,2.9,1.6,4.1l0.1-0.2c1-10.7,1.5-24,1.5-39.8l-0.1-0.9l-0.1-0.9
		c0-1,0.3-1.5,0.9-1.5c0.4,0,0.7,0.2,1,0.7c0.3,0.4,0.4,0.9,0.4,1.4v4.9l-0.3,0.6c0,2.7-0.1,7.2-0.3,13.5
		c-0.2,6.4-0.5,12.2-0.8,17.5c-0.3,5.3-0.6,8.3-0.9,8.9c-0.2,0-0.6,0.2-1.1,0.3v0l0,0c-0.4,0.1-0.6,0.2-0.7,0.2
		c-0.3,0-0.5-0.1-0.7-0.4c-0.2-0.3-0.3-0.7-0.4-1.3c-0.1-0.5-0.2-0.8-0.3-1l0.1-0.2c-0.3-2.1-1-4.9-2.1-8.4
		C75.4,445.6,75,444.3,74.8,443.6z"/>
	<path class="st1" d="M93.8,436.3c0-1.4,0.1-3.3,0.3-5.7l0.3-4.6l0.1-1c0.2-3.3,0.4-5.8,0.7-7.7s0.9-3.4,1.9-4.8
		c0.9-1.3,2.4-2.1,4.3-2.4c0.4,0,0.7-0.1,1-0.1c1.3,0,2,0.3,2,1c0,0.3-0.1,0.6-0.4,0.8s-0.6,0.3-0.9,0.3l-0.6-0.1l-0.6-0.1
		c-0.7,0-1.3,0.3-1.9,0.8c-0.6,0.5-1,1.3-1.4,2.3c-0.4,1.1-0.8,2.2-1.1,3.3c-0.3,1.1-0.5,2.4-0.7,3.8c-0.2,1.6-0.3,3-0.4,4.2
		c-0.1,1.2-0.2,2.4-0.2,3.8c-0.1,2-0.1,3.9-0.1,5.6c0,2.4,0.1,4.2,0.2,5.3c0.3,0.5,0.5,1.3,0.6,2.3s0.2,2.6,0.3,4.6
		c0.1,1.7,0.3,3.1,0.6,4.3c0.3,1.2,0.8,2.2,1.6,2.9c0.8,0.8,2,1.2,3.5,1.2c0.6,0,1.1-0.2,1.5-0.6c0.5-0.4,0.8-1,1.1-1.7
		c0.3-0.9,0.5-1.7,0.7-2.4c0.2-0.8,0.3-1.7,0.3-2.7c0.1-1.9,0.2-3.7,0.2-5.6v-4c-0.4-0.5-1.2-0.7-2.2-0.7l-0.5,0c-0.2,0-0.4,0-0.7,0
		c-1,0-1.5-0.3-1.5-0.9c0-0.8,0.5-1.2,1.5-1.2c0.9,0,2,0.1,3.2,0.2c0.8,0.1,1.4,0.3,1.9,0.5c0.5,0.2,0.7,0.5,0.7,0.8
		c0,0.5-0.1,1.4-0.3,2.7c-0.2,1.2-0.4,2.1-0.4,2.7c0,1.5,0,3.4,0.1,5.6c0.1,2.2,0.1,4.1,0.1,5.6c-2.2,2.5-4.3,3.8-6.5,3.8
		c-1.9,0-3.4-0.3-4.3-0.8s-1.6-1.6-2.1-3.1c-0.5-1.5-0.9-4-1.2-7.4C94,442.9,93.8,439.1,93.8,436.3z"/>
</g>
</svg>
