<svg id="Ebene_1" data-name="Ebene 1" xmlns="http://www.w3.org/2000/svg" viewBox="0 0 100 100.01"><defs><style>.cls-1{fill:#ff48b0;}.cls-2{fill:#fff;stroke:#fff;stroke-miterlimit:10;stroke-width:1.15px;}</style></defs><title>endlich</title><path class="cls-1" d="M43,99.48A50,50,0,1,0,.51,43h0A50.11,50.11,0,0,0,43,99.48" transform="translate(-0.03 0.03)"/><path class="cls-2" d="M16.06,37.62q.23-2.53.61-5.28l.52-3.57.52-3.57q.41-3,.66-5.71a.74.74,0,0,1-.17-.64.62.62,0,0,1,.32-.41.75.75,0,0,1,.51-.16.73.73,0,0,1,.43.3,2,2,0,0,0,.27.32,2.64,2.64,0,0,0,.69.28,2.46,2.46,0,0,1,.69.29,6.11,6.11,0,0,1,1.09,1.1,11.57,11.57,0,0,0,.9,1.06l0,.06a2.5,2.5,0,0,0,.36.83,4.71,4.71,0,0,1,.4.93,10.65,10.65,0,0,1,0,3.67c0,.27-.07.5-.11.71s-.07.44-.11.71l0,.25a2.48,2.48,0,0,0-.06.29,2.09,2.09,0,0,0,0,.94q-.31.94-.94,3.59a11.13,11.13,0,0,1-.52,1.61,6.68,6.68,0,0,1-.74,1.4,5.72,5.72,0,0,1-1.23,1.19,7.09,7.09,0,0,1-1.79,1l-2.12-.29C16,38.45,16,38.17,16.06,37.62Zm1.2-.36.11.08,0,.41.94.13a1.69,1.69,0,0,1,.44-.35l.11-.07L19,37.4l.27-.16q2.43-1.62,3.16-7,0-.33.06-.58c0-.16,0-.33.06-.52l.27-3.07a7.52,7.52,0,0,0-.06-1.81,10.91,10.91,0,0,0-.48-2,4.61,4.61,0,0,0-1-1.71,2.66,2.66,0,0,0-1.55-.82q-.34,0-1.12,5.56-.88,6.4-1.21,11.34Z" transform="translate(-0.03 0.03)"/><path class="cls-2" d="M27.94,38.92l-.09-.13a3.59,3.59,0,0,0,.4-1.21q.07-.52.2-2t.2-2q.24-1.71.73-4.54t.73-4.55q.1-.74.19-1.83t.19-1.81a.92.92,0,0,1,.29-.62.93.93,0,0,1,.71-.11.59.59,0,0,1,.47.26q.19.07.88.24a7.36,7.36,0,0,1,1.29.45q.54.25.5.54t-.65.53a10.24,10.24,0,0,0-2.4-.92l-.17.16q0,.57-.15,1.31-.13.95-.38,2.34t-.38,2.34q-.12.84.32.9l.51,0,.53,0Q33,28.48,33,29a.94.94,0,0,1-.24.53.53.53,0,0,1-.48.17.87.87,0,0,1-.67-.33l-1-.29-.13,0-.17.13v.09q0,.7-.27,2.4l-.32,2.14L29.36,36q-.16,1.18-.24,2.42a1.33,1.33,0,0,0,.19,1,1.6,1.6,0,0,0,1,.37l.56,0,.59.05q.89.12.84.52t-1.4.36l-2.52-.35q-.57-.08-.52-.72c0-.14,0-.27.07-.38S27.93,39.05,27.94,38.92Z" transform="translate(-0.03 0.03)"/><path class="cls-2" d="M42.24,42.44l-.43-.21a6,6,0,0,1-.49-2.2q-.19-1.75-.26-3.93-.05-1.83-.23-3.51T40.34,31l-.12,0q-.67-.09-.73.34-.23,1.64-.65,6.67a20.73,20.73,0,0,0-.18,3.21l-.29.47-.45-.06-.19-.27Q39,28.14,39.87,22.18a3.18,3.18,0,0,1,.11-.56.92.92,0,0,1,.24-.36.54.54,0,0,1,.48-.15,3.85,3.85,0,0,1,2.38,1.11,2.67,2.67,0,0,1,.65,2.3l-.3,2.2a4.52,4.52,0,0,1-.57,1.46,16.85,16.85,0,0,1-1.08,1.7,7.72,7.72,0,0,0-.51.71q0,.1.5,5t.57,5.14a.53.53,0,0,0,0,.12q0,.1.15.44a1.74,1.74,0,0,1,.14.76Q42.58,42.48,42.24,42.44ZM39.78,30.06l.05.07A1.35,1.35,0,0,0,41,29.69a4,4,0,0,0,.91-1.37,14.78,14.78,0,0,0,.59-1.58,8.65,8.65,0,0,0,.31-1.3,8,8,0,0,0,.09-1.16,5,5,0,0,0-.11-1,1.55,1.55,0,0,0-.52-.88A2.1,2.1,0,0,0,41.14,22c-.11,0-.21.06-.3.22a1.49,1.49,0,0,0-.17.51q-.21,1.49-.44,3.67T39.78,30.06Z" transform="translate(-0.03 0.03)"/><path class="cls-2" d="M63.78,29l-.39,1.62a18.51,18.51,0,0,0-.43,2q-.17,1.24-.47,2.47t-.9,3.24q-.34,1.13-.72,2.45l-.16.64q-.22,1-.64,2.19a4.6,4.6,0,0,1-.42.92q-.2.35-.41.32-.45-.06-.51-1.46a38.68,38.68,0,0,1,.13-3.91q.17-2.15.2-2.76t0-1.82v-.83q0-1.66,0-2.37t.16-2.06l0-.51q.1-.95.13-1.58c0-.42,0-.9,0-1.43a8.66,8.66,0,0,0-.2-1.67.52.52,0,0,1,.53-.17.4.4,0,0,1,.3.23,1.27,1.27,0,0,1,.13.52c0,.31,0,.72-.08,1.24l-.06.4q-.06.85-.11,6.1t-.4,8a3.24,3.24,0,0,1,.05.84,2.89,2.89,0,0,0,.05.83h0l.9-3.1c.09-.38.23-.86.4-1.45q.37-1.35.69-2.68l.1-.42q.29-1.2.65-3.16T63,28.79q.42-1.51.47-1.85l.58-.16a.59.59,0,0,1,.35.17.36.36,0,0,1,.12.32.81.81,0,0,1-.11.24,45.76,45.76,0,0,1,.28,10l-.08,1.13q-.08.92-.11,1.34a8.17,8.17,0,0,0,0,1,6.4,6.4,0,0,0,.15,1.2A24.35,24.35,0,0,0,66,37.26q.8-4,1.21-6.91A21.17,21.17,0,0,1,67.73,28a20.11,20.11,0,0,0,.52-2.32,1,1,0,0,0,0-.53c0-.32.27-.44.68-.39a.58.58,0,0,1,.33.11.4.4,0,0,1,0,.3,4.74,4.74,0,0,1-.33,1.28l0,.2a13.22,13.22,0,0,0-.66,2.8.62.62,0,0,0,0,.35l-.26.58.06.22A.8.8,0,0,0,68,31v.59l-.11.12q-.15,1.06-.9,4.7T66,41a7.06,7.06,0,0,1-.29.8,4.79,4.79,0,0,0-.3,1A18.56,18.56,0,0,1,65,44.58a3.24,3.24,0,0,1-.4,1c-.17.26-.34.38-.52.35a.38.38,0,0,1-.25-.14.55.55,0,0,1-.12-.3,2.8,2.8,0,0,1,0-.71l0-.27q0-.87,0-2.32c0-.36,0-.57,0-.62q0-1,0-1.59t.17-3.13q.16-3.28.18-5.2,0-2.29,0-2.29Zm.87,13.3v0h0A0,0,0,0,0,64.65,42.31Z" transform="translate(-0.03 0.03)"/><path class="cls-2" d="M73.11,41.42a.29.29,0,0,0-.15,0,.16.16,0,0,0-.07.1.12.12,0,0,0,0,.06.06.06,0,0,1,0,0l-.14.6q-.18.76-.64,2.13a8.65,8.65,0,0,1-.53,1.22c-.2.32-.37.48-.53.45a.65.65,0,0,1-.38-.23.47.47,0,0,1-.16-.38l0-.08,0-.08q.77-1.87,1.51-4.14l.6-1.83c.12-.36.25-.75.38-1.2l.33-1,.6-2q.25-.82.9-2.57t.92-2.74l.27-1.09.13-.48q.19-.8.32-1.21a4.13,4.13,0,0,1,.32-.87l.21,0,.21,0a.76.76,0,0,0,.58-.1.61.61,0,0,1,.36.19.41.41,0,0,1,.13.35q-.12.86-.16,1.58T78.06,30l0,1.62q-.22,4.32-.32,14.9v.09a.47.47,0,0,1-.3.41,2.07,2.07,0,0,1-.46-.1.3.3,0,0,1-.17-.2,1.94,1.94,0,0,1,0-.47l0-4a6.11,6.11,0,0,0-1.49-.36q-.34,0-1.11-.23T73.11,41.42Zm.15-.9q0,.15,1.14.43t2,.4l.31,0q.21-3.21.61-13-2.65,7.57-2.77,7.86A30.61,30.61,0,0,0,73.27,40.52Z" transform="translate(-0.03 0.03)"/><path class="cls-2" d="M82.32,47.05l.18-.22A4.72,4.72,0,0,1,83,47a2.15,2.15,0,0,0,.55.18,1.64,1.64,0,0,0,1.27-.36,3.28,3.28,0,0,0,1-1.28,10.53,10.53,0,0,0,.85-2.9,7.77,7.77,0,0,0,0-2.33A11.94,11.94,0,0,0,86,38l-.27-.69q-.48-1.24-.74-2a10.45,10.45,0,0,1-.41-1.67,7.88,7.88,0,0,1-.06-2.46,6,6,0,0,1,.31-1.2,8,8,0,0,1,.59-1.28,3,3,0,0,1,.93-1,1.62,1.62,0,0,1,1.15-.29,1.39,1.39,0,0,1,.73.37.74.74,0,0,1,.32.63q0,.24-.44.18a.91.91,0,0,1-.3-.13.81.81,0,0,0-.31-.13,1.13,1.13,0,0,0-.87.25,2.41,2.41,0,0,0-.68.88,6.54,6.54,0,0,0-.65,2,4.85,4.85,0,0,0,0,1.2l0,.52a3.88,3.88,0,0,0,.09.63l.08.55.15.58.41,1,.18.43q.32.75.54,1.29t.42,1.19a8.08,8.08,0,0,1,.28,1.26,12.06,12.06,0,0,1,.08,1.38,11.93,11.93,0,0,1-.12,1.67,8.33,8.33,0,0,1-.79,2.66A5.49,5.49,0,0,1,85.8,47a2.88,2.88,0,0,1-1,.72,2.59,2.59,0,0,1-1.39.17l-.16.05a1.6,1.6,0,0,1-.61-.35A.73.73,0,0,1,82.32,47.05Zm6-18.57v0h0A0,0,0,0,0,88.33,28.48Z" transform="translate(-0.03 0.03)"/><path class="cls-2" d="M23.09,71.54a.29.29,0,0,0-.15,0,.16.16,0,0,0-.07.1.12.12,0,0,0,0,.06.06.06,0,0,1,0,0l-.14.6q-.18.76-.64,2.13a8.56,8.56,0,0,1-.53,1.22c-.2.32-.37.48-.53.45a.66.66,0,0,1-.38-.23.47.47,0,0,1-.16-.38l0-.08,0-.08q.77-1.87,1.51-4.14l.6-1.83c.12-.36.25-.75.38-1.2l.33-1,.6-2q.25-.82.9-2.57t.92-2.73L26,58.81l.13-.48q.19-.8.32-1.21a4.16,4.16,0,0,1,.32-.87l.21,0,.21,0a.77.77,0,0,0,.58-.1.61.61,0,0,1,.36.19.4.4,0,0,1,.13.35q-.12.86-.16,1.58T28,60.13l0,1.62q-.22,4.32-.32,14.9v.09a.47.47,0,0,1-.3.41,2,2,0,0,1-.46-.1.29.29,0,0,1-.17-.2,1.86,1.86,0,0,1,0-.47l0-4A6.17,6.17,0,0,0,25.24,72q-.34,0-1.11-.23C23.62,71.64,23.27,71.57,23.09,71.54Zm.15-.9q0,.15,1.14.43t2,.4l.31,0q.21-3.21.61-13-2.65,7.57-2.77,7.86A30.64,30.64,0,0,0,23.24,70.65Z" transform="translate(-0.03 0.03)"/><path class="cls-2" d="M54,82.15q-.61-.08-.34-2l.27-2q.6-4.38.76-6.85,0-.58,0-1.14a11.46,11.46,0,0,1,.06-1.33c.07-.5.18-1.12.32-1.87s.25-1.37.32-1.87a5.85,5.85,0,0,0,.08-1.45q-.66.38-5.43,12.25a3.51,3.51,0,0,0-.12.43,7.78,7.78,0,0,1-.41,1.2,1.25,1.25,0,0,1-.32.46.49.49,0,0,1-.4.13.9.9,0,0,1-.67-.33,1.13,1.13,0,0,1-.1-.78,28.7,28.7,0,0,0-.2-4.33q-.31-3.53-.77-6.82a13.78,13.78,0,0,0-.76-3.66q-.31,1.66-1,4.95-.72,3.65-1.16,6.16T43.47,78q-.09.68-.14,1.22a.6.6,0,0,1-.7.31.64.64,0,0,1-.29-.21c-.12-.13-.18-.23-.17-.29Q42.6,76,44,69.59t1.79-9.48a.79.79,0,0,0,0-.31.68.68,0,0,1-.05-.29q.06-.46.88-.34a.59.59,0,0,1,.53.54,4.16,4.16,0,0,1,0,.92c0,.26,0,.38,0,.37a11.48,11.48,0,0,0,.53,2.54,18,18,0,0,1,.57,2.38l0,.32s0,.35.13.91.13,1,.19,1.48.09.87.11,1.21l.29.85q0,.4.14,1.53t.14,1.87a10.43,10.43,0,0,1-.06,1.47,22.07,22.07,0,0,0,1.5-3q1.23-2.75,2.52-5.84t1.6-4l.14-.45a4.18,4.18,0,0,1,.21-.6q.11-.25.26-.53a.78.78,0,0,1,.82-.52.92.92,0,0,1,.46.25c.17.15.24.28.23.4q-1.75,12.68-1.44,13.4l-.25,1.58-.25,1.59a13.75,13.75,0,0,0-.16,2.94l0,.25a1.2,1.2,0,0,1,0,.29,1.3,1.3,0,0,1-.29.64A.56.56,0,0,1,54,82.15Zm1.52-18.63v-.06h0l0,0Z" transform="translate(-0.03 0.03)"/><path class="cls-2" d="M60.21,80.38l-.09-.13a3.57,3.57,0,0,0,.4-1.21q.07-.52.2-2c.08-1,.15-1.66.2-2q.24-1.71.73-4.54t.73-4.55q.1-.74.19-1.83t.19-1.81a.9.9,0,0,1,.29-.62.92.92,0,0,1,.71-.11.59.59,0,0,1,.47.26c.12,0,.42.13.88.24a7.47,7.47,0,0,1,1.29.45c.36.17.53.35.5.54s-.24.36-.65.53a10.26,10.26,0,0,0-2.39-.92l-.17.16c0,.38-.08.81-.15,1.3s-.21,1.41-.38,2.34-.3,1.71-.38,2.34,0,.86.32.9l.51,0,.53,0q1.18.16,1.12.71A.93.93,0,0,1,65,71a.53.53,0,0,1-.48.17.88.88,0,0,1-.67-.33l-1-.29-.13,0-.17.13v.09q0,.7-.27,2.4L62,75.32l-.33,2.15q-.16,1.18-.24,2.42a1.33,1.33,0,0,0,.19,1,1.6,1.6,0,0,0,1,.37l.56,0,.58,0q.89.12.84.52t-1.4.36l-2.52-.35q-.57-.08-.52-.72c0-.14,0-.27.07-.38S60.19,80.52,60.21,80.38Z" transform="translate(-0.03 0.03)"/></svg>