<svg id="Ebene_1" data-name="Ebene 1" xmlns="http://www.w3.org/2000/svg" viewBox="0 0 100.01 100.01"><defs><style>.cls-1{fill:#ff48b0;}.cls-2{fill:#fff;stroke:#fff;stroke-miterlimit:10;stroke-width:1.14px;}</style></defs><title>gehtdoch</title><path class="cls-1" d="M55.18,99.68A50,50,0,1,0,.27,55.12v.06a50,50,0,0,0,54.9,44.5" transform="translate(0 0.06)"/><path class="cls-2" d="M13.24,48.77q-.48-2.71-.87-5.7l-.47-3.89-.47-3.89q-.42-3.23-.93-6.17a.81.81,0,0,1-.36-.62.67.67,0,0,1,.21-.52.81.81,0,0,1,.48-.31.76.76,0,0,1,.53.19,2.56,2.56,0,0,0,.38.26,2.92,2.92,0,0,0,.79.09,2.53,2.53,0,0,1,.79.11,6.15,6.15,0,0,1,1.44.84c.55.4,1,.7,1.23.85l0,.07a2.94,2.94,0,0,0,.6.77,5,5,0,0,1,.68.86,11.72,11.72,0,0,1,1,3.85c0,.29.06.55.08.77s0,.48.08.77l0,.27a3,3,0,0,0,0,.32,2.29,2.29,0,0,0,.3,1c0,.71,0,2.06,0,4a12.2,12.2,0,0,1-.09,1.83,7.35,7.35,0,0,1-.37,1.67,6.13,6.13,0,0,1-.93,1.6,7.62,7.62,0,0,1-1.57,1.5l-2.27.29Q13.35,49.66,13.24,48.77Zm1.14-.72.14,0,.15.42,1-.13A1.8,1.8,0,0,1,16,47.9l.09-.1.11-.1.23-.24q2-2.39,1.29-8.21,0-.35-.1-.62t-.09-.56L17,34.78a8.18,8.18,0,0,0-.57-1.88A11.65,11.65,0,0,0,15.35,31a4.93,4.93,0,0,0-1.56-1.5A2.82,2.82,0,0,0,12,29.05q-.37,0,.42,6.14.9,7,2,12.23Z" transform="translate(0 0.06)"/><path class="cls-2" d="M25.86,46.77l-.13-.11a4,4,0,0,0,.07-1.38q-.07-.56-.36-2.16c-.19-1.06-.31-1.78-.36-2.16q-.24-1.86-.53-5T24,31q-.1-.8-.32-2c-.14-.77-.25-1.42-.32-2a1,1,0,0,1,.12-.74,1,1,0,0,1,.7-.32.63.63,0,0,1,.55.14c.14,0,.47,0,1,0a7.62,7.62,0,0,1,1.46.11c.42.08.65.22.67.42s-.15.45-.52.74a10.81,10.81,0,0,0-2.73-.28l-.13.21q.11.6.21,1.41.13,1,.27,2.56t.27,2.56q.12.92.58.86l.54-.1.56-.1c.84-.11,1.3,0,1.35.43a1,1,0,0,1-.1.63.56.56,0,0,1-.45.31.92.92,0,0,1-.78-.16l-1.09,0-.14,0-.14.18V36q.16.75.4,2.6L26.23,41l.27,2.35c.11.86.26,1.73.43,2.61a1.48,1.48,0,0,0,.46,1,1.7,1.7,0,0,0,1.1.11l.59-.11.62-.11q1-.12,1,.31.08.59-1.34.78l-2.7.35q-.61.08-.74-.61c0-.15,0-.29,0-.42S25.88,46.92,25.86,46.77Z" transform="translate(0 0.06)"/><path class="cls-2" d="M41.6,46.42l-.5-.1A6.6,6.6,0,0,1,40,44.15q-.69-1.78-1.37-4-.57-1.9-1.23-3.62t-1-1.56l-.13,0c-.48.06-.7.25-.66.56.15,1.19.59,3.6,1.22,7.18a25.5,25.5,0,0,0,.72,3.42l-.17.58-.48.06-.27-.23q-2.37-14.19-3.2-20.66a3.57,3.57,0,0,1,0-.62,1,1,0,0,1,.15-.44.58.58,0,0,1,.45-.29,4.08,4.08,0,0,1,2.77.49,2.92,2.92,0,0,1,1.32,2.23l.31,2.39a5,5,0,0,1-.18,1.69,17.33,17.33,0,0,1-.63,2.09c-.21.56-.33.86-.32.89s.65,1.77,1.92,5.1,2,5.06,2,5.23l.06.11.28.41a1.9,1.9,0,0,1,.36.75Q42,46.37,41.6,46.42Zm-6-12.28.07.06a1.43,1.43,0,0,0,1-.78,4.45,4.45,0,0,0,.55-1.7,17.28,17.28,0,0,0,.16-1.82,9.47,9.47,0,0,0,0-1.45,9,9,0,0,0-.23-1.24,5.36,5.36,0,0,0-.4-1,1.67,1.67,0,0,0-.79-.77,2.2,2.2,0,0,0-1.23-.14c-.12,0-.2.12-.24.32a1.65,1.65,0,0,0,0,.58q.21,1.62.58,4T35.57,34.14Z" transform="translate(0 0.06)"/><path class="cls-2" d="M60,26.26l.05,1.81a20.6,20.6,0,0,0,.13,2.25q.17,1.35.21,2.73c0,.92,0,2.14,0,3.65q0,1.28,0,2.77v.72q0,1.07,0,2.47a5.38,5.38,0,0,1-.17,1.08c-.07.28-.18.43-.33.45-.32,0-.64-.42-.94-1.38a38.92,38.92,0,0,1-1-4.14c-.29-1.52-.48-2.51-.58-2.95s-.27-1.07-.51-1.91l-.24-.87q-.48-1.73-.65-2.49t-.42-2.21l-.1-.54q-.16-1-.32-1.69c-.1-.44-.23-.95-.39-1.5a9.35,9.35,0,0,0-.67-1.69.56.56,0,0,1,.49-.32.43.43,0,0,1,.38.15,1.28,1.28,0,0,1,.28.51,12.93,12.93,0,0,1,.27,1.32l.06.43c.12.61.67,2.76,1.61,6.43s1.52,6.45,1.84,8.49a3.56,3.56,0,0,1,.29.86,3.08,3.08,0,0,0,.29.86h0l.05-3.5c0-.42,0-1,0-1.64,0-1,0-2,0-3v-.47c0-.89-.1-2.06-.22-3.5s-.21-2.6-.2-3.19c0-1.13,0-1.82,0-2.07l.56-.33a.63.63,0,0,1,.41.08.39.39,0,0,1,.21.3.87.87,0,0,1,0,.28,50.58,50.58,0,0,1,3.11,10.4l.24,1.21q.18,1,.27,1.44a10.13,10.13,0,0,0,.3,1.07,7.55,7.55,0,0,0,.5,1.21,26.77,26.77,0,0,0,0-5.54q-.29-4.38-.7-7.58a23.22,23.22,0,0,1-.11-2.58,22.13,22.13,0,0,0-.12-2.58,2,2,0,0,0-.2-.55c-.1-.24.15-.54.59-.6a.61.61,0,0,1,.38,0,.44.44,0,0,1,.12.3,5.19,5.19,0,0,1,0,1.43l.09.2a14.58,14.58,0,0,0,.11,3.12.69.69,0,0,0,.11.36l-.11.68.12.21a.86.86,0,0,0,0,.4l.18.61-.08.16q.15,1.16.4,5.18c.17,2.68.24,4.4.26,5.09,0,.13,0,.44-.08.92a5.12,5.12,0,0,0,0,1.1c.08.6.12,1.28.15,2a3.6,3.6,0,0,1-.12,1.18q-.15.48-.44.51a.4.4,0,0,1-.29-.08.61.61,0,0,1-.21-.28,3.11,3.11,0,0,1-.19-.74l-.05-.29q-.2-.92-.67-2.43l-.21-.64q-.33-1-.48-1.66c-.1-.42-.33-1.54-.71-3.33-.49-2.31-.93-4.16-1.28-5.5l-.62-2.4ZM64.69,40v0h0A0,0,0,0,0,64.69,40Z" transform="translate(0 0.06)"/><path class="cls-2" d="M73.17,36.62a.29.29,0,0,0-.16.05.22.22,0,0,0,0,.12.2.2,0,0,0,0,.07.07.07,0,0,1,0,.05l0,.67c0,.56,0,1.38-.06,2.41a8.13,8.13,0,0,1-.21,1.43c-.1.39-.25.61-.42.63a.69.69,0,0,1-.46-.13.51.51,0,0,1-.27-.35l0-.1,0-.1q.27-2.17.39-4.77l.1-2.09q0-.61.05-1.36l0-1.18.07-2.22c0-.62.09-1.61.2-3s.16-2.42.18-3.13l0-1.22v-.54c0-.6,0-1.05,0-1.35a5.17,5.17,0,0,1,.08-1h.45a.81.81,0,0,0,.57-.27.65.65,0,0,1,.43.09.44.44,0,0,1,.23.33q.12.93.28,1.7T75,23.26L75.46,25q1,4.59,3.88,15.71v.1a.5.5,0,0,1-.19.52,1.07,1.07,0,0,1-.5,0,.31.31,0,0,1-.23-.16,2,2,0,0,1-.18-.48l-1.1-4.24a6.49,6.49,0,0,0-1.63,0c-.25,0-.65.06-1.21.07S73.37,36.6,73.17,36.62Zm-.09-1q0,.16,1.3.13t2.19-.15l.33,0q-.69-3.43-3.05-13.84-.6,8.69-.64,9A33.67,33.67,0,0,0,73.07,35.64Z" transform="translate(0 0.06)"/><path class="cls-2" d="M84.25,39.93l.13-.28a4.1,4.1,0,0,1,.59,0,2.58,2.58,0,0,0,.62,0A1.75,1.75,0,0,0,86.8,39a3.58,3.58,0,0,0,.63-1.61,11.53,11.53,0,0,0,.06-3.28,8.49,8.49,0,0,0-.7-2.43,12.93,12.93,0,0,0-1.31-2.26L85,28.77q-.85-1.17-1.33-1.89a11.85,11.85,0,0,1-.89-1.63A8.88,8.88,0,0,1,82,22.69a6.71,6.71,0,0,1,0-1.34,8.93,8.93,0,0,1,.25-1.51,3.26,3.26,0,0,1,.67-1.35,1.72,1.72,0,0,1,1.1-.62,1.47,1.47,0,0,1,.86.18.8.8,0,0,1,.5.57q0,.26-.4.31a.93.93,0,0,1-.35-.05.92.92,0,0,0-.36-.05,1.2,1.2,0,0,0-.83.51A2.65,2.65,0,0,0,83,20.44a7.28,7.28,0,0,0-.11,2.27A5.37,5.37,0,0,0,83.22,24l.18.53a4.18,4.18,0,0,0,.28.63l.23.56.32.56.71.94.31.4q.54.7.92,1.21c.25.34.51.72.76,1.13a8.53,8.53,0,0,1,.65,1.24,12.66,12.66,0,0,1,.82,3.21,9.08,9.08,0,0,1-.07,3,5.88,5.88,0,0,1-.5,1.48,3.16,3.16,0,0,1-.88,1.05,2.79,2.79,0,0,1-1.39.57l-.15.1a1.7,1.7,0,0,1-.73-.19A.78.78,0,0,1,84.25,39.93Zm1-21.17v0h0A0,0,0,0,0,85.2,18.76Z" transform="translate(0 0.06)"/><path class="cls-2" d="M41.24,80.9a.3.3,0,0,0-.16.05.23.23,0,0,0,0,.12.21.21,0,0,0,0,.07.07.07,0,0,1,0,0l0,.67c0,.56,0,1.38-.06,2.41a8.16,8.16,0,0,1-.2,1.43c-.1.39-.25.6-.42.63a.7.7,0,0,1-.46-.13.51.51,0,0,1-.27-.35l0-.1,0-.1q.27-2.18.39-4.77l.1-2.09q0-.61.05-1.36l0-1.18L40.32,74c0-.62.09-1.62.2-3s.16-2.42.18-3.13l0-1.22v-.54c0-.6,0-1.05,0-1.35a5.21,5.21,0,0,1,.08-1h.45a.8.8,0,0,0,.57-.27.66.66,0,0,1,.43.09.44.44,0,0,1,.23.33c.08.62.17,1.19.28,1.7s.25,1.14.43,1.88l.42,1.71q1,4.59,3.88,15.71v.1a.51.51,0,0,1-.19.52,1.07,1.07,0,0,1-.5,0,.31.31,0,0,1-.23-.16,2,2,0,0,1-.18-.48l-1.1-4.24a6.47,6.47,0,0,0-1.63,0q-.37,0-1.21.07C41.82,80.85,41.44,80.87,41.24,80.9Zm-.09-1c0,.11.45.15,1.3.13S44,80,44.63,79.89l.34,0Q44.28,76.42,41.91,66q-.6,8.69-.64,9A33.61,33.61,0,0,0,41.14,79.91Z" transform="translate(0 0.06)"/><path class="cls-2" d="M67,83.22A2.48,2.48,0,0,1,65.83,83a3.33,3.33,0,0,1-1.09-.67,8.44,8.44,0,0,1-1.15-3.23Q63,76.4,62.47,72.9l-.15-1.06q-.63-4.39-1-6.7T60.75,62l.15-.49q.76,0,1,1.72l1.22,8.71q.13,1,.63,3.46t.62,3.46q.48,3.74,2.94,3.43,1.5-.19,1-7.14l0-.68q-.82-8.08-1.5-13.42l-.07-.3-.07-.28q0-.37.51-.44c.25,0,.44,0,.51.15a4.54,4.54,0,0,1,.23,1.13,16.8,16.8,0,0,1,.23,3.39.66.66,0,0,1,.06.2q0,.32.09,1.33c0,.67.06,1.11.09,1.31a3,3,0,0,0,.06.32,2.29,2.29,0,0,1,.06.33c0,.4.09,1.17.21,2.26.24,2.15.43,4,.56,5.45a17.88,17.88,0,0,1-.16,4.94,3.64,3.64,0,0,1-.73,1.68A2,2,0,0,1,67,83.22Z" transform="translate(0 0.06)"/></svg>