<?xml version="1.0" encoding="utf-8"?>
<!-- Generator: Adobe Illustrator 18.0.0, SVG Export Plug-In . SVG Version: 6.00 Build 0)  -->
<!DOCTYPE svg PUBLIC "-//W3C//DTD SVG 1.1//EN" "http://www.w3.org/Graphics/SVG/1.1/DTD/svg11.dtd">
<svg version="1.1" id="Ebene_1" xmlns="http://www.w3.org/2000/svg" xmlns:xlink="http://www.w3.org/1999/xlink" x="0px" y="0px"
	 viewBox="0 0 782.8 238.8" enable-background="new 0 0 782.8 238.8" xml:space="preserve">
<path fill="none" stroke="#FF48B0" stroke-width="0.959" d="M714.2,0c0,0-307,237.8-719.3,149.2"/>
<path fill="#FF48B0" d="M26,174.2c5.4,0.2,10-4,10.2-9.4c0.2-5.4-4-10-9.4-10.2c-5.4-0.2-10,4-10.2,9.4
	C16.4,169.4,20.6,173.9,26,174.2"/>
<path fill="#FFFFFF" d="M20,60.3c5.4,0.2,10-4,10.2-9.4c0.2-5.4-4-10-9.4-10.2c-5.4-0.2-10,4-10.2,9.4C10.4,55.5,14.6,60.1,20,60.3"
	/>
<path fill="#FFFFFF" d="M73.1,70.9c5.4,0.2,10-4,10.2-9.4c0.2-5.4-4-10-9.4-10.2c-5.4-0.2-10,4-10.2,9.4
	C63.5,66.1,67.7,70.7,73.1,70.9"/>
<path fill="#FF48B0" d="M73,181.1c6.9,0.3,12.7-5,13-11.9c0.3-6.9-5-12.7-11.9-13c-6.9-0.3-12.7,5-13,11.9
	C60.8,175,66.1,180.8,73,181.1"/>
<path fill="#FFFFFF" d="M116.2,97.5c6.9,0.3,12.7-5,13-11.9c0.3-6.9-5-12.7-11.9-13c-6.9-0.3-12.7,5-13,11.9
	C104,91.4,109.3,97.2,116.2,97.5"/>
<path fill="#FF48B0" d="M113.2,178.7c4.8,0.2,8.9-3.5,9.2-8.4c0.2-4.8-3.5-8.9-8.4-9.2c-4.8-0.2-8.9,3.5-9.2,8.4
	C104.6,174.4,108.3,178.5,113.2,178.7"/>
<path fill="#FF48B0" d="M203.6,176.4c4.8,0.2,8.9-3.5,9.2-8.4c0.2-4.8-3.5-8.9-8.4-9.2c-4.8-0.2-8.9,3.5-9.2,8.4
	C195,172.1,198.7,176.2,203.6,176.4"/>
<path fill="#FFFFFF" d="M155.1,111.5c4.8,0.2,8.9-3.5,9.2-8.4c0.2-4.8-3.5-8.9-8.4-9.2c-4.8-0.2-8.9,3.5-9.2,8.4
	C146.5,107.2,150.3,111.3,155.1,111.5"/>
<path fill="#FF48B0" d="M345.4,169.1c4.8,0.2,8.9-3.5,9.2-8.4c0.2-4.8-3.5-8.9-8.4-9.2c-4.8-0.2-8.9,3.5-9.2,8.4
	C336.8,164.8,340.6,168.9,345.4,169.1"/>
<path fill="#FFFFFF" d="M245.8,136.7c4.8,0.2,8.9-3.5,9.2-8.4c0.2-4.8-3.5-8.9-8.4-9.2c-4.8-0.2-8.9,3.5-9.2,8.4
	C237.2,132.4,241,136.5,245.8,136.7"/>
<path fill="#FF48B0" d="M553.1,99.8c6.2,0.3,11.4-4.5,11.7-10.7c0.3-6.2-4.5-11.4-10.7-11.7c-6.2-0.3-11.4,4.5-11.7,10.7
	C542.2,94.3,547,99.5,553.1,99.8"/>
<path fill="#FFFFFF" d="M531.9,152c6.2,0.3,11.4-4.5,11.7-10.7c0.3-6.2-4.5-11.4-10.7-11.7c-6.2-0.3-11.4,4.5-11.7,10.7
	C520.9,146.5,525.7,151.7,531.9,152"/>
<path fill="#FF48B0" d="M478.1,125.1c4.8,0.2,8.9-3.5,9.2-8.4c0.2-4.8-3.5-8.9-8.4-9.2c-4.8-0.2-8.9,3.5-9.2,8.4
	C469.5,120.8,473.2,124.9,478.1,125.1"/>
<path fill="#FF48B0" d="M596.6,85.4c4.8,0.2,8.9-3.5,9.2-8.4c0.2-4.8-3.5-8.9-8.4-9.2c-4.8-0.2-8.9,3.5-9.2,8.4
	C588,81.1,591.7,85.2,596.6,85.4"/>
<path fill="#FFFFFF" d="M576.6,133.1c4.8,0.2,8.9-3.5,9.2-8.4c0.2-4.8-3.5-8.9-8.4-9.2c-4.8-0.2-8.9,3.5-9.2,8.4
	C568,128.8,571.7,132.9,576.6,133.1"/>
<path fill="#FFFFFF" d="M620.7,126.6c4.8,0.2,8.9-3.5,9.2-8.4c0.2-4.8-3.5-8.9-8.4-9.2c-4.8-0.2-8.9,3.5-9.2,8.4
	C612,122.3,615.8,126.4,620.7,126.6"/>
<path fill="#FFFFFF" d="M421.8,160.1c4.8,0.2,8.9-3.5,9.2-8.4c0.2-4.8-3.5-8.9-8.4-9.2c-4.8-0.2-8.9,3.5-9.2,8.4
	C413.2,155.8,416.9,159.9,421.8,160.1"/>
<path fill="#FFFFFF" d="M294.7,139.6c4.8,0.2,8.9-3.5,9.2-8.4c0.2-4.8-3.5-8.9-8.4-9.2c-4.8-0.2-8.9,3.5-9.2,8.4
	C286.1,135.3,289.8,139.4,294.7,139.6"/>
<path fill="#FF48B0" d="M670.9,33.3c4.8,0.2,8.9-3.5,9.2-8.4c0.2-4.8-3.5-8.9-8.4-9.2c-4.8-0.2-8.9,3.5-9.2,8.4
	C662.3,28.9,666,33,670.9,33.3"/>
<path fill="#FF48B0" d="M633.5,70.6c7.1,0.3,13.1-5.2,13.4-12.3c0.3-7.1-5.2-13.1-12.3-13.4c-7.1-0.3-13.1,5.2-13.4,12.3
	C620.9,64.3,626.4,70.3,633.5,70.6"/>
<path fill="#FFFFFF" d="M661.9,100.9c7.1,0.3,13.1-5.2,13.4-12.3c0.3-7.1-5.2-13.1-12.3-13.4c-7.1-0.3-13.1,5.2-13.4,12.3
	C649.3,94.6,654.8,100.6,661.9,100.9"/>
<path fill="#FF48B0" d="M158.8,186c7.1,0.3,13.1-5.2,13.4-12.3c0.3-7.1-5.2-13.1-12.3-13.4c-7.1-0.3-13.1,5.2-13.4,12.3
	C146.2,179.7,151.7,185.7,158.8,186"/>
<path fill="#FF48B0" d="M252.2,185.9c7.1,0.3,13.1-5.2,13.4-12.3c0.3-7.1-5.2-13.1-12.3-13.4c-7.1-0.3-13.1,5.2-13.4,12.3
	C239.6,179.6,245.1,185.6,252.2,185.9"/>
<path fill="#FFFFFF" d="M199.5,132.4c7.1,0.3,13.1-5.2,13.4-12.3c0.3-7.1-5.2-13.1-12.3-13.4c-7.1-0.3-13.1,5.2-13.4,12.3
	C186.9,126.1,192.4,132.1,199.5,132.4"/>
<path fill="#FF48B0" d="M296.8,171.7c7.1,0.3,13.1-5.2,13.4-12.3c0.3-7.1-5.2-13.1-12.3-13.4c-7.1-0.3-13.1,5.2-13.4,12.3
	C284.2,165.4,289.7,171.4,296.8,171.7"/>
<path fill="#FF48B0" d="M518.9,127.9c7.1,0.3,13.1-5.2,13.4-12.3c0.3-7.1-5.2-13.1-12.3-13.4c-7.1-0.3-13.1,5.2-13.4,12.3
	C506.3,121.6,511.8,127.6,518.9,127.9"/>
<path fill="#FFFFFF" d="M478.6,161.7c7.1,0.3,13.1-5.2,13.4-12.3c0.3-7.1-5.2-13.1-12.3-13.4c-7.1-0.3-13.1,5.2-13.4,12.3
	C466,155.4,471.5,161.4,478.6,161.7"/>
<path fill="#FF48B0" d="M436.3,140.7c7.1,0.3,13.1-5.2,13.4-12.3c0.3-7.1-5.2-13.1-12.3-13.4c-7.1-0.3-13.1,5.2-13.4,12.3
	C423.7,134.4,429.2,140.4,436.3,140.7"/>
<path fill="#FFFFFF" d="M349.7,147.7c7.1,0.3,13.1-5.2,13.4-12.3c0.3-7.1-5.2-13.1-12.3-13.4c-7.1-0.3-13.1,5.2-13.4,12.3
	C337.1,141.4,342.6,147.4,349.7,147.7"/>
<path fill="none" stroke="#FFFFFF" stroke-width="0.959" d="M0,32.6c0,0,506.6,279.4,782.8-32.6"/>
<path fill="#FF48B0" d="M391.9,164.4c7.1,0.3,13.1-5.2,13.4-12.3c0.3-7.1-5.2-13.1-12.3-13.4c-7.1-0.3-13.1,5.2-13.4,12.3
	C379.3,158.1,384.8,164.1,391.9,164.4"/>
</svg>
