<?xml version="1.0" encoding="utf-8"?>
<!-- Generator: Adobe Illustrator 18.0.0, SVG Export Plug-In . SVG Version: 6.00 Build 0)  -->
<!DOCTYPE svg PUBLIC "-//W3C//DTD SVG 1.1//EN" "http://www.w3.org/Graphics/SVG/1.1/DTD/svg11.dtd">
<svg version="1.1" id="Ebene_1" xmlns="http://www.w3.org/2000/svg" xmlns:xlink="http://www.w3.org/1999/xlink" x="0px" y="0px"
	 viewBox="0 0 80 80" enable-background="new 0 0 80 80" xml:space="preserve">
<g>
	<g>
		<path fill="#FFFFFF" d="M12,41.4c-3.6,4.7-5,10.8-6.8,16.4c-1.8,5.6-5.5,12.8-4.6,18.7c0.2,1.3,1.7,2.3,2.9,2.2
			c12.2-0.6,23.6-6.7,35.9-6.3c3.9,0.1,3.9-5.9,0-6C27,66,15.8,72.1,3.5,72.7c1,0.7,1.9,1.5,2.9,2.2c-0.3-1.8,1.2-4.7,1.8-6.4
			c0.9-3,1.9-6.1,2.8-9.1c1.6-5.1,2.9-10.6,6.2-15C19.5,41.3,14.3,38.3,12,41.4L12,41.4z"/>
	</g>
</g>
<g>
	<g>
		<path fill="#FFFFFF" d="M6.8,76c11.6-13,25.7-23.1,39.6-33.4c5.7-4.2,11-8.3,15.2-14c5.4-7.4,10.1-15.4,15-23.1
			c2.1-3.3-3.1-6.3-5.2-3C66.8,9.7,62.1,17,57.3,24.2c-4.6,6.9-11.7,11.4-18.2,16.3C26.2,50.1,13.2,59.7,2.5,71.8
			C0,74.6,4.2,78.9,6.8,76L6.8,76z"/>
	</g>
</g>
</svg>
