<?xml version="1.0" encoding="utf-8"?>
<!-- Generator: Adobe Illustrator 19.0.0, SVG Export Plug-In . SVG Version: 6.00 Build 0)  -->
<svg version="1.1" id="Ebene_1" xmlns="http://www.w3.org/2000/svg" xmlns:xlink="http://www.w3.org/1999/xlink" x="0px" y="0px"
	 viewBox="-255 347 100 100" style="enable-background:new -255 347 100 100;" xml:space="preserve">
<style type="text/css">
	.st0{fill:#FF46AF;}
	.st1{fill:#FFFFFF;stroke:#FFFFFF;stroke-width:0.5;stroke-miterlimit:10;}
</style>
<circle class="st0" cx="-205" cy="397" r="40"/>
<g>
	<path class="st1" d="M-229.3,393.1l0-0.3v-0.4c0-0.6,0-1.3-0.1-2.3c0-1-0.1-1.7-0.1-2.3c0-0.8,0-1.9-0.1-3.4
		c-0.1-1.6-0.1-2.7-0.1-3.4c0-0.1,0-0.1,0.1-0.1c0,0,0.1-0.1,0.2-0.1c0.2,0,0.3,0.1,0.3,0.2c0,2,0,3.5,0.1,4.5l0.1,2.9
		c0,0.4,0,1.1,0.1,2.2c0.1,1,0.1,1.7,0.1,2c0,0,0,0,0,0c0,0,0.1,0,0.2,0h0.9c0.1,0,0.2,0.1,0.2,0.3c0,0.1,0,0.2-0.1,0.2
		c0,0.1-0.1,0.1-0.1,0.1l-0.1,0c0,0-0.1,0-0.1,0c-0.2,0-0.6,0-1.2,0c-0.1,0-0.1,0-0.2-0.1C-229.3,393.3-229.3,393.2-229.3,393.1z"/>
	<path class="st1" d="M-223.7,393.7c-1.1,0-1.7-2-1.7-6v-0.6c0-3,0.4-4.5,1.1-4.5c0,0,0.1,0,0.2,0c0.2,0.1,0.4,0.1,0.6,0.2
		c0.2,0,0.3,0.1,0.3,0.1c0.2,0,0.4,0.2,0.6,0.6c0.2,0.4,0.4,0.9,0.5,1.5c0.1,0.6,0.2,1.3,0.2,2l0,0.1l0,1l0,1c0,0.2,0,0.5,0,0.7
		c0,0.2,0,0.5,0,0.8c0,0.3-0.1,0.7-0.1,0.9c0,0.3-0.1,0.5-0.2,0.8c-0.1,0.3-0.2,0.5-0.3,0.7c-0.1,0.2-0.3,0.4-0.4,0.5
		C-223.3,393.6-223.5,393.7-223.7,393.7z M-225,389c0,0.5,0,1.1,0.1,1.8c0.1,0.5,0.1,0.9,0.2,1.2c0.1,0.3,0.2,0.6,0.3,0.9
		c0.1,0.3,0.3,0.4,0.5,0.4c0.2,0,0.4-0.1,0.5-0.2c0.1-0.2,0.3-0.4,0.4-0.7c0.2-0.6,0.3-1.2,0.3-1.8c0-0.6,0.1-1.1,0.1-1.6
		c0-0.4,0-1-0.1-1.9c-0.1-0.9-0.1-1.5-0.1-1.9l-0.1-0.1l0-0.1c0-0.3-0.1-0.6-0.2-0.9c-0.1-0.3-0.3-0.5-0.4-0.6
		c-0.2-0.2-0.4-0.2-0.6-0.2c-0.4,0-0.7,0.2-0.8,0.7c0,0.2-0.1,0.5-0.1,0.7c0,0.1,0,0.2,0,0.4s0,0.4,0,0.7c0,0.2,0,0.4-0.1,0.6
		c0,0.1,0,0.4,0,0.8c0,0.4,0,0.6,0,0.8l0,0.6L-225,389z"/>
	<path class="st1" d="M-217.5,393.6h-0.5c-0.1,0-0.2-0.1-0.3-0.1c-0.2-0.1-0.3-0.2-0.5-0.3c-0.1-0.1-0.3-0.3-0.4-0.5
		c-0.2-0.4-0.3-1-0.4-1.9c0-0.2,0-0.6,0-1V388c0-0.4,0-0.8,0-1c0-0.2,0-0.6,0.1-1c0-0.5,0.1-0.9,0.1-1.2c0.1-0.3,0.2-0.7,0.3-1
		c0.1-0.3,0.3-0.6,0.5-0.7c0.1-0.1,0.2-0.2,0.4-0.2c0.2-0.1,0.3-0.1,0.4-0.2h0.6l0,0c0,0,0,0,0,0c0,0,0.1,0,0.1,0c0,0,0.1,0,0.1,0
		c0,0,0,0,0,0.1c0,0,0,0.1,0,0.1l-0.2,0.2h-0.6c-0.2,0-0.4,0.1-0.5,0.3s-0.3,0.5-0.4,0.8c-0.1,0.3-0.1,0.6-0.2,1
		c0,0.4-0.1,0.7-0.1,1c0,0.3,0,0.5,0,0.7l0,0.1c0,0.4,0,1,0,1.6s0,1.2,0,1.6c0,0.3,0,0.5,0,0.7c0,0.2,0,0.4,0.1,0.6
		c0,0.2,0.1,0.4,0.2,0.6c0.1,0.2,0.2,0.4,0.3,0.5c0.1,0.2,0.3,0.3,0.4,0.4s0.4,0.1,0.6,0.1c0.1,0,0.3,0,0.4-0.1
		c0.1,0,0.2,0.1,0.2,0.2c0,0.1-0.1,0.2-0.2,0.3S-217.4,393.6-217.5,393.6z"/>
	<path class="st1" d="M-213.8,390.9C-213.8,390.9-213.8,390.9-213.8,390.9c-0.1,0-0.1,0-0.1,0.1c0,0,0,0,0,0s0,0,0,0l0,0.3
		c0,0.3-0.1,0.7-0.2,1.2c-0.1,0.3-0.1,0.5-0.2,0.7c-0.1,0.2-0.1,0.3-0.2,0.3c-0.1,0-0.1,0-0.2-0.1c-0.1-0.1-0.1-0.1-0.1-0.2l0,0l0,0
		c0.2-0.7,0.3-1.5,0.4-2.3l0.2-1c0-0.2,0.1-0.4,0.1-0.7l0.1-0.6l0.2-1.1c0-0.3,0.1-0.8,0.3-1.4c0.1-0.7,0.2-1.2,0.3-1.5l0.1-0.6
		l0-0.3c0-0.3,0-0.5,0.1-0.7c0-0.3,0.1-0.4,0.1-0.5l0.1,0c0,0,0.1,0,0.1,0c0.1,0,0.2,0,0.3-0.1c0.1,0,0.1,0,0.2,0.1
		c0.1,0,0.1,0.1,0.1,0.2c0,0.3,0,0.6,0,0.8s0,0.6,0.1,0.9l0.1,0.9c0.1,1.5,0.4,4.1,0.8,7.9v0c0,0.1,0,0.2-0.1,0.2
		c-0.1,0-0.2,0-0.2,0c0,0-0.1,0-0.1-0.1s0-0.1-0.1-0.2l-0.2-2.1c-0.2-0.1-0.4-0.1-0.7-0.1c-0.1,0-0.3,0-0.5,0
		C-213.5,390.9-213.7,390.9-213.8,390.9z M-213.8,390.4c0,0.1,0.2,0.1,0.6,0.1c0.4,0,0.7,0.1,1,0.1h0.2c-0.1-1.1-0.3-3.4-0.6-6.9
		c-0.5,2.8-0.8,4.2-0.8,4.3C-213.6,389.3-213.8,390.1-213.8,390.4z"/>
	<path class="st1" d="M-207.7,393.3l-0.2-0.1l0-0.6l0-0.6l0-0.3l0-0.3c0-0.1,0-0.3-0.1-0.4c0-0.9,0-2.2-0.1-4
		c-0.1-1.9-0.2-3.2-0.2-3.9c-0.6,0-1,0-1.2-0.1c-0.2,0-0.3-0.1-0.3-0.3c0-0.1,0.1-0.2,0.3-0.2c0.2,0,0.6,0,1.3,0.1
		c0.6,0.1,1,0.1,1.3,0.1l0.3,0l0.3,0c0.2,0,0.3,0.1,0.3,0.2c0,0.1,0,0.1-0.1,0.2c-0.1,0-0.1,0.1-0.2,0.1c-0.1,0-0.3,0-0.6,0
		c-0.3,0-0.5,0-0.6,0c0,0,0,0-0.1,0c0,0.1,0,0.2,0,0.3c0,1.1,0.1,2.6,0.2,4.8c0.1,2.1,0.2,3.7,0.2,4.8c0,0.1,0,0.1-0.1,0.2
		C-207.6,393.3-207.6,393.3-207.7,393.3z"/>
	<path class="st1" d="M-203.2,393.2c0,0-0.1,0-0.1,0c0,0-0.1,0-0.1,0c-0.2,0-0.3-0.1-0.4-0.2c0,0,0-0.1,0-0.1s0-0.1,0.1-0.1l0.1-0.1
		h0.4l0.1-0.1c0,0,0-0.1,0-0.2c0-0.1,0-0.2,0-0.2c0-0.4,0-1-0.1-1.8c0-0.8-0.1-1.4-0.1-1.8c0-0.3,0-1,0-1.9c0-0.9,0-1.6,0-1.9
		c0-0.8,0-1.4-0.1-1.9c-0.1,0-0.2,0-0.4,0l-0.2,0l-0.2,0c-0.2,0-0.3-0.1-0.3-0.3c0,0,0-0.1,0.1-0.1s0.2-0.1,0.2-0.1
		c0.3,0,0.7,0,1.1,0.1c0.3,0,0.5,0.1,0.7,0.2c0.2,0.1,0.3,0.2,0.3,0.3c0,0,0,0.1,0,0.1l-0.3,0c-0.1-0.1-0.2-0.1-0.4-0.1l-0.1,0
		c0,0.1,0,0.4,0,0.9c0,0.4,0,1.1,0,1.9c0,0.9,0,1.5,0,1.9c0,0.4,0,1,0.1,1.8c0,0.7,0.1,1.3,0.1,1.8l0,0.2c0,0.1,0,0.2,0,0.3
		c0,0.3,0,0.4,0,0.5l0,0c0,0.1,0.1,0.2,0.3,0.2c0.1,0,0.2,0,0.2,0c0.1,0,0.1,0,0.2,0c0.3,0,0.4,0.1,0.4,0.2c0,0.1,0,0.2-0.1,0.2
		c-0.1,0.1-0.1,0.1-0.2,0.1c-0.1,0-0.1,0-0.2,0c-0.1,0-0.2,0-0.2,0c-0.1,0-0.2,0-0.3,0.1c-0.1,0.1-0.2,0.1-0.3,0.1
		C-203,393.4-203.1,393.3-203.2,393.2z"/>
	<path class="st1" d="M-197.4,393.7c-1.1,0-1.7-2-1.7-6v-0.6c0-3,0.4-4.5,1.1-4.5c0,0,0.1,0,0.2,0c0.2,0.1,0.4,0.1,0.6,0.2
		c0.2,0,0.3,0.1,0.3,0.1c0.2,0,0.4,0.2,0.6,0.6c0.2,0.4,0.4,0.9,0.5,1.5c0.1,0.6,0.2,1.3,0.2,2l0,0.1l0,1l0,1c0,0.2,0,0.5,0,0.7
		c0,0.2,0,0.5,0,0.8c0,0.3-0.1,0.7-0.1,0.9c0,0.3-0.1,0.5-0.2,0.8c-0.1,0.3-0.2,0.5-0.3,0.7s-0.3,0.4-0.4,0.5
		C-197,393.6-197.2,393.7-197.4,393.7z M-198.6,389c0,0.5,0,1.1,0.1,1.8c0.1,0.5,0.1,0.9,0.2,1.2c0.1,0.3,0.2,0.6,0.3,0.9
		c0.1,0.3,0.3,0.4,0.5,0.4c0.2,0,0.4-0.1,0.5-0.2c0.1-0.2,0.3-0.4,0.4-0.7c0.2-0.6,0.3-1.2,0.3-1.8c0-0.6,0.1-1.1,0.1-1.6
		c0-0.4,0-1-0.1-1.9c-0.1-0.9-0.1-1.5-0.1-1.9l-0.1-0.1l0-0.1c0-0.3-0.1-0.6-0.2-0.9c-0.1-0.3-0.3-0.5-0.4-0.6s-0.4-0.2-0.6-0.2
		c-0.4,0-0.7,0.2-0.8,0.7c0,0.2-0.1,0.5-0.1,0.7c0,0.1,0,0.2,0,0.4c0,0.2,0,0.4,0,0.7c0,0.2,0,0.4-0.1,0.6c0,0.1,0,0.4,0,0.8
		c0,0.4,0,0.6,0,0.8l0,0.6L-198.6,389z"/>
	<path class="st1" d="M-190.5,390.1c0,0-0.2-0.4-0.4-1.2c-0.9-3-1.4-4.6-1.7-4.9c-0.1,0.3-0.1,0.7-0.1,1.1l0,0.6l0,0.6l0,0.4l0,0.4
		c0,0.2,0,0.4,0,0.6l0,0.5h0c0,1.8,0,2.8,0.1,3v1.5c0,0.1,0.1,0.2,0.1,0.3c0,0.1,0,0.2-0.1,0.2c-0.1,0.1-0.1,0.1-0.2,0.1
		c-0.2,0-0.3-0.3-0.3-0.9c0-0.1,0-0.3,0-0.5c0-0.2,0-0.4,0-0.5c0-0.5,0-1.3,0-2.3c0-1,0-1.7,0-2.3c0-0.4,0-0.8,0-1.4
		c0-0.6,0-1.1,0-1.4v-0.2c0-0.5,0.1-0.9,0.3-1l0,0.1l0.1,0c0,0,0.1,0.1,0.1,0.1c0,0,0,0.1,0.1,0.1l0,0.1l0,0.1
		c0.2,0.8,0.5,1.9,1.1,3.2c0.5,1.3,0.9,2.3,1,2.9c0.1,0.2,0.1,0.6,0.2,1c0.1,0.5,0.2,0.9,0.3,1.2s0.2,0.6,0.4,0.9l0,0
		c0.2-2.4,0.3-5.3,0.3-8.8l0-0.2l0-0.2c0-0.2,0.1-0.3,0.2-0.3c0.1,0,0.2,0,0.2,0.1c0.1,0.1,0.1,0.2,0.1,0.3v1.1l-0.1,0.1
		c0,0.6,0,1.6-0.1,3c-0.1,1.4-0.1,2.7-0.2,3.9c-0.1,1.2-0.1,1.8-0.2,2c-0.1,0-0.1,0-0.3,0.1v0l0,0c-0.1,0-0.1,0-0.2,0
		c-0.1,0-0.1,0-0.2-0.1s-0.1-0.2-0.1-0.3c0-0.1,0-0.2-0.1-0.2l0,0c-0.1-0.5-0.2-1.1-0.5-1.9C-190.4,390.5-190.5,390.2-190.5,390.1z"
		/>
	<path class="st1" d="M-180.8,383.2c-0.1-0.4-0.1-0.7-0.1-1c0-0.3,0.1-0.6,0.2-0.9c0.1-0.1,0.2-0.2,0.3-0.3s0.3-0.1,0.4-0.1
		c0.4,0,0.7,0.1,0.8,0.4c0.1,0.2,0.2,0.5,0.2,0.8c0.1,0.3,0.1,0.7,0.1,1c0,0.5,0,1.1-0.1,1.6c-0.1,0.6-0.2,1.1-0.3,1.6
		c-0.1,0.5-0.2,1.1-0.3,1.9c-0.1,0.8-0.1,1.6-0.1,2.4l0,0.9c0,0,0,0,0,0c-0.1,0-0.1,0.1-0.2,0.1c-0.1,0-0.1-0.1-0.2-0.2
		c0-1.6,0.1-3.1,0.3-4.4c0-0.3,0.1-0.7,0.2-1.2c0.1-0.6,0.2-1.1,0.3-1.5s0.1-0.8,0.1-1.2c0-0.3,0-0.5,0-0.7c0-0.2-0.1-0.4-0.1-0.7
		c-0.1-0.3-0.2-0.4-0.3-0.4h-0.2c-0.3,0-0.5,0.3-0.5,1c0,0.2,0,0.5,0.1,1c-0.1,0.1-0.2,0.1-0.3,0.1
		C-180.8,383.3-180.8,383.3-180.8,383.2z M-180.4,393.1c0-0.1,0-0.2,0.1-0.3c0.1-0.1,0.2-0.1,0.3-0.1c0.1,0,0.2,0,0.2,0.1
		s0.1,0.2,0.1,0.3c0,0.3-0.1,0.4-0.4,0.4c-0.1,0-0.2,0-0.2-0.1C-180.4,393.2-180.4,393.1-180.4,393.1z"/>
	<path class="st1" d="M-227.3,412.9c0-2.3-0.1-3.7-0.1-4.4l0-0.1l0.1-0.1c0-0.2,0-0.4-0.1-0.6l-0.2-0.1c-0.1,0-0.2,0-0.3,0
		c-0.1,0-0.3,0-0.5-0.1c-0.2-0.1-0.4-0.1-0.5-0.1l-0.2,0.1c0,0.2,0,0.6,0,1c0,0.4,0,0.8,0,1l0,0.1c0,0.3,0,0.8,0,1.4
		c0,0.6,0,1.1,0,1.4c0,0.1,0,0.2-0.1,0.3c0,0.1-0.1,0.1-0.2,0.1c-0.2,0-0.3-0.3-0.3-1l0-1.5l0-1.5c0-1,0-1.5,0-1.6
		c0-0.1,0.1-0.5,0.1-1.1c0-0.5,0-1.1-0.1-1.9c0-0.9-0.1-1.5-0.1-1.9c0-0.1,0-0.2,0.1-0.2s0.1-0.1,0.2-0.1c0.2,0,0.3,0.3,0.3,0.9
		c0,0.5,0,1.2,0,2c0,0.8,0,1.5,0,2c0,0.1,0.4,0.2,1.1,0.2h0.1c0.2,0,0.3,0,0.4-0.1s0.1-0.2,0.1-0.4c0-0.5,0-1.3-0.1-2.2
		c-0.1-1-0.1-1.8-0.1-2.2c0-0.1,0-0.1,0.1-0.2c0.1-0.1,0.1-0.1,0.2-0.1c0,0,0.1,0,0.1,0l0.1,0.1c0,0.9,0,2.2,0.1,3.8
		c0.1,1.6,0.1,2.9,0.1,3.8c0,1.3,0,2.3,0.1,3.2l-0.1,0.2C-226.9,412.9-227,412.9-227.3,412.9z M-227.8,407L-227.8,407L-227.8,407
		L-227.8,407z"/>
	<path class="st1" d="M-224.2,412.3L-224.2,412.3c0-0.3,0.1-0.5,0.1-0.7c0-0.2,0-0.5,0-1.1c0-0.5,0-0.9,0-1.1c0-0.6,0-1.4,0.1-2.4
		c0-1,0.1-1.8,0.1-2.4c0-0.3,0-0.6,0-1c0-0.4,0-0.7,0-1c0-0.2,0-0.3,0.1-0.3s0.2-0.1,0.3-0.1c0.1,0,0.2,0,0.2,0.1
		c0.1,0,0.2,0,0.4,0.1c0.2,0,0.5,0.1,0.6,0.1c0.2,0.1,0.3,0.1,0.3,0.2c0,0.1-0.1,0.2-0.3,0.3c-0.5-0.2-0.9-0.3-1.2-0.3l-0.1,0.1
		c0,0.2,0,0.4,0,0.7c0,0.3,0,0.8,0,1.3s0,0.9,0,1.3c0,0.3,0.1,0.5,0.2,0.5l0.2,0c0.1,0,0.2,0,0.3,0c0.4,0,0.6,0.1,0.6,0.3
		c0,0.1,0,0.2-0.1,0.3c-0.1,0.1-0.1,0.1-0.2,0.1c-0.2,0-0.3,0-0.3-0.1l-0.5-0.1h-0.1l-0.1,0.1v0c0,0.2,0,0.7,0,1.3l0,1.1l0,1.2
		c0,0.4,0,0.9,0,1.3c0,0.2,0.1,0.4,0.2,0.5c0.1,0.1,0.2,0.1,0.5,0.1l0.3,0l0.3,0c0.3,0,0.4,0.1,0.4,0.2c0,0.2-0.2,0.3-0.6,0.3h-1.2
		c-0.2,0-0.3-0.1-0.3-0.3c0-0.1,0-0.1,0-0.2C-224.2,412.5-224.2,412.4-224.2,412.3z"/>
	<path class="st1" d="M-217.2,413.1l-0.2-0.1c-0.1-0.1-0.2-0.5-0.4-1.1c-0.1-0.6-0.3-1.3-0.4-2c-0.1-0.6-0.2-1.2-0.3-1.8
		c-0.1-0.5-0.2-0.8-0.3-0.8h-0.1c-0.2,0-0.3,0.1-0.3,0.2c0,0.6,0,1.8,0.1,3.6c0,1,0.1,1.5,0.1,1.7l-0.1,0.3h-0.2l-0.1-0.1
		c-0.2-4.7-0.2-8.1-0.2-10.2c0-0.1,0-0.2,0-0.3c0-0.1,0-0.1,0.1-0.2c0.1-0.1,0.1-0.1,0.2-0.1c0.5,0,0.9,0.1,1.2,0.4
		c0.3,0.3,0.5,0.7,0.5,1.2v1.2c0,0.2-0.1,0.5-0.2,0.8c-0.1,0.3-0.3,0.7-0.4,1c-0.1,0.3-0.2,0.4-0.2,0.4c0,0,0.2,0.9,0.6,2.6
		c0.4,1.7,0.6,2.6,0.6,2.7c0,0,0,0,0,0.1c0,0,0,0.1,0.1,0.2c0.1,0.2,0.1,0.3,0.1,0.4C-217.1,413.1-217.1,413.1-217.2,413.1z
		 M-219.2,406.8L-219.2,406.8c0.2,0,0.4-0.1,0.5-0.3c0.2-0.2,0.3-0.5,0.3-0.8c0.1-0.3,0.1-0.6,0.2-0.9s0.1-0.5,0.1-0.7
		c0-0.2,0-0.5,0-0.6c0-0.2-0.1-0.3-0.1-0.5c-0.1-0.2-0.2-0.3-0.3-0.4c-0.1-0.1-0.3-0.1-0.5-0.1c-0.1,0-0.1,0-0.1,0.1
		c0,0.1,0,0.2,0,0.3c0,0.5,0,1.2,0,2C-219.2,405.6-219.2,406.3-219.2,406.8z"/>
	<path class="st1" d="M-214.9,412.3L-214.9,412.3c0-0.3,0.1-0.5,0.1-0.7c0-0.2,0-0.5,0-1.1c0-0.5,0-0.9,0-1.1c0-0.6,0-1.4,0.1-2.4
		c0-1,0.1-1.8,0.1-2.4c0-0.3,0-0.6,0-1c0-0.4,0-0.7,0-1c0-0.2,0-0.3,0.1-0.3s0.2-0.1,0.3-0.1c0.1,0,0.2,0,0.2,0.1
		c0.1,0,0.2,0,0.4,0.1c0.2,0,0.5,0.1,0.6,0.1c0.2,0.1,0.3,0.1,0.3,0.2c0,0.1-0.1,0.2-0.3,0.3c-0.5-0.2-0.9-0.3-1.2-0.3l-0.1,0.1
		c0,0.2,0,0.4,0,0.7c0,0.3,0,0.8,0,1.3s0,0.9,0,1.3c0,0.3,0.1,0.5,0.2,0.5l0.2,0c0.1,0,0.2,0,0.3,0c0.4,0,0.6,0.1,0.6,0.3
		c0,0.1,0,0.2-0.1,0.3c-0.1,0.1-0.1,0.1-0.2,0.1c-0.2,0-0.3,0-0.3-0.1l-0.5-0.1h-0.1l-0.1,0.1v0c0,0.2,0,0.7,0,1.3l0,1.1l0,1.2
		c0,0.4,0,0.9,0,1.3c0,0.2,0.1,0.4,0.2,0.5c0.1,0.1,0.2,0.1,0.5,0.1l0.3,0l0.3,0c0.3,0,0.4,0.1,0.4,0.2c0,0.2-0.2,0.3-0.6,0.3h-1.2
		c-0.2,0-0.3-0.1-0.3-0.3c0-0.1,0-0.1,0-0.2C-214.9,412.5-214.9,412.4-214.9,412.3z"/>
	<path class="st1" d="M-203.4,404.5l-0.1,0.9c0,0.5-0.1,0.8-0.1,1.1c0,0.4,0,0.9-0.1,1.3c0,0.4-0.1,1-0.2,1.8
		c-0.1,0.4-0.1,0.9-0.2,1.3l0,0.3c0,0.3-0.1,0.7-0.2,1.2c0,0.2-0.1,0.4-0.1,0.5c0,0.1-0.1,0.2-0.2,0.2c-0.1,0-0.3-0.2-0.3-0.7
		c-0.1-0.5-0.1-1.2-0.2-2.1c0-0.8-0.1-1.3-0.1-1.5c0-0.2-0.1-0.5-0.1-1l-0.1-0.4c-0.1-0.6-0.1-1-0.1-1.2s0-0.6-0.1-1.1l0-0.3
		c0-0.3,0-0.6,0-0.8c0-0.2,0-0.5-0.1-0.8c0-0.3-0.1-0.6-0.2-0.9c0-0.1,0.1-0.1,0.2-0.1c0.1,0,0.1,0,0.2,0.1c0,0.1,0.1,0.2,0.1,0.3
		c0,0.2,0,0.4,0,0.7v0.2c0,0.3,0.1,1.4,0.3,3.2c0.2,1.8,0.3,3.2,0.3,4.2c0,0.1,0.1,0.2,0.1,0.4c0,0.2,0,0.4,0.1,0.4h0l0.2-1.7
		c0-0.2,0.1-0.5,0.1-0.8c0.1-0.5,0.1-1,0.1-1.5l0-0.2c0-0.4,0.1-1,0.1-1.7c0-0.8,0.1-1.3,0.1-1.6c0.1-0.5,0.1-0.9,0.1-1l0.3-0.1
		c0.1,0,0.1,0,0.2,0.1c0.1,0,0.1,0.1,0.1,0.2c0,0,0,0.1,0,0.1c0.4,1.5,0.7,3.2,0.8,5.2l0,0.6c0,0.3,0,0.6,0,0.7c0,0.1,0,0.3,0.1,0.5
		c0,0.2,0.1,0.4,0.2,0.6c0.1-0.4,0.2-1.3,0.3-2.7s0.1-2.7,0.1-3.7c0-0.3,0-0.7,0.1-1.3c0.1-0.5,0.1-1,0.1-1.3c0-0.1,0-0.2-0.1-0.3
		c0-0.2,0.1-0.3,0.3-0.3c0.1,0,0.1,0,0.2,0c0,0,0,0.1,0,0.2c0,0.3,0,0.5-0.1,0.7l0,0.1c-0.1,0.4-0.1,0.9-0.1,1.5c0,0.1,0,0.2,0,0.2
		l-0.1,0.3l0,0.1c0,0.1,0,0.1,0,0.2l0,0.3l0,0.1c0,0.4,0,1.2-0.1,2.5c-0.1,1.3-0.1,2.1-0.2,2.5c0,0.1,0,0.2-0.1,0.4
		c-0.1,0.2-0.1,0.4-0.1,0.5c0,0.3,0,0.6,0,1c0,0.2-0.1,0.4-0.1,0.6c-0.1,0.1-0.1,0.2-0.2,0.2c0,0-0.1,0-0.1-0.1s-0.1-0.1-0.1-0.2
		c0-0.1,0-0.3,0-0.4l0-0.1c0-0.3-0.1-0.7-0.2-1.2c0-0.2-0.1-0.3-0.1-0.3c-0.1-0.3-0.1-0.6-0.1-0.8c0-0.2-0.1-0.8-0.1-1.7
		c-0.1-1.2-0.2-2.1-0.3-2.8c-0.1-0.8-0.1-1.2-0.1-1.2S-203.3,404.6-203.4,404.5z M-202.1,411.4L-202.1,411.4L-202.1,411.4
		C-202.1,411.5-202.1,411.4-202.1,411.4z"/>
	<path class="st1" d="M-198.7,412.3L-198.7,412.3c0-0.3,0.1-0.5,0.1-0.7c0-0.2,0-0.5,0-1.1c0-0.5,0-0.9,0-1.1c0-0.6,0-1.4,0-2.4
		s0-1.8,0-2.4c0-0.3,0-0.6,0-1c0-0.4,0-0.7,0-1c0-0.2,0-0.3,0.1-0.3s0.2-0.1,0.3-0.1c0.1,0,0.2,0,0.2,0.1c0.1,0,0.2,0,0.4,0.1
		c0.2,0,0.5,0.1,0.6,0.1s0.3,0.1,0.3,0.2c0,0.1-0.1,0.2-0.3,0.3c-0.5-0.2-0.9-0.3-1.2-0.3l-0.1,0.1c0,0.2,0,0.4,0,0.7
		c0,0.3,0,0.8,0,1.3c0,0.5,0,0.9,0,1.3c0,0.3,0.1,0.5,0.2,0.5l0.2,0c0.1,0,0.2,0,0.3,0c0.4,0,0.6,0.1,0.6,0.3c0,0.1,0,0.2-0.1,0.3
		s-0.1,0.1-0.2,0.1c-0.2,0-0.3,0-0.3-0.1l-0.5-0.1h-0.1l-0.1,0.1v0c0,0.2,0,0.7,0,1.3l0,1.1l0,1.2c0,0.4,0,0.9,0,1.3
		c0,0.2,0.1,0.4,0.2,0.5c0.1,0.1,0.2,0.1,0.5,0.1l0.3,0l0.3,0c0.3,0,0.4,0.1,0.4,0.2c0,0.2-0.2,0.3-0.6,0.3h-1.2
		c-0.2,0-0.3-0.1-0.3-0.3c0-0.1,0-0.1,0-0.2S-198.7,412.4-198.7,412.3z"/>
	<path class="st1" d="M-189.3,407.9c0-0.3,0-0.7,0.1-1.3l0.1-1l0-0.2c0-0.7,0.1-1.3,0.2-1.7c0.1-0.4,0.2-0.8,0.4-1.1s0.6-0.5,1-0.5
		c0.1,0,0.2,0,0.2,0c0.3,0,0.5,0.1,0.5,0.2c0,0.1,0,0.1-0.1,0.2c-0.1,0-0.1,0.1-0.2,0.1l-0.1,0l-0.1,0c-0.2,0-0.3,0.1-0.4,0.2
		c-0.1,0.1-0.2,0.3-0.3,0.5c-0.1,0.2-0.2,0.5-0.2,0.7c-0.1,0.2-0.1,0.5-0.2,0.8c0,0.4-0.1,0.7-0.1,0.9c0,0.3,0,0.5,0,0.9
		c0,0.4,0,0.9,0,1.3c0,0.5,0,0.9,0,1.2c0.1,0.1,0.1,0.3,0.1,0.5c0,0.2,0,0.6,0.1,1c0,0.4,0.1,0.7,0.1,1c0.1,0.3,0.2,0.5,0.4,0.7
		c0.2,0.2,0.5,0.3,0.8,0.3c0.1,0,0.3,0,0.4-0.1c0.1-0.1,0.2-0.2,0.3-0.4c0.1-0.2,0.1-0.4,0.2-0.5c0-0.2,0.1-0.4,0.1-0.6
		c0-0.4,0-0.8,0-1.2v-0.9c-0.1-0.1-0.3-0.2-0.5-0.2l-0.1,0c0,0-0.1,0-0.2,0c-0.2,0-0.4-0.1-0.4-0.2c0-0.2,0.1-0.3,0.4-0.3
		c0.2,0,0.5,0,0.7,0c0.2,0,0.3,0.1,0.4,0.1c0.1,0,0.2,0.1,0.2,0.2c0,0.1,0,0.3-0.1,0.6c-0.1,0.3-0.1,0.5-0.1,0.6c0,0.3,0,0.8,0,1.2
		c0,0.5,0,0.9,0,1.2c-0.5,0.6-1,0.8-1.5,0.8c-0.4,0-0.8-0.1-1-0.2s-0.4-0.3-0.5-0.7c-0.1-0.3-0.2-0.9-0.3-1.6
		C-189.3,409.4-189.3,408.6-189.3,407.9z"/>
	<path class="st1" d="M-181.6,413.2c-1.1,0-1.7-2-1.7-6v-0.6c0-3,0.4-4.5,1.1-4.5c0,0,0.1,0,0.2,0c0.2,0.1,0.4,0.1,0.6,0.2
		c0.2,0,0.3,0.1,0.3,0.1c0.2,0,0.4,0.2,0.6,0.6c0.2,0.4,0.4,0.9,0.5,1.5c0.1,0.6,0.2,1.3,0.2,2l0,0.1l0,1l0,1c0,0.2,0,0.5,0,0.7
		c0,0.2,0,0.5,0,0.8c0,0.3-0.1,0.7-0.1,0.9c0,0.3-0.1,0.5-0.2,0.8c-0.1,0.3-0.2,0.5-0.3,0.7s-0.3,0.4-0.4,0.5
		C-181.2,413.1-181.4,413.2-181.6,413.2z M-182.8,408.5c0,0.5,0,1.1,0.1,1.8c0.1,0.5,0.1,0.9,0.2,1.2c0.1,0.3,0.2,0.6,0.3,0.9
		c0.1,0.3,0.3,0.4,0.5,0.4c0.2,0,0.4-0.1,0.5-0.2c0.1-0.2,0.3-0.4,0.4-0.7c0.2-0.6,0.3-1.2,0.3-1.8c0-0.6,0.1-1.1,0.1-1.6
		c0-0.4,0-1-0.1-1.9c-0.1-0.9-0.1-1.5-0.1-1.9l-0.1-0.1l0-0.1c0-0.3-0.1-0.6-0.2-0.9c-0.1-0.3-0.3-0.5-0.4-0.6s-0.4-0.2-0.6-0.2
		c-0.4,0-0.7,0.2-0.8,0.7c0,0.2-0.1,0.5-0.1,0.7c0,0.1,0,0.2,0,0.4c0,0.2,0,0.4,0,0.7c0,0.2,0,0.4-0.1,0.6c0,0.1,0,0.4,0,0.8
		c0,0.4,0,0.6,0,0.8l0,0.6L-182.8,408.5z"/>
	<path class="st1" d="M-177.3,412.5c0-0.1,0.1-0.2,0.2-0.3c0.1-0.1,0.2-0.2,0.3-0.2c0.1,0,0.2,0.1,0.3,0.2c0.1,0.1,0.1,0.3,0.1,0.4
		c0,0.3-0.1,0.4-0.4,0.4c0-0.1,0-0.1-0.1-0.1c0,0-0.1,0-0.2-0.1C-177.1,412.8-177.2,412.7-177.3,412.5z M-176.9,410.2v-3.9
		c0-0.3,0-0.8,0-1.4l0-1.4c0-0.3,0-0.8,0-1.3c0-0.6-0.1-1-0.1-1.3c0-0.1,0-0.2,0.2-0.3c0.1-0.1,0.2-0.1,0.3-0.1
		c0.1,0,0.2,0.1,0.2,0.2c0,0.9,0,2.2-0.2,3.9c-0.1,1.7-0.2,3-0.2,3.9c0,0.1,0,0.2,0,0.3c0,0.1,0,0.2,0,0.4c0,0.4,0,0.8-0.1,1l0,0.1
		L-176.9,410.2L-176.9,410.2L-176.9,410.2z"/>
</g>
</svg>
