<?xml version="1.0" encoding="utf-8"?>
<!-- Generator: Adobe Illustrator 18.0.0, SVG Export Plug-In . SVG Version: 6.00 Build 0)  -->
<!DOCTYPE svg PUBLIC "-//W3C//DTD SVG 1.1//EN" "http://www.w3.org/Graphics/SVG/1.1/DTD/svg11.dtd">
<svg version="1.1" id="Ebene_1" xmlns="http://www.w3.org/2000/svg" xmlns:xlink="http://www.w3.org/1999/xlink" x="0px" y="0px"
	 viewBox="0 0 65 65" enable-background="new 0 0 65 65" xml:space="preserve">
<g>
	<g>
		<path fill="#FFFFFF" d="M3.8,5c2,4.7,6,7.7,10.1,10.6c5.2,3.8,9.1,9,14.3,12.8c3,2.2,6,4,8.6,6.7c2.4,2.5,4.4,5.6,6.5,8.4
			c4.8,6.2,10.1,12,15.5,17.7c2.7,2.8,6.9-1.4,4.2-4.2c-4.8-5.1-9.5-10.2-13.9-15.6c-4-4.9-7.2-10.5-12.3-14.2c-3-2.2-6.2-4.1-9-6.6
			c-2.4-2.3-4.5-4.9-7-7.1C16.5,9.7,11.3,7.4,9,2C7.4-1.5,2.3,1.5,3.8,5L3.8,5z"/>
	</g>
</g>
<g>
	<g>
		<path fill="#FFFFFF" d="M42.2,55c5.7,2.6,11.4,5.3,17.2,7.9c1.9,0.9,4.6-0.1,4.5-2.6c-0.5-9.8-2.8-19.1-6.7-28
			c-1.6-3.5-6.7-0.5-5.2,3c3.5,8,5.5,16.3,5.9,25c1.5-0.9,3-1.7,4.5-2.6c-5.7-2.6-11.4-5.3-17.2-7.9C41.7,48.2,38.7,53.4,42.2,55
			L42.2,55z"/>
	</g>
</g>
</svg>
