<?xml version="1.0" encoding="utf-8"?>
<!-- Generator: Adobe Illustrator 18.0.0, SVG Export Plug-In . SVG Version: 6.00 Build 0)  -->
<!DOCTYPE svg PUBLIC "-//W3C//DTD SVG 1.1//EN" "http://www.w3.org/Graphics/SVG/1.1/DTD/svg11.dtd">
<svg version="1.1" id="Ebene_1" xmlns="http://www.w3.org/2000/svg" xmlns:xlink="http://www.w3.org/1999/xlink" x="0px" y="0px"
	 viewBox="0 0 45 114.7" enable-background="new 0 0 45 114.7" xml:space="preserve">
<g>
	<g>
		<path fill="#FFFFFF" d="M43.8,36.1c-0.8-5.9-4.1-11.2-6.8-16.4C34.3,14.6,31.8,6.8,27,3.3c-1-0.8-2.8-0.4-3.6,0.5
			c-8.3,9-11.9,21.4-20.9,29.8c-2.8,2.7,1.4,6.9,4.2,4.2c9-8.5,12.6-20.8,20.9-29.8c-1.2,0.2-2.4,0.3-3.6,0.5
			c1.5,1.1,2.5,4.2,3.3,5.8c1.5,2.8,3,5.6,4.5,8.4c2.5,4.8,5.5,9.5,6.2,14.9C38.5,41.5,44.3,39.9,43.8,36.1L43.8,36.1z"/>
	</g>
</g>
<g>
	<g>
		<path fill="#FFFFFF" d="M26.2,109.2c0.5-8.5,0.4-17-0.1-25.5c-0.5-8.8-2.1-17.5-2.8-26.3c-0.7-8.3,1.3-15.5,3.2-23.5
			c1.8-7.9,2.2-16,1.5-24.1c-0.3-3.8-6.3-3.9-6,0c0.7,8.2,0.2,16.2-1.7,24.2c-1.9,8-3.5,15-3,23.3c0.5,8.2,2,16.2,2.7,24.4
			c0.7,9.1,0.7,18.3,0.2,27.4C20,113.1,26,113,26.2,109.2L26.2,109.2z"/>
	</g>
</g>
</svg>
