<?xml version="1.0" encoding="utf-8"?>
<!-- Generator: Adobe Illustrator 18.0.0, SVG Export Plug-In . SVG Version: 6.00 Build 0)  -->
<!DOCTYPE svg PUBLIC "-//W3C//DTD SVG 1.1//EN" "http://www.w3.org/Graphics/SVG/1.1/DTD/svg11.dtd">
<svg version="1.1" id="Ebene_1" xmlns="http://www.w3.org/2000/svg" xmlns:xlink="http://www.w3.org/1999/xlink" x="0px" y="0px"
	 viewBox="52 0 96 200" enable-background="new 52 0 96 200" xml:space="preserve">
<g opacity="0.2">
	<polygon points="60,196 60,196 64,200 68,196 68,196 72,200 76,196 76,196 80,200 84,196 84,196 88,200 92,196 91.9,196 96,200 
		100,196 100,196 104,200 108,196 108,196 112,200 116,196 116,196 120,200 124,196 124,196 128,200 132,196 132,196 136,200 
		140,196 139.9,196 144,200 148,196 148,1 52,1 52,196 56,200 	"/>
</g>
<g opacity="0.3">
	<polygon points="60,195.3 60,195.3 64,199.3 68,195.3 68,195.3 72,199.3 76,195.3 76,195.3 80,199.3 84,195.3 84,195.3 88,199.3 
		92,195.3 91.9,195.3 96,199.3 100,195.3 100,195.3 104,199.3 108,195.3 108,195.3 112,199.3 116,195.3 116,195.3 120,199.3 
		124,195.3 124,195.3 128,199.3 132,195.3 132,195.3 136,199.3 140,195.3 139.9,195.3 144,199.3 148,195.3 148,0.3 52,0.3 52,195.3 
		56,199.3 	"/>
</g>
<g>
	<polygon fill="#FFFFFF" points="60,195 60,195 64,199 68,195 68,195 72,199 76,195 76,195 80,199 84,195 84,195 88,199 92,195 
		91.9,195 96,199 100,195 100,195 104,199 108,195 108,195 112,199 116,195 116,195 120,199 124,195 124,195 128,199 132,195 
		132,195 136,199 140,195 139.9,195 144,199 148,195 148,0 52,0 52,195 56,199 	"/>
</g>
<g>
	<path fill="#FF48B0" d="M99.2,147.9L99.2,147.9l7.7-7.7v2.3c0,0.8,0.6,1.4,1.4,1.4c0.8,0,1.4-0.6,1.4-1.4v-7.1h-7.1
		c-0.8,0-1.4,0.6-1.4,1.4s0.6,1.4,1.4,1.4h2.3l-7.7,7.7h-7.1l0,0h-0.1c-2.4,0-4.6-1-6.3-2.6c-3.5-3.5-3.5-9.4,0-12.9
		c1.6-1.6,3.7-2.5,5.8-2.6h0.2c0.1,0,0.2,0,0.3,0c0.2,0,0.3,0,0.5,0h0.2H91h6.9l8.1-8.1H91c-0.2,0-0.6,0-0.8,0s-0.6,0-0.8,0h-0.2
		l0,0c-4.1,0.2-8.2,2-11.3,5.1c-6.2,6.4-6.5,16.8-0.5,23.5c3.2,3.5,7.4,5.4,11.8,5.7l-5.3,5.3h-4.3c-0.9,0-1.8,0.4-2.4,1l-7,7
		c-0.7,0.7-0.2,1.9,0.8,1.9h3.8c0.6,0,1.1,0.5,1.1,1.1v3.8c0,1,1.2,1.5,1.9,0.8l7-7c0.6-0.6,1-1.5,1-2.4v-4.3l5.3-5.3l0,0
		L99.2,147.9z"/>
	<path fill="#FF48B0" d="M125.4,154v-32.1c0-0.6-0.2-1.2-0.6-1.6s-1-0.6-1.6-0.6h-14l-8.1,8.1h16.2l0,0l0,0V154v0.2v0.2
		c0,0.3,0,0.7,0,1v0.1c-0.2,2.2-1,4.3-2.6,5.8c-1.7,1.7-4,2.6-6.4,2.6s-4.7-1-6.4-2.6c-1.7-1.7-2.6-3.9-2.6-6.2l0,0v-4.1l-7.7,7.7
		c0.7,3,2.2,5.9,4.6,8.3c3.4,3.4,7.8,5,12.2,5s8.8-1.7,12.2-5c3.1-3.1,4.7-7,5-11l0,0l0,0C125.5,155.3,125.5,154.7,125.4,154"/>
</g>
</svg>
