<svg id="Ebene_1" data-name="Ebene 1" xmlns="http://www.w3.org/2000/svg" viewBox="0 0 80 80"><defs><style>.cls-1{fill:#ff46af;}.cls-2{fill:#fff;stroke:#fff;stroke-miterlimit:10;stroke-width:0.75px;}</style></defs><title>ourStory</title><circle class="cls-1" cx="40" cy="40" r="40"/><path class="cls-2" d="M37.17,46.29q-2.67.9-5.48-7.48L31.43,38q-2.13-6.34-.49-6.9a1.3,1.3,0,0,1,.33,0,6.07,6.07,0,0,0,1-.07l.53-.08q.47-.07,1.16.59a7,7,0,0,1,1.44,1.9,16.4,16.4,0,0,1,1.17,2.69v.13l.48,1.35.48,1.35q.16.48.32,1c.1.33.21.71.31,1.14s.21,1,.26,1.35a10.87,10.87,0,0,1,.1,1.23,4.87,4.87,0,0,1-.11,1.19,2.28,2.28,0,0,1-.42.89A1.6,1.6,0,0,1,37.17,46.29Zm-4.13-6a20.94,20.94,0,0,0,1,2.4,14.37,14.37,0,0,0,.9,1.61,4.63,4.63,0,0,0,.92,1,1,1,0,0,0,1,.28,1.15,1.15,0,0,0,.67-.59A2.39,2.39,0,0,0,37.76,44a11,11,0,0,0-.35-2.76q-.3-1.2-.64-2.21-.28-.82-1-2.65t-1-2.64l-.15-.15v-.13a3,3,0,0,0-.66-1.13,2.44,2.44,0,0,0-1-.67,1.62,1.62,0,0,0-1.07,0,1.18,1.18,0,0,0-.9,1.41,6.63,6.63,0,0,0,.23,1l.17.52c.09.28.18.58.28.93a5.88,5.88,0,0,1,.18.9q.09.27.3,1.08t.3,1.08l.32.89Z" transform="translate(-10 -10)"/><path class="cls-2" d="M46,43.21a1.85,1.85,0,0,1-.87,0,2.49,2.49,0,0,1-.88-.32A6.11,6.11,0,0,1,43,40.78q-.83-1.84-1.67-4.25l-.26-.73q-1.07-3-1.64-4.62T38.59,29l0-.37q.54-.11.94,1.08l2.09,6q.24.72.93,2.37t.93,2.37q.87,2.59,2.58,2,1-.35-.27-5.21l-.12-.48q-1.71-5.62-3-9.31l-.09-.2-.09-.19c-.06-.17,0-.3.3-.39s.3,0,.38,0a3.52,3.52,0,0,1,.32.77,12.09,12.09,0,0,1,.64,2.37.49.49,0,0,1,.07.14q.07.22.25.93c.12.47.2.78.25.92a2.24,2.24,0,0,0,.08.22,2,2,0,0,1,.09.23q.11.43.47,1.57.72,2.24,1.16,3.79a12.66,12.66,0,0,1,.58,3.53,2.62,2.62,0,0,1-.29,1.3A1.48,1.48,0,0,1,46,43.21Z" transform="translate(-10 -10)"/><path class="cls-2" d="M56.35,39.8H56a4.75,4.75,0,0,1-1.11-1.38q-.74-1.17-1.55-2.68-.67-1.27-1.38-2.39t-.91-1l-.09,0q-.5.17-.39.49.41,1.23,1.88,4.92a16.45,16.45,0,0,0,1,2.33l0,.43L53,40.7l-.23-.12q-3.68-9.73-5.18-14.21a2.48,2.48,0,0,1-.11-.43.74.74,0,0,1,0-.34.43.43,0,0,1,.28-.27,3,3,0,0,1,2,0,2.1,2.1,0,0,1,1.25,1.4l.56,1.66a3.62,3.62,0,0,1,.11,1.22,13.37,13.37,0,0,1-.16,1.57,5.63,5.63,0,0,0-.11.68q0,.08,2.09,3.34t2.19,3.42l.06.07.26.25a1.37,1.37,0,0,1,.36.48Q56.61,39.71,56.35,39.8Zm-6-7.85.06,0a1,1,0,0,0,.63-.7A3.16,3.16,0,0,0,51.17,30,11.71,11.71,0,0,0,51,28.68a6.8,6.8,0,0,0-.24-1,6.51,6.51,0,0,0-.34-.85,4,4,0,0,0-.43-.66,1.22,1.22,0,0,0-.67-.44,1.62,1.62,0,0,0-.9.07c-.08,0-.12.11-.13.26a1.17,1.17,0,0,0,.06.42q.38,1.12,1,2.74T50.33,31.94Z" transform="translate(-10 -10)"/><path class="cls-2" d="M35.75,76.36l.05-.21.43-.06a1.64,1.64,0,0,0,.45-.06,1.28,1.28,0,0,0,.76-.7,2.57,2.57,0,0,0,.22-1.23,8.26,8.26,0,0,0-.41-2.33,6.09,6.09,0,0,0-.84-1.62,9.25,9.25,0,0,0-1.26-1.42l-.43-.39q-.77-.71-1.21-1.15a7.93,7.93,0,0,1-.87-1,6.18,6.18,0,0,1-.9-1.71,4.79,4.79,0,0,1-.2-1,6.31,6.31,0,0,1,0-1.11,2.36,2.36,0,0,1,.29-1.05,1.26,1.26,0,0,1,.7-.6,1.08,1.08,0,0,1,.64,0,.58.58,0,0,1,.44.33c0,.12,0,.21-.24.28a.7.7,0,0,1-.26,0,.66.66,0,0,0-.27,0,.88.88,0,0,0-.52.48,1.89,1.89,0,0,0-.17.85,5.18,5.18,0,0,0,.24,1.63,3.88,3.88,0,0,0,.41.85l.21.35a3,3,0,0,0,.29.41l.25.36.3.35.63.57.28.24.82.72q.34.31.7.69a6.22,6.22,0,0,1,.64.79,9.59,9.59,0,0,1,.54.94,9.35,9.35,0,0,1,.5,1.22A6.57,6.57,0,0,1,38.3,74a4.3,4.3,0,0,1-.15,1.12,2.25,2.25,0,0,1-.48.87,2,2,0,0,1-.91.6l-.09.09a1.27,1.27,0,0,1-.55,0A.57.57,0,0,1,35.75,76.36ZM33.46,61.2v0h0A0,0,0,0,0,33.46,61.2Z" transform="translate(-10 -10)"/><path class="cls-2" d="M45.22,73.34l-.32-.1-.3-.83-.3-.81-.11-.41-.11-.41a1.69,1.69,0,0,0-.27-.51q-.62-1.85-2.12-5.58t-2.07-5.36a15,15,0,0,1-1.92.56q-.5.07-.59-.2a.44.44,0,0,1,.35-.4c.35-.12,1-.31,2-.56s1.62-.42,2-.55L42,58l.47-.17c.27-.09.44,0,.51.15a.26.26,0,0,1-.07.27.79.79,0,0,1-.33.2c-.19.06-.52.16-1,.28l-1,.28a.09.09,0,0,0-.07.1,2.78,2.78,0,0,0,.12.44q.75,2.22,2.51,6.59t2.51,6.59a.4.4,0,0,1-.1.36A.71.71,0,0,1,45.22,73.34Z" transform="translate(-10 -10)"/><path class="cls-2" d="M53.67,71.13Q51,72,48.19,63.65l-.26-.79q-2.13-6.34-.49-6.9a1.4,1.4,0,0,1,.33,0,6.07,6.07,0,0,0,1-.07l.53-.08q.47-.07,1.16.59a7,7,0,0,1,1.44,1.9,16.45,16.45,0,0,1,1.17,2.69v.13l.48,1.35L54,63.76q.16.48.32,1c.1.33.21.71.31,1.14s.21,1,.26,1.35a10.91,10.91,0,0,1,.1,1.23,4.93,4.93,0,0,1-.11,1.19,2.31,2.31,0,0,1-.42.89A1.6,1.6,0,0,1,53.67,71.13Zm-4.13-6a21,21,0,0,0,1,2.4,14.43,14.43,0,0,0,.9,1.61,4.59,4.59,0,0,0,.92,1,1,1,0,0,0,1,.28,1.15,1.15,0,0,0,.67-.6,2.39,2.39,0,0,0,.23-1.12A11,11,0,0,0,53.91,66q-.3-1.2-.64-2.21-.28-.82-1-2.65t-1-2.64l-.15-.15v-.13a3.07,3.07,0,0,0-.66-1.13,2.46,2.46,0,0,0-1-.67,1.62,1.62,0,0,0-1.07,0,1.18,1.18,0,0,0-.9,1.41,6.6,6.6,0,0,0,.23,1l.17.52q.13.41.28.93a5.86,5.86,0,0,1,.18.9q.09.27.3,1.08t.3,1.08l.32.89Z" transform="translate(-10 -10)"/><path class="cls-2" d="M64,67.62H63.6a4.76,4.76,0,0,1-1.11-1.38q-.74-1.16-1.55-2.68-.67-1.27-1.38-2.39t-.91-1l-.09,0c-.33.11-.46.27-.39.49Q58.58,62,60,65.65A16.65,16.65,0,0,0,61,68l0,.43-.33.11-.23-.12q-3.68-9.73-5.18-14.21a2.55,2.55,0,0,1-.11-.43.73.73,0,0,1,0-.34.43.43,0,0,1,.28-.27,3,3,0,0,1,2,0,2.1,2.1,0,0,1,1.25,1.4l.56,1.66a3.57,3.57,0,0,1,.11,1.22A13.39,13.39,0,0,1,59.27,59a5.53,5.53,0,0,0-.11.68q0,.08,2.09,3.34t2.19,3.42l.06.07.26.25a1.36,1.36,0,0,1,.36.48C64.19,67.43,64.14,67.56,64,67.62Zm-6-7.86.06,0a1,1,0,0,0,.62-.7,3.14,3.14,0,0,0,.16-1.28,11.48,11.48,0,0,0-.14-1.31,6.8,6.8,0,0,0-.24-1,6.61,6.61,0,0,0-.34-.85,4.17,4.17,0,0,0-.43-.66,1.22,1.22,0,0,0-.67-.44,1.63,1.63,0,0,0-.9.07c-.08,0-.12.11-.13.26a1.17,1.17,0,0,0,.06.42q.38,1.12,1,2.74T57.94,59.77Z" transform="translate(-10 -10)"/><path class="cls-2" d="M69.41,65.46a19.25,19.25,0,0,0-1.11-4.05q-.25-.74-.72-1.87L66.94,58l-.24-.24,0-.3-.76-.93-1.07-1.33-.47-.6-.75-.95q-.57-.73-.89-1.21a4.87,4.87,0,0,1-.48-.79l.23-.35q.23,0,1.15,1.22.62.84,1.49,2.07l.35.48q.9,1.27,1.09,1.26l0-.44-.08-.1a6.48,6.48,0,0,0-.1-1.77q-.22-1.56-.33-2.88t.16-1.46a.37.37,0,0,1,.23,0,.21.21,0,0,1,.15.14,17.11,17.11,0,0,1,.19,2.66l0,.27q0,.67.05,1.17c0,.33,0,.7.09,1.1a9.4,9.4,0,0,0,.43,2.17,1.27,1.27,0,0,1,.24.35,1.14,1.14,0,0,1,0,.33,1.26,1.26,0,0,0,0,.37,10.61,10.61,0,0,0,.44,1,10.49,10.49,0,0,1,.44,1q.34,1,.62,1.8t.62,1.81l0,.1q.52,1.54,0,1.7a.35.35,0,0,1-.22,0A.49.49,0,0,1,69.41,65.46Z" transform="translate(-10 -10)"/><path class="cls-2" d="M75,59.42,73.14,54q-.22-.67-.62-2l-.63-2q-.24-.71-.69-1.79-.51-1.24-.68-1.74a.58.58,0,0,1,.09-.49.78.78,0,0,1,.41-.35.27.27,0,0,1,.38.19Q72,47.69,73,51.39t1.58,5.53c.05.15.11.3.16.45s.12.33.19.54a3.93,3.93,0,0,1,.27,1.4l.1.09-.3.1,0,0Zm.45,3.45a.72.72,0,0,1,.08-.54.69.69,0,0,1,.38-.39.62.62,0,0,1,.58.07,1,1,0,0,1,.38.54.56.56,0,0,1-.37.79.17.17,0,0,0-.19-.07.79.79,0,0,1-.33,0A1.28,1.28,0,0,1,75.42,62.86Z" transform="translate(-10 -10)"/></svg>