<?xml version="1.0" encoding="utf-8"?>
<!-- Generator: Adobe Illustrator 19.0.0, SVG Export Plug-In . SVG Version: 6.00 Build 0)  -->
<svg version="1.1" id="Ebene_1" xmlns="http://www.w3.org/2000/svg" xmlns:xlink="http://www.w3.org/1999/xlink" x="0px" y="0px"
	 viewBox="-255 347 100 100" style="enable-background:new -255 347 100 100;" xml:space="preserve">
<style type="text/css">
	.st0{fill:#FF46AF;}
	.st1{fill:#FFFFFF;stroke:#FFFFFF;stroke-width:0.5;stroke-miterlimit:10;}
</style>
<circle class="st0" cx="-205" cy="397" r="40"/>
<g>
	<path class="st1" d="M-214.8,383.7v-1.4c0-0.6,0-1.5,0-2.5c0-1.1,0-2,0-2.5v-0.9v-0.9c0-0.1,0-0.4,0-0.8V374c0,0,0,0,0,0.1
		c-0.2,0.8-0.3,1.8-0.6,3s-0.5,2.2-0.6,2.8c-0.2,0.5-0.3,1-0.3,1.4c0,0.1,0,0.3-0.2,0.3s-0.2,0.1-0.3,0.1c-0.2,0-0.2,0-0.3-0.1
		c-0.2-0.1-0.2-0.3-0.2-0.4c0-0.3-0.2-1-0.5-2.3c-0.3-1.3-0.6-2.4-0.9-3.6c-0.3-1.1-0.5-1.6-0.5-1.8c0,1,0,2,0,3c0,0.5,0,1.4,0,2.4
		c0,1,0,1.9,0,2.4c0,0.1,0,0.4,0,0.8c0,0.4,0,0.6,0,0.8c0,0.1,0,0.3-0.2,0.4c-0.3,0-0.5-0.3-0.5-0.8v-2.5v-1.5c0-0.5,0-1,0-1.5
		c0-0.4,0-1,0-1.8s0-1.4,0-1.8v-1.3c0,0,0-0.1,0.2-0.1s0.2,0,0.2,0c0.2,0,0.2,0,0.2,0.1c0.2,0.3,0.5,1.1,0.8,2.7s0.8,2.7,1.1,3.6
		c0.2,0.4,0.3,1.3,0.6,2.5l0.3-1.4c0-0.4,0.2-0.8,0.3-1.4c0-0.3,0.3-1.4,0.8-3.4v-0.3l0.2-0.8l0.2-0.9v-0.3v-0.3
		c0-0.1,0-0.1,0.2-0.3c0.2-0.1,0.2-0.1,0.2-0.1s0.2,0,0.2,0.1c0,0.1,0,0.1,0,0.3v1.5c0,0.8,0,1.9,0.2,3.4c0.2,1.5,0.2,2.7,0.2,3.4
		c0,0.3,0,0.6,0,1.3s0,1.1,0,1.5c0,0.3,0,0.4,0,0.4l-0.2,0.1c-0.2,0-0.3,0-0.3-0.1C-214.8,383.8-214.8,383.9-214.8,383.7z"/>
	<path class="st1" d="M-210.9,383.3L-210.9,383.3c0-0.3,0-0.5,0-0.6c0-0.1,0-0.5,0-1s0-0.9,0-1c0-0.6,0-1.4,0-2.3s0-1.8,0-2.3
		c0-0.3,0-0.5,0-0.9c0-0.4,0-0.6,0-0.9c0-0.1,0-0.3,0.2-0.4c0.2-0.1,0.2-0.1,0.5-0.1c0.2,0,0.3,0,0.3,0.1c0.2,0,0.3,0,0.6,0
		s0.6,0.1,0.8,0.1c0.2,0,0.3,0.1,0.3,0.3c0,0.1-0.2,0.3-0.3,0.3c-0.6-0.1-1.2-0.3-1.5-0.3l-0.2,0.1c0,0.1,0,0.4,0,0.6
		c0,0.4,0,0.8,0,1.1s0,0.9,0,1.1c0,0.3,0.2,0.4,0.3,0.4h0.3c0.2,0,0.3,0,0.3,0c0.5,0,0.8,0.1,0.8,0.3c0,0.1,0,0.3-0.2,0.3
		s-0.2,0.1-0.3,0.1c-0.2,0-0.3,0-0.5-0.1l-0.6-0.1h-0.2l-0.2,0.1l0,0c0,0.3,0,0.6,0,1.1v1v1.1c0,0.4,0,0.8,0,1.3
		c0,0.3,0.2,0.4,0.2,0.5c0,0.1,0.3,0.1,0.6,0.1h0.3h0.3c0.3,0,0.6,0.1,0.6,0.3c0,0.1-0.3,0.3-0.8,0.3h-1.5c-0.2,0-0.3-0.1-0.3-0.4
		c0-0.1,0-0.1,0-0.3C-211.1,383.2-210.9,383.4-210.9,383.3z"/>
	<path class="st1" d="M-205.2,383.3L-205.2,383.3c0-0.3,0-0.5,0-0.6c0-0.1,0-0.5,0-1s0-0.9,0-1c0-0.6,0-1.4,0-2.3s0-1.8,0-2.3
		c0-0.3,0-0.5,0-0.9c0-0.4,0-0.6,0-0.9c0-0.1,0-0.3,0.2-0.4c0.2-0.1,0.2-0.1,0.5-0.1c0.2,0,0.3,0,0.3,0.1c0.2,0,0.3,0,0.6,0
		c0.3,0,0.6,0.1,0.8,0.1s0.3,0.1,0.3,0.3c0,0.1-0.2,0.3-0.3,0.3c-0.6-0.1-1.2-0.3-1.5-0.3l-0.2,0.1c0,0.1,0,0.4,0,0.6
		c0,0.4,0,0.8,0,1.1s0,0.9,0,1.1c0,0.3,0.2,0.4,0.3,0.4h0.3c0.2,0,0.3,0,0.3,0c0.5,0,0.8,0.1,0.8,0.3c0,0.1,0,0.3-0.2,0.3
		s-0.2,0.1-0.3,0.1c-0.2,0-0.3,0-0.5-0.1l-0.6-0.1h-0.2l-0.2,0.1l0,0c0,0.3,0,0.6,0,1.1v1v1.1c0,0.4,0,0.8,0,1.3
		c0,0.3,0.2,0.4,0.2,0.5c0,0.1,0.3,0.1,0.6,0.1h0.3h0.3c0.3,0,0.6,0.1,0.6,0.3c0,0.1-0.3,0.3-0.8,0.3h-1.5c-0.2,0-0.3-0.1-0.3-0.4
		c0-0.1,0-0.1,0-0.3C-205.4,383.2-205.2,383.4-205.2,383.3z"/>
	<path class="st1" d="M-197.8,383.7l-0.2-0.1V383v-0.5v-0.3V382c0-0.1,0-0.3,0-0.4c0-0.8,0-2-0.2-3.8c-0.2-1.8-0.2-2.9-0.2-3.7
		c-0.8,0-1.2,0-1.5,0s-0.3-0.1-0.3-0.3c0-0.1,0.2-0.1,0.3-0.1c0.3,0,0.8,0,1.5,0.1c0.8,0,1.2,0.1,1.5,0.1h0.5h0.5
		c0.2,0,0.3,0.1,0.3,0.3c0,0.1,0,0.1-0.2,0.1s-0.2,0-0.3,0c-0.2,0-0.5,0-0.8,0c-0.3,0-0.6,0-0.8,0l0,0c0,0,0,0.1,0,0.3
		c0,1,0,2.5,0.2,4.4c0.2,2,0.2,3.4,0.2,4.4c0,0.1,0,0.1-0.2,0.3C-197.5,383.9-197.7,383.7-197.8,383.7z"/>
	<path class="st1" d="M-211.8,401.9l-0.2-0.1v-0.5v-0.5v-0.3v-0.3c0-0.1,0-0.3,0-0.4c0-0.8,0-2-0.2-3.8s-0.2-2.9-0.2-3.7
		c-0.8,0-1.2,0-1.5,0s-0.3-0.1-0.3-0.3c0-0.1,0.2-0.1,0.3-0.1c0.3,0,0.8,0,1.5,0.1c0.8,0,1.2,0.1,1.5,0.1h0.5h0.5
		c0.2,0,0.3,0.1,0.3,0.3c0,0.1,0,0.1-0.2,0.1c-0.2,0-0.2,0-0.3,0c-0.2,0-0.5,0-0.8,0s-0.6,0-0.8,0l0,0c0,0,0,0.1,0,0.3
		c0,1,0,2.5,0.2,4.4c0.2,2,0.2,3.4,0.2,4.4c0,0.1,0,0.1-0.2,0.3C-211.5,402.2-211.7,401.9-211.8,401.9z"/>
	<path class="st1" d="M-204.4,402.1c0-2.2-0.2-3.6-0.2-4.1l0,0v-0.1c0-0.1,0-0.4,0-0.5h-0.3c-0.2,0-0.3,0-0.3,0
		c-0.2,0-0.3,0-0.6-0.1c-0.3,0-0.5-0.1-0.6-0.1h-0.2c0,0.3,0,0.5,0,1c0,0.4,0,0.8,0,1v0.1c0,0.3,0,0.8,0,1.3s0,1,0,1.3
		c0,0.1,0,0.3,0,0.3l-0.2,0.1c-0.3,0-0.5-0.3-0.5-0.9v-1.4v-1.4c0-0.9,0-1.4,0-1.5c0-0.1,0.2-0.4,0.2-1c0-0.5,0-1,0-1.8
		c0-0.9,0-1.4,0-1.8c0-0.1,0-0.1,0.2-0.3c0.2-0.1,0.2-0.1,0.2-0.1c0.3,0,0.3,0.3,0.3,0.9c0,0.5,0,1.1,0,1.9s0,1.4,0,1.9
		c0,0.1,0.5,0.1,1.4,0.1l0,0c0.3,0,0.5,0,0.5-0.1s0.2-0.3,0.2-0.4c0-0.5,0-1.1-0.2-2.2c-0.2-1-0.2-1.6-0.2-2.2c0,0,0-0.1,0.2-0.1
		c0.2,0,0.2-0.1,0.2-0.1s0,0,0.2,0h0.2c0,0.9,0,2,0.2,3.6c0.2,1.5,0.2,2.7,0.2,3.6c0,1.1,0,2.2,0.2,3l-0.2,0.1
		C-203.8,402.2-204,402.1-204.4,402.1z M-204.9,396.6L-204.9,396.6L-204.9,396.6L-204.9,396.6z"/>
	<path class="st1" d="M-200.4,401.6L-200.4,401.6c0-0.3,0-0.5,0-0.6c0-0.1,0-0.5,0-1c0-0.5,0-0.9,0-1c0-0.6,0-1.4,0-2.3s0-1.8,0-2.3
		c0-0.3,0-0.5,0-0.9c0-0.4,0-0.6,0-0.9c0-0.1,0-0.3,0.2-0.4c0.2-0.1,0.2-0.1,0.5-0.1c0.2,0,0.3,0,0.3,0.1c0.2,0,0.3,0,0.6,0
		c0.3,0,0.6,0.1,0.8,0.1s0.3,0.1,0.3,0.3c0,0.1-0.2,0.3-0.3,0.3c-0.6-0.1-1.2-0.3-1.5-0.3l-0.2,0.1c0,0.1,0,0.4,0,0.6
		c0,0.4,0,0.8,0,1.1c0,0.4,0,0.9,0,1.1c0,0.3,0.2,0.4,0.3,0.4h0.3c0.2,0,0.3,0,0.3,0c0.5,0,0.8,0.1,0.8,0.3s0,0.3-0.2,0.3
		c-0.2,0-0.2,0.1-0.3,0.1c-0.2,0-0.3,0-0.5-0.1l-0.6-0.1h-0.2l-0.2,0.1l0,0c0,0.3,0,0.6,0,1.1v1v1.1c0,0.4,0,0.8,0,1.3
		c0,0.3,0.2,0.4,0.2,0.5c0,0.1,0.3,0.1,0.6,0.1h0.3h0.3c0.3,0,0.6,0.1,0.6,0.3c0,0.1-0.3,0.3-0.8,0.3h-1.5c-0.2,0-0.3-0.1-0.3-0.4
		c0-0.1,0-0.1,0-0.3S-200.4,401.7-200.4,401.6z"/>
	<path class="st1" d="M-225.7,420.6l-0.3-0.1c-0.2-0.6-0.2-1.4-0.2-2.2c0-0.3,0-0.8,0-1.4c0-0.5,0-1,0-1.4c-0.2-0.1-0.2-0.3-0.2-0.4
		c0.2-0.1,0.2-0.6,0.2-1.4c0-1.8,0-2.8-0.2-2.9c0.2-0.3,0.2-0.4,0.3-0.4h0.8c0.2,0,0.3,0,0.6,0.1c0.3,0.1,0.5,0.3,0.6,0.4
		c0.3,0.3,0.5,0.9,0.5,1.8c0,0.3,0,0.5,0,0.6c0,0.1,0,0.4,0,0.5c0,0.1,0,0.4-0.2,0.5c-0.2,0.1-0.2,0.3-0.3,0.4
		c-0.2,0.1-0.2,0.3-0.3,0.4c-0.2,0.1-0.3,0.1-0.6,0.3c-0.2,0.1-0.5,0.1-0.8,0.3v1.8c0,0.4,0,0.8,0.2,1.5c0,0.8,0,1.1,0,1.5
		C-225.4,420.6-225.6,420.6-225.7,420.6z M-225.4,413.5c0,0.3,0,0.4,0,0.8c0,0.4,0,0.5,0,0.8l0.2,0.1c0.2,0,0.3,0,0.5-0.1
		c0.2-0.1,0.3-0.1,0.5-0.3c0.2-0.1,0.3-0.5,0.5-0.9c0-0.3,0.2-0.6,0.2-1v-0.4c0-0.1,0-0.4,0-0.4s0-0.3-0.2-0.4
		c0-0.1-0.2-0.3-0.2-0.4c0-0.1-0.2-0.1-0.3-0.3c-0.2-0.1-0.3-0.1-0.5-0.1c-0.2,0-0.3,0-0.3,0.1c0,0.1-0.2,0.1-0.2,0.3
		c0,0.3,0,0.5,0,1.1C-225.6,413-225.4,413.2-225.4,413.5z"/>
	<path class="st1" d="M-219.7,418L-219.7,418L-219.7,418C-219.9,418-219.9,418-219.7,418C-219.9,418-219.9,418-219.7,418l-0.2,0.4
		c0,0.3-0.2,0.6-0.2,1.1c0,0.3-0.2,0.5-0.2,0.6c-0.2,0.1-0.2,0.3-0.3,0.3c-0.2,0-0.2,0-0.3-0.1c-0.2-0.1-0.2-0.1-0.2-0.1l0,0l0,0
		c0.2-0.6,0.5-1.4,0.6-2.2l0.2-0.9c0-0.1,0.2-0.4,0.2-0.6l0.2-0.5l0.2-1c0-0.3,0.2-0.8,0.3-1.3c0.2-0.6,0.3-1.1,0.3-1.4v-0.5v-0.3
		c0-0.3,0-0.5,0.2-0.6c0-0.3,0.2-0.4,0.2-0.5h0.2h0.2c0.2,0,0.3,0,0.3-0.1c0.2,0,0.2,0,0.2,0.1c0,0.1,0.2,0.1,0.2,0.1
		c0,0.3,0,0.5,0,0.8s0,0.5,0.2,0.9l0.2,0.8c0.2,1.4,0.5,3.9,1.1,7.4l0,0c0,0.1,0,0.1-0.2,0.3c-0.2,0-0.2,0-0.3,0s-0.2,0-0.2-0.1
		c0-0.1,0-0.1,0-0.3l-0.3-2c-0.2,0-0.5-0.1-0.9-0.1c-0.2,0-0.3,0-0.6,0S-219.6,418-219.7,418z M-219.7,417.5c0,0,0.3,0.1,0.8,0.1
		s0.9,0,1.2,0h0.2c-0.2-1-0.3-3.2-0.8-6.5c-0.6,2.7-0.9,3.9-1.1,4.1C-219.6,416.5-219.7,417.2-219.7,417.5z"/>
	<path class="st1" d="M-210.6,420.6l-0.3-0.1c-0.2-0.1-0.3-0.5-0.5-1c-0.2-0.5-0.3-1.3-0.5-1.9c-0.2-0.6-0.3-1.1-0.5-1.8
		c-0.2-0.5-0.3-0.8-0.5-0.8l0,0c-0.3,0-0.5,0.1-0.5,0.3c0,0.5,0,1.6,0.2,3.3c0,0.9,0.2,1.4,0.2,1.6l-0.2,0.3h-0.3l-0.2-0.1
		c-0.2-4.4-0.3-7.6-0.3-9.6c0-0.1,0-0.3,0-0.3s0-0.1,0.2-0.3c0-0.1,0.2-0.1,0.3-0.1c0.6,0,1.1,0.1,1.5,0.4c0.5,0.3,0.6,0.6,0.6,1.1
		v1.1c0,0.1,0,0.4-0.2,0.8c-0.2,0.4-0.3,0.6-0.5,0.9s-0.3,0.4-0.3,0.4s0.3,0.9,0.8,2.4c0.5,1.5,0.8,2.4,0.8,2.5l0,0
		c0,0,0,0.1,0.2,0.3s0.2,0.3,0.2,0.4C-210.5,420.5-210.5,420.6-210.6,420.6z M-213.1,414.6L-213.1,414.6c0.3,0,0.5-0.1,0.6-0.3
		c0.2-0.1,0.3-0.4,0.5-0.8c0.2-0.3,0.2-0.5,0.2-0.8s0-0.5,0-0.6c0-0.3,0-0.4,0-0.6s0-0.3-0.2-0.5c-0.2-0.1-0.2-0.3-0.3-0.4
		c-0.2-0.1-0.5-0.1-0.6-0.1c0,0-0.2,0-0.2,0.1c0,0.1,0,0.1,0,0.3c0,0.5,0,1.1,0,1.9S-213.1,414.1-213.1,414.6z"/>
	<path class="st1" d="M-207.7,419.8L-207.7,419.8c0-0.3,0-0.5,0-0.6c0-0.1,0-0.5,0-1c0-0.5,0-0.9,0-1c0-0.6,0-1.4,0-2.3
		c0-0.9,0-1.8,0-2.3c0-0.3,0-0.5,0-0.9s0-0.6,0-0.9c0-0.1,0-0.3,0.2-0.4s0.2-0.1,0.5-0.1c0.2,0,0.3,0,0.3,0.1c0.2,0,0.3,0,0.6,0
		c0.3,0,0.6,0.1,0.8,0.1s0.3,0.1,0.3,0.3c0,0.1-0.2,0.3-0.3,0.3c-0.6-0.1-1.2-0.3-1.5-0.3l-0.2,0.1c0,0.1,0,0.4,0,0.6
		c0,0.4,0,0.8,0,1.1c0,0.4,0,0.9,0,1.1c0,0.3,0.2,0.4,0.3,0.4h0.3c0.2,0,0.3,0,0.3,0c0.5,0,0.8,0.1,0.8,0.3c0,0.1,0,0.3-0.2,0.3
		s-0.2,0.1-0.3,0.1c-0.2,0-0.3,0-0.5-0.1l-0.6-0.1h-0.2l-0.2,0.1l0,0c0,0.3,0,0.6,0,1.1v1v1.1c0,0.4,0,0.8,0,1.3
		c0,0.3,0.2,0.4,0.2,0.5s0.3,0.1,0.6,0.1h0.3h0.3c0.3,0,0.6,0.1,0.6,0.3c0,0.1-0.3,0.3-0.8,0.3h-1.5c-0.2,0-0.3-0.1-0.3-0.4
		c0-0.1,0-0.1,0-0.3C-207.8,419.7-207.7,419.9-207.7,419.8z"/>
	<path class="st1" d="M-198.7,417.3c0,0-0.2-0.4-0.5-1.1c-1.1-2.8-1.8-4.3-2.2-4.6c-0.2,0.3-0.2,0.6-0.2,1v0.6v0.6v0.4v0.4
		c0,0.1,0,0.4,0,0.6v0.5l0,0c0,1.6,0,2.7,0.2,2.8v1.4c0,0.1,0,0.1,0,0.4c0,0.1,0,0.1-0.2,0.3c-0.2,0.1-0.2,0.1-0.3,0.1
		c-0.3,0-0.5-0.3-0.5-0.8c0-0.1,0-0.3,0-0.5c0-0.3,0-0.4,0-0.5c0-0.5,0-1.3,0-2.2c0-0.9,0-1.6,0-2.2c0-0.4,0-0.8,0-1.4
		c0-0.6,0-1,0-1.4v-0.3c0-0.5,0.2-0.9,0.3-1l0,0h0.2c0,0,0.2,0,0.2,0.1c0,0,0,0.1,0.2,0.1v0.1v0.1c0.2,0.8,0.6,1.8,1.4,3
		c0.6,1.3,1.1,2.2,1.4,2.8c0.2,0.3,0.2,0.5,0.3,0.9c0.2,0.5,0.3,0.9,0.3,1.1s0.3,0.6,0.5,0.9l0,0c0.3-2.3,0.5-4.9,0.5-8.2v-0.1v-0.3
		c0-0.3,0.2-0.4,0.3-0.4c0.2,0,0.2,0,0.3,0.1c0.2,0.1,0.2,0.3,0.2,0.3v1l-0.2,0.1c0,0.5,0,1.5-0.2,2.8c-0.2,1.3-0.2,2.5-0.3,3.7
		c-0.2,1.1-0.2,1.8-0.3,1.9c0,0-0.2,0-0.3,0.1l0,0l0,0c-0.2,0-0.2,0-0.2,0c-0.2,0-0.2,0-0.2-0.1c0-0.1-0.2-0.1-0.2-0.3
		c0-0.1,0-0.1-0.2-0.3l0,0c-0.2-0.5-0.3-1-0.6-1.8C-198.4,417.7-198.6,417.4-198.7,417.3z"/>
	<path class="st1" d="M-191.2,420.2l-0.2-0.1v-0.5v-0.5v-0.3v-0.3c0-0.1,0-0.3,0-0.4c0-0.8,0-2-0.2-3.8c-0.2-1.8-0.2-2.9-0.2-3.7
		c-0.8,0-1.2,0-1.5,0s-0.3-0.1-0.3-0.3c0-0.1,0.2-0.1,0.3-0.1c0.3,0,0.8,0,1.5,0.1c0.8,0,1.2,0.1,1.5,0.1h0.5h0.5
		c0.2,0,0.3,0.1,0.3,0.3c0,0.1,0,0.1-0.2,0.1c-0.2,0-0.2,0-0.3,0c-0.2,0-0.5,0-0.8,0c-0.3,0-0.6,0-0.8,0l0,0c0,0,0,0.1,0,0.3
		c0,1,0,2.5,0.2,4.4c0.2,2,0.2,3.4,0.2,4.4c0,0.1,0,0.1-0.2,0.3C-190.9,420.5-191.2,420.2-191.2,420.2z"/>
	<path class="st1" d="M-186.6,420.2L-186.6,420.2c0.2-0.1,0.3-0.1,0.5-0.1s0.3,0,0.3,0c0.3,0,0.5-0.1,0.8-0.3
		c0.3-0.1,0.3-0.4,0.5-0.6c0.2-0.5,0.3-1,0.3-1.5c0-0.4,0-0.8-0.2-1.1c-0.2-0.4-0.3-0.8-0.6-1.1l-0.2-0.4c-0.3-0.4-0.5-0.8-0.6-0.9
		c-0.2-0.1-0.3-0.5-0.3-0.8c-0.2-0.4-0.3-0.8-0.3-1.3c0-0.1,0-0.4,0.2-0.6s0.2-0.5,0.3-0.6c0.2-0.3,0.3-0.4,0.5-0.6s0.5-0.3,0.6-0.3
		c0.2,0,0.3,0,0.5,0.1c0.2,0.1,0.3,0.1,0.3,0.3c0,0.1-0.2,0.1-0.3,0.1h-0.2c-0.2,0-0.2,0-0.2,0c-0.2,0-0.3,0-0.5,0.1
		c-0.2,0.1-0.3,0.3-0.3,0.5c-0.2,0.4-0.2,0.8-0.2,1c0,0.3,0,0.4,0.2,0.6v0.3c0,0,0,0.1,0.2,0.3l0.2,0.3l0.2,0.3l0.3,0.5l0.2,0.3
		c0.2,0.3,0.3,0.4,0.5,0.6c0.2,0.3,0.2,0.4,0.3,0.5c0.2,0.3,0.2,0.4,0.3,0.6s0.2,0.4,0.2,0.6s0,0.5,0,0.9c0,0.5-0.2,1-0.3,1.4
		c-0.2,0.3-0.3,0.5-0.3,0.6c0,0.1-0.3,0.4-0.6,0.4c-0.3,0.1-0.5,0.1-0.8,0.1h-0.2c-0.2,0-0.3,0-0.5-0.1
		C-186.1,420.1-186.6,420.2-186.6,420.2z M-184.6,410.6L-184.6,410.6L-184.6,410.6L-184.6,410.6z"/>
</g>
<g>
</g>
</svg>
