<?xml version="1.0" encoding="utf-8"?>
<!-- Generator: Adobe Illustrator 18.0.0, SVG Export Plug-In . SVG Version: 6.00 Build 0)  -->
<!DOCTYPE svg PUBLIC "-//W3C//DTD SVG 1.1//EN" "http://www.w3.org/Graphics/SVG/1.1/DTD/svg11.dtd">
<svg version="1.1" id="Ebene_1" xmlns="http://www.w3.org/2000/svg" xmlns:xlink="http://www.w3.org/1999/xlink" x="0px" y="0px"
	 viewBox="0 0 76.3 46.2" enable-background="new 0 0 76.3 46.2" xml:space="preserve">
<g>
	<path fill="#FF48B0" d="M1.7,19.8l0.1-5.4c0-2.3-0.1-4.1-0.4-5.3c0.3-1.3,0.8-2,1.5-2h2.5c2.2,0,3.7,0.9,4.6,2.7
		c0.8,1.6,1.2,3.4,1.2,5.5c0,2.6-0.1,4.3-0.2,4.9c-0.1,0.6-0.3,1.2-0.4,1.7c-0.1,0.5-0.3,1-0.5,1.3c-0.2,0.3-0.5,0.7-0.8,1.1
		c-0.3,0.4-0.7,0.7-1.1,1C7,26,5.9,26.5,4.6,26.9v6.1L5,43.7c0,0.5-0.2,0.9-0.6,1.2c-0.4,0.3-0.8,0.5-1.3,0.5l-1.2-0.7
		c-0.5-2.1-0.7-4.9-0.7-8.3l0.2-10.1c-0.2-0.5-0.3-1-0.3-1.4v-0.2C1.5,23.9,1.7,22.3,1.7,19.8z M4.5,13.4l0.1,11v0.1
		C6.8,24.2,8,21.1,8,15c0-1.8-0.2-3-0.7-3.6c-0.5-0.7-1.2-1-2.2-1c0-0.1-0.2-0.1-0.6-0.1V13.4z"/>
	<path fill="#FF48B0" d="M27,32.8l0.6,3.5c0,0.5,0.2,1.6,0.5,3.4s0.5,3,0.5,3.5v0.1c0,0.8-0.3,1.4-0.9,1.6c-0.8,0-1.4-0.1-1.9-0.4
		c-0.4-0.3-0.7-0.8-0.7-1.5c0-1.6-0.3-3.9-0.8-7l-5.6-0.8c-0.4,1.3-0.6,2.6-0.8,4.1c-0.2,1.5-0.4,2.6-0.5,3.3
		c-0.3,1.4-0.9,2.1-1.9,2.1c-0.4,0-0.9-0.1-1.2-0.4c-0.4-0.3-0.6-0.7-0.6-1.1l0.1-0.5c2.5-9.8,4.4-19.4,5.7-28.7
		c0-0.3,0.1-1,0.2-2.3C20,8.8,20.4,7,20.9,6.3h1.9c0.5,0,1,0.1,1.4,0.4c0.4,0.2,0.6,0.6,0.6,1.1c0,2.9,0.4,7.1,1.1,12.8
		C26.6,26.2,27,30.3,27,32.8z M24.1,33.9c-0.1-0.6-0.2-1.5-0.2-2.9s-0.1-3.1-0.2-5.1c-0.2-2-0.4-4.4-0.7-7.1s-0.5-4.7-0.6-5.9
		c-1.7,9.5-2.8,16.2-3.3,20.1C19.7,33.4,21.4,33.7,24.1,33.9z"/>
	<path fill="#FF48B0" d="M34.5,25.3l-0.1,6.1c0,5,0.4,8.9,1.1,11.8l-0.6,1.5h-1.6l-0.7-0.8c0-1.7,0.1-3.6,0.1-5.7s-0.2-6.6-0.5-13.5
		s-0.5-12.1-0.5-15.5c0-1.8,0.6-2.7,1.9-2.7c2,0,3.6,0.5,5,1.5c1.3,1,2,2.5,2,4.4v4c0,1.1-0.2,2.1-0.6,3c-0.4,0.9-0.9,1.8-1.4,2.8
		c-0.5,1-0.8,1.5-0.9,1.6c0.2,0.9,0.6,2.7,1.1,5.4c1.1,5.9,2.3,10.1,3.7,12.7c0.4,0.7,0.6,1.3,0.6,1.7c0,0.4-0.1,0.8-0.3,1.1
		c-0.2,0.3-0.5,0.4-0.9,0.4c-0.8,0-1.6-0.9-2.3-2.7c-0.7-1.8-1.3-3.8-1.8-6c-1.3-6.8-2.2-10.5-2.5-11.2H34.5z M34.7,8.6l-0.2,0.8
		c0,1.5,0,3.8,0.1,6.7c0.1,2.9,0.1,5,0.1,6.4c0.9-0.5,1.6-1.7,2.1-3.6c0.5-1.9,0.8-3.4,0.8-4.5s0-1.8-0.1-2.3
		c-0.1-0.5-0.2-1-0.4-1.6C36.8,9.3,36,8.7,34.7,8.6z"/>
	<path fill="#FF48B0" d="M48.8,43.3L48.7,39c0,0,0-0.7,0.1-1.9c-0.1-0.5-0.4-4.7-0.9-12.8c-0.5-8-0.7-12.9-0.7-14.7
		c-0.1,0-0.1,0-0.2,0c-3.1-0.1-4.6-0.6-4.6-1.7c0-0.4,0.2-0.6,0.6-0.9c0.4-0.2,0.8-0.3,1.2-0.3l7.7,0.5l0.9,0c1.2,0,1.8,0.5,1.8,1.4
		c0,0.5-0.2,0.8-0.6,1.1c-0.4,0.3-0.8,0.4-1.3,0.4L50,9.7l-0.1,0.6c0,3.6,0.3,8.9,0.9,16.1c0.6,7.1,0.9,12.5,0.9,16.1
		c0,0.4-0.2,0.8-0.6,1.2c-0.4,0.3-0.8,0.5-1.3,0.5L48.8,43.3z"/>
	<path fill="#FF48B0" d="M65.1,41.2c0,2.5-0.6,3.8-1.9,3.8c-0.7,0-1.2-0.4-1.6-1.2c0.4-0.8,0.6-4,0.6-9.6c0-1-0.1-2.5-0.3-4.3
		c-0.2-1.9-0.3-3.2-0.4-4v-1.5c-0.1-0.2-0.7-1.7-1.8-4.5c-2.5-6.3-3.8-10.1-3.8-11.3V8.3l1.3-0.9c1.2,0,2.5,2.9,4.1,8.8
		c0.7,2.5,1.1,3.8,1.1,3.8c0.1-0.4,0.4-1.8,0.9-4.2c1.1-6.1,2.3-9.2,3.5-9.2c0.3,0,0.7,0.1,1,0.3c0.3,0.2,0.4,0.5,0.4,0.9
		c0,1.9-0.5,4.6-1.6,8.2c-1.1,3.6-1.6,6.3-1.7,8.2V41.2z"/>
	<path fill="#FF48B0" d="M75.3,43.5c0,1.3-0.9,2-2.8,2c-0.4,0-0.8-0.2-1.3-0.6c-0.4-0.4-0.6-0.9-0.6-1.6s0.2-1.2,0.7-1.8
		c0.5-0.5,1-0.8,1.7-0.8c0.7,0,1.2,0.3,1.6,0.8C75.1,42.1,75.3,42.8,75.3,43.5z M74.5,29.2l0.1,2.7c0,2.6-0.4,3.9-1.1,3.9
		c-0.4,0-0.7-0.5-1.1-1.4c-0.3-0.9-0.5-2.1-0.5-3.5l0.2-9.4L71.9,3c0-0.6,0.2-1.1,0.7-1.5c0.5-0.4,1-0.6,1.5-0.6
		c0.5,0,0.9,0.1,1.1,0.4c0.3,0.3,0.4,0.6,0.4,1c0,3-0.2,7.5-0.6,13.5C74.7,21.7,74.5,26.2,74.5,29.2z"/>
</g>
</svg>
