<svg id="Ebene_1" data-name="Ebene 1" xmlns="http://www.w3.org/2000/svg" viewBox="0 0 367.12 249.77"><defs><style>.cls-1{fill:#ff48b0;}.cls-2{fill:#906d4f;}</style></defs><title>welcome</title><path class="cls-1" d="M23.2,34.55a18.39,18.39,0,0,1,3.28-6.79,10.35,10.35,0,0,1,4.23-3.2,7.22,7.22,0,0,1,4.34-.28,7.49,7.49,0,0,1,3.56,2,7.35,7.35,0,0,1,1.94,3.62,7.78,7.78,0,0,1-.49,4.66,18.09,18.09,0,0,1-2.72,4.55,55.83,55.83,0,0,1-3.74,4.16q-2,2-4.13,3.94a39.77,39.77,0,0,0-3.81,3.94,21.71,21.71,0,0,0-2.75,4.12,9.73,9.73,0,0,0-1.06,4.44,9.45,9.45,0,0,0-1.13-4.48A22.27,22.27,0,0,0,17.81,51a48.9,48.9,0,0,0-3.95-4q-2.15-2-4.16-4a44.52,44.52,0,0,1-3.63-4.12,13.8,13.8,0,0,1-2.33-4.37,8.09,8.09,0,0,1,1.8-8.42,7.48,7.48,0,0,1,3.53-2,6.71,6.71,0,0,1,4.23.32,10.26,10.26,0,0,1,4.09,3.27,19.56,19.56,0,0,1,3.21,6.82,34.81,34.81,0,0,1,1.27,6.25A42.72,42.72,0,0,1,23.2,34.55Z" transform="translate(-3.24 -9.02)"/><path class="cls-1" d="M97.19,42.73a126.79,126.79,0,0,0-3.95,22Q92.46,76,95.56,80.89a7.83,7.83,0,0,0,6.49,3.77,1.84,1.84,0,0,1,1.2.6,1.64,1.64,0,0,1,.42,1.31,1.8,1.8,0,0,1-.56,1.17,1.69,1.69,0,0,1-1.2.46h-.14a11.25,11.25,0,0,1-9.17-5.4q-5.92-9.53-.21-35.18L68.48,50.54,65.59,60.71A1.79,1.79,0,0,1,65,61.88a1.69,1.69,0,0,1-1.2.46,1.71,1.71,0,0,1-1.27-.5,1.74,1.74,0,0,1-.49-1.28v-.07a1.23,1.23,0,0,1,.07-.5l2.54-9-1.9.21a.28.28,0,0,1-.21.07,1.57,1.57,0,0,1-1.16-.46,2.19,2.19,0,0,1-.6-1.1,1.59,1.59,0,0,1,.32-1.35,1.72,1.72,0,0,1,1.23-.64l3.39-.43,8.6-30.49-4.41.89q-2.58.53-5.54,1.31A56.25,56.25,0,0,0,54.2,22.82q-4,2.06-5.25,4.19a3.25,3.25,0,0,0-.35,3.13,1.79,1.79,0,0,1-.11,1.35,1.88,1.88,0,0,1-1,.92,1.75,1.75,0,0,1-1.34-.11,1.88,1.88,0,0,1-.92-1,6.73,6.73,0,0,1,.71-6.11q1.83-3.2,7.41-5.9a48.35,48.35,0,0,1,4.58-1.92q2.54-.92,5.57-1.78,2.54-.71,4.87-1.21t4.13-.85q1.8-.35,2.89-.53l1.16-.18a2.09,2.09,0,0,1,1.62.57A1.91,1.91,0,0,1,78.5,15l-9,31.77,23.7-2.84.49-2.13q1.41-5.54,3-10.59t2.89-8.88q1.3-3.84,2.19-6.11t.88-2.35a1.91,1.91,0,0,1,.92-1,1.56,1.56,0,0,1,1.34,0,1.72,1.72,0,0,1,1,1,1.78,1.78,0,0,1,0,1.39s-.28.82-.85,2.31-1.28,3.51-2.15,6-1.81,5.45-2.82,8.74S98.13,39.08,97.19,42.73Z" transform="translate(-3.24 -9.02)"/><path class="cls-1" d="M148,44.15a1.69,1.69,0,0,1,.74,1.07,1.81,1.81,0,0,1-.18,1.35,4.63,4.63,0,0,1-.49.78q-.49.71-1.27,1.88t-1.9,2.63q-1.13,1.46-2.4,2.95-6.49,7.61-11.71,7.6a5.84,5.84,0,0,1-.67,0q-.32,0-.67-.11a5.65,5.65,0,0,1-3.88-2.77q-1.69-2.77-1.27-8.17A35.84,35.84,0,0,1,118,58.5a15.93,15.93,0,0,1-5.92,3.41,8.84,8.84,0,0,1-3,.5,7.14,7.14,0,0,1-2.54-.43A7.33,7.33,0,0,1,102,56.66a12.43,12.43,0,0,1-.42-4.26,23.52,23.52,0,0,1,.92-5,32.36,32.36,0,0,1,3.6-8.35,31.23,31.23,0,0,1,5.78-7,21.45,21.45,0,0,1,6.21-4.26,8.57,8.57,0,0,1,5.36-.71,4.88,4.88,0,0,1,3.39,3.06,11.41,11.41,0,0,1,.07,5.54,1.57,1.57,0,0,1-.74,1.14,1.92,1.92,0,0,1-1.38.21,1.63,1.63,0,0,1-1.09-.75,1.72,1.72,0,0,1-.25-1.31c0-.38.11-.81.18-1.28a6.69,6.69,0,0,0,.07-1.35,2.92,2.92,0,0,0-.28-1.14,1.19,1.19,0,0,0-.81-.64,6,6,0,0,0-3.39.64,18,18,0,0,0-5,3.41q-.85.78-2,2.06a30.38,30.38,0,0,0-2.29,3,34.2,34.2,0,0,0-2.26,3.87,25,25,0,0,0-1.8,4.8,15.69,15.69,0,0,0-.63,6.82,4.22,4.22,0,0,0,2.54,3.55,5.06,5.06,0,0,0,3.6-.21,15.5,15.5,0,0,0,4.37-2.63,40.66,40.66,0,0,0,4.94-5.47A50.54,50.54,0,0,0,126.53,40a1.75,1.75,0,0,1,.92-.92,1.69,1.69,0,0,1,1.27-.07,1.94,1.94,0,0,1,1,.89,1.78,1.78,0,0,1,.18,1.24q-1.06,4-1.55,6.82a32.16,32.16,0,0,0-.53,4.76,14.2,14.2,0,0,0,.21,3.09,6.71,6.71,0,0,0,.6,1.81,2.6,2.6,0,0,0,1.62,1.14,5.91,5.91,0,0,0,4.23-1.24,27.19,27.19,0,0,0,5.43-5q1.27-1.42,2.29-2.81t1.8-2.49q.77-1.1,1.62-2.52a1.62,1.62,0,0,1,1.09-.82A1.67,1.67,0,0,1,148,44.15Z" transform="translate(-3.24 -9.02)"/><path class="cls-1" d="M169.2,62.41a6.8,6.8,0,0,1-.71,0,7,7,0,0,1-.71-.11,6,6,0,0,1-4-3q-2.19-4-.42-13.15.56-2.77,1.41-6t2.12-7l-1.8.89-2,1q-5.57,2.28-9.73,1.63l-.78,2q-.71,1.64-1.45,3.09t-1.34,2.56q-.6,1.1-1,1.74a3.88,3.88,0,0,0-.42.71,1.82,1.82,0,0,1-1.16.71A1.7,1.7,0,0,1,145.07,46a1.61,1.61,0,0,1,.28-1.31q.77-1.21,1.38-2.24T148,40q.67-1.35,1.3-2.91a6.91,6.91,0,0,0,.63-1.63A19.33,19.33,0,0,1,147.83,34,12.88,12.88,0,0,1,146,31.85a8.24,8.24,0,0,1-1.13-2.35,7.55,7.55,0,0,1,0-4.34,5.69,5.69,0,0,1,1.59-2.63,4.22,4.22,0,0,1,2.43-1.14Q151.7,21,153.47,24A10.64,10.64,0,0,1,154.7,28a15.3,15.3,0,0,1-.39,5,16.33,16.33,0,0,0,7.33-1.42,27.56,27.56,0,0,0,2.89-1.39q1.34-.75,2.36-1.39t2.22-1.49a1.71,1.71,0,0,1,1-.39,1.66,1.66,0,0,1,1.09.32,1.64,1.64,0,0,1,.56,2.06,121.73,121.73,0,0,0-5,17.41,37.79,37.79,0,0,0-.63,4.26,23,23,0,0,0-.07,3.06,11,11,0,0,0,.28,2.1,5.47,5.47,0,0,0,.49,1.31,2.17,2.17,0,0,0,1.69,1.28q1.69.36,4.2-1.24a26.63,26.63,0,0,0,5.47-5q1.2-1.42,2.22-2.81t1.8-2.52q.85-1.28,1.62-2.49A1.87,1.87,0,0,1,185,43.9a1.77,1.77,0,0,1,1.34.18,1.74,1.74,0,0,1,.78,1.14,1.94,1.94,0,0,1-.21,1.35,4.63,4.63,0,0,1-.46.78q-.46.71-1.27,1.88t-1.9,2.63q-1.09,1.46-2.36,2.95Q174.34,62.41,169.2,62.41ZM149.38,24.89h-.07a1.36,1.36,0,0,0-.6.39,1.92,1.92,0,0,0-.46,1,4.48,4.48,0,0,0-.14.71,3.42,3.42,0,0,0,.07,1.17,5.79,5.79,0,0,0,.6,1.53,6.2,6.2,0,0,0,1.45,1.71l.71.57q.85-3.91-.49-6.11Q149.87,24.89,149.38,24.89Z" transform="translate(-3.24 -9.02)"/><path class="cls-1" d="M220.4,44.15a1.62,1.62,0,0,1,.81,1.07,1.64,1.64,0,0,1-.25,1.35,28.13,28.13,0,0,1-8.68,9,45,45,0,0,1-14.49,5.9q-2.08.43-3.67.64t-2.54.25l-1,0h-.07a1.19,1.19,0,0,1-.49-.07,3.36,3.36,0,0,1-.67.07h-.67a9.54,9.54,0,0,1-2.47-.28,7.86,7.86,0,0,1-5.36-4.26,1.53,1.53,0,0,1-.11-1.31,1.9,1.9,0,0,1,.88-1,1.66,1.66,0,0,1,1.34-.14,1.7,1.7,0,0,1,1.06.92,4.27,4.27,0,0,0,3,2.42,6.83,6.83,0,0,0,2.43.14,13.54,13.54,0,0,0,2.65-.57,15.19,15.19,0,0,0,2.54-1.07,19.25,19.25,0,0,0,2.19-1.35,18,18,0,0,0,2.89-2.67A15,15,0,0,0,201.92,50,10.7,10.7,0,0,0,203,46.42a8,8,0,0,0-.42-3.62,9.59,9.59,0,0,0-1.66-2.88q-1.09-1.31-2.36-2.67-.78-.85-1.55-1.67a14.08,14.08,0,0,1-1.41-1.74A28.73,28.73,0,0,1,193,38.39q-1.62,2.35-3.53,4.83-1,1.28-1.9,2.59t-1.83,2.67a1.81,1.81,0,0,1-1.16.71,1.74,1.74,0,0,1-1.3-.21,1.84,1.84,0,0,1-.71-1.17,1.79,1.79,0,0,1,.21-1.31l1.94-2.77q1-1.35,1.94-2.63,2.61-3.48,4.65-6.65a10.9,10.9,0,0,0,2-5.79,1.8,1.8,0,0,1,.42-1.21,1.64,1.64,0,0,1,1.13-.57,1.71,1.71,0,0,1,1.9,1.42,7.55,7.55,0,0,0,1.59,3.38q1.23,1.53,2.72,3.09t2.71,3.16a13.29,13.29,0,0,1,2.08,3.59,11.86,11.86,0,0,1-.63,9.67,18.2,18.2,0,0,1-4.09,5.69c.09,0,.14,0,.14-.07Q212.92,53.17,218,44.71a1.65,1.65,0,0,1,2.4-.57Z" transform="translate(-3.24 -9.02)"/><path class="cls-1" d="M243.18,62.41a5.83,5.83,0,0,1-.67,0q-.32,0-.67-.11A6,6,0,0,1,238,59.64q-2.75-4.33-.21-15.78v-.07l.85-3q.56-2.06,1-3.8t.63-3.09a9.28,9.28,0,0,0,.14-2.1,3.08,3.08,0,0,0-.21-1l-.21-.18a2.27,2.27,0,0,0-.56-.25l-.46,0a3.23,3.23,0,0,0-1,.36,9.22,9.22,0,0,0-1.59,1.1,22.24,22.24,0,0,0-2.29,2.27,53.7,53.7,0,0,0-3.67,4.55q-2,2.7-4.16,6.18-1.9,3-3.6,5.93t-3,5.26q-1.27,2.31-2.82,5.22a1.65,1.65,0,0,1-.92.82,1.8,1.8,0,0,1-1.27,0,1.77,1.77,0,0,1-.92-.89,1.9,1.9,0,0,1-.14-1.24l14-49.61a1.75,1.75,0,0,1,.85-1.07,1.66,1.66,0,0,1,1.34-.14,1.77,1.77,0,0,1,1.06.82,1.75,1.75,0,0,1,.14,1.39l-9.87,35,2.12-3.41q2.33-3.62,4.37-6.47a52,52,0,0,1,3.88-4.83,24.45,24.45,0,0,1,4.16-3.7,6.21,6.21,0,0,1,4.51-1.14,4.84,4.84,0,0,1,3,2.06,7.05,7.05,0,0,1,.6,4.9q-.53,3-1.8,7.82-.21.71-.39,1.46t-.39,1.53a47.26,47.26,0,0,0-1,5.26,28.55,28.55,0,0,0-.21,3.77,11.46,11.46,0,0,0,.28,2.52,4.48,4.48,0,0,0,.6,1.46,2.66,2.66,0,0,0,1.55,1.07q1.76.36,4.23-1.28a28.26,28.26,0,0,0,5.43-5q1.2-1.42,2.26-2.81t1.8-2.49l1.66-2.45A1.61,1.61,0,0,1,259,43.9a1.78,1.78,0,0,1,1.34.18,1.64,1.64,0,0,1,.81,1.1,1.89,1.89,0,0,1-.18,1.39s-.22.31-.53.78-.73,1.1-1.27,1.88-1.18,1.66-1.9,2.63-1.52,2-2.36,2.95Q248.33,62.41,243.18,62.41Z" transform="translate(-3.24 -9.02)"/><path class="cls-1" d="M308.84,81.46a1.94,1.94,0,0,1-.21,1.35,1.5,1.5,0,0,1-1.06.78,18.54,18.54,0,0,1-5,.71,12.54,12.54,0,0,1-9-3.55Q285.92,73,287,49.12L275.2,50.54,272.52,54q-7.05,8.39-12.62,8.39a1.71,1.71,0,0,1-1.27-.5,1.9,1.9,0,0,1,0-2.56,1.71,1.71,0,0,1,1.27-.5,5.9,5.9,0,0,0,1.66-.28,8.52,8.52,0,0,0,2.15-1.07,22,22,0,0,0,2.71-2.17,33.49,33.49,0,0,0,3.35-3.66,2.09,2.09,0,0,0,.49-.57l-.78.07a.29.29,0,0,1-.21.07,1.56,1.56,0,0,1-1.16-.46,2.2,2.2,0,0,1-.6-1.1,1.77,1.77,0,0,1,.35-1.31,1.91,1.91,0,0,1,1.2-.67l4.16-.5q1.83-2.56,3.7-5.65t3.84-6.72q2.54-4.55,4.72-9T289.23,18q1.56-3.45,3.46-7.78a1.71,1.71,0,0,1,2.19-1.07,1.63,1.63,0,0,1,1,.82,1.94,1.94,0,0,1,.18,1.31s-.18.88-.53,2.49-.79,3.74-1.3,6.4-1.06,5.72-1.62,9.2-1,7.12-1.41,10.91q-.28,2.42-.42,4.83l10.08-1.28a1.67,1.67,0,0,1,1.27.39,2,2,0,0,1,.71,1.17,1.7,1.7,0,0,1-.39,1.31,2,2,0,0,1-1.16.68L290.5,48.62q-.21,4.05-.18,7.57t.32,6.65q1.13,11,5.43,15.35,3.88,3.77,10.58,2a1.66,1.66,0,0,1,1.34.14A1.76,1.76,0,0,1,308.84,81.46Zm-21.65-36q.14-1.42.24-2.81t.24-2.88q.41-3.84.9-7.5t1-6.93q-1.24,2.63-2.68,5.47t-3.05,5.76q-1.55,2.77-3.07,5.26t-2.93,4.76Z" transform="translate(-3.24 -9.02)"/><path class="cls-2" d="M160.73,136.77a.64.64,0,0,0-.34.07.36.36,0,0,0-.14.24.31.31,0,0,0,0,.14.14.14,0,0,1,0,.1l-.14,1.42q-.17,1.8-.79,5.1a20.48,20.48,0,0,1-.83,3q-.52,1.21-1.07,1.21a1.48,1.48,0,0,1-.93-.4,1.1,1.1,0,0,1-.48-.82l.07-.21.07-.21q1.17-4.55,2.14-10L159,132q.24-1.28.48-2.88l.41-2.5.76-4.69q.31-2,1.24-6.21t1.24-6.59l.28-2.6.14-1.15q.17-1.91.34-2.88a10,10,0,0,1,.45-2.12l.48,0a2.91,2.91,0,0,0,.48,0,1.73,1.73,0,0,0,1.27-.42,1.39,1.39,0,0,1,.88.31.94.94,0,0,1,.4.76q0,2,.12,3.7t.4,4.11l.41,3.75q.86,10,3.93,34.43v.21a1.1,1.1,0,0,1-.55,1,4.51,4.51,0,0,1-1.07-.09.67.67,0,0,1-.45-.4,4.4,4.4,0,0,1-.24-1.08l-1.17-9.3a13.78,13.78,0,0,0-3.48-.35q-.79,0-2.58-.17T160.73,136.77Zm.07-2.12q0,.35,2.72.63t4.68.28h.72q-.52-7.46-2.69-30.23-3.65,18.29-3.82,19A72.2,72.2,0,0,0,160.8,134.65Z" transform="translate(-3.24 -9.02)"/><path class="cls-2" d="M195.92,133.19a48.07,48.07,0,0,1-1.89-5.31q-6.34-19.82-8-21.41a20,20,0,0,0-.55,5l.07,2.81.07,2.78-.07,1.74-.07,1.7q0,1.14.14,2.67l.14,2.29h-.21q0,11.8.48,13.08v6.39a3.13,3.13,0,0,1,.28,1.49,1.5,1.5,0,0,1-.36,1,1.17,1.17,0,0,1-.95.43q-1.48,0-1.48-3.82,0-.94.14-2.33t.14-2.33q0-3.44-.21-10.24-.24-6.32-.24-10.2,0-2.39.24-6.32.21-4.23.21-6.28v-.9q0-3.5,1.27-4.58l.21.24.69-.17a2,2,0,0,1,.65.45,2.68,2.68,0,0,1,.31.63l.1.42.07.38a93.76,93.76,0,0,0,5.06,14.12q3.75,8.78,5,12.74.45,1.49,1.14,4.37a55.06,55.06,0,0,0,1.43,5.36,21.52,21.52,0,0,0,1.74,4l.14-.21a387.46,387.46,0,0,0,1.62-38.73l-.07-.87-.07-.9q0-1.49,1-1.49a1.31,1.31,0,0,1,1.1.64,2.42,2.42,0,0,1,.45,1.41V108l-.38.59q0,3.89-.38,13.19T204,138.82q-.52,7.77-1,8.68c-.25,0-.65.15-1.21.31v0l0,0a4.39,4.39,0,0,1-.76.17.88.88,0,0,1-.79-.43,3.87,3.87,0,0,1-.45-1.27,3.24,3.24,0,0,0-.31-1l.07-.21a44.54,44.54,0,0,0-2.34-8.16Q196.27,134.27,195.92,133.19Z" transform="translate(-3.24 -9.02)"/><path class="cls-2" d="M218.24,146.14q-.28-5.9-.28-12.35l.07-8.4.07-8.4q0-7-.28-13.36a1.74,1.74,0,0,1-.59-1.42,1.44,1.44,0,0,1,.59-1,1.71,1.71,0,0,1,1.1-.52,1.65,1.65,0,0,1,1.07.56,4.51,4.51,0,0,0,.72.66,5.93,5.93,0,0,0,1.65.42,5.59,5.59,0,0,1,1.65.45,14.05,14.05,0,0,1,2.82,2.19,26.12,26.12,0,0,0,2.38,2.15l-.07.14a6,6,0,0,0,1.07,1.8,11.2,11.2,0,0,1,1.21,2,25.11,25.11,0,0,1,1.14,8.47c0,.62,0,1.18,0,1.67s0,1,0,1.67v.59a6.24,6.24,0,0,0,0,.69,4.93,4.93,0,0,0,.38,2.15q-.41,2.26-1,8.57a26.44,26.44,0,0,1-.69,3.87,15.85,15.85,0,0,1-1.24,3.45,13.31,13.31,0,0,1-2.41,3.14,16.28,16.28,0,0,1-3.75,2.76h-4.89Q218.24,148,218.24,146.14Zm2.62-1.21.28.14.21.94h2.17a3.88,3.88,0,0,1,.9-.94,1.81,1.81,0,0,1,.22-.19l.26-.19.55-.45q5-4.51,5-17.07,0-.76,0-1.35t0-1.21l-.34-7.15a17.55,17.55,0,0,0-.71-4.15,25.77,25.77,0,0,0-1.7-4.39,10.68,10.68,0,0,0-2.91-3.61,6,6,0,0,0-3.77-1.39q-.79,0-.79,13.15,0,15,.79,26.51Z" transform="translate(-3.24 -9.02)"/><path class="cls-1" d="M127.37,258.79q-6.42,0-9.66-4.05a14.42,14.42,0,0,1-2.93-7,44,44,0,0,1-.39-9.31,92.88,92.88,0,0,1,1.27-10.77q1-5.69,2.12-11.44t2.08-10.91a70,70,0,0,0,1-9.35,18.21,18.21,0,0,0-.78-6.33,3.44,3.44,0,0,0-2.47-2.42q-3.24-.85-8.32,2.49a55.46,55.46,0,0,0-11,10.23q-1,1.21-2,2.45t-2,2.52q-.07,2.2-.32,4.48t-.6,4.55a52.16,52.16,0,0,1-2.79,10.77,18.34,18.34,0,0,1-4,6.65,4.94,4.94,0,0,1-3,1.63,5.49,5.49,0,0,1-2.12-.21,4.59,4.59,0,0,1-1.52-1,4,4,0,0,1-1-2.74,13.09,13.09,0,0,1,.71-5,56.11,56.11,0,0,1,6-12.58q1.2-2,2.47-3.91t2.61-3.77A34.6,34.6,0,0,0,89.64,193q-1.69-5.47-5.15-6.11-4.58-.78-10.3,5.47-4.8,5.4-10.09,15.56-2.26,4.41-4.13,8.64t-3.17,7.6q-1.31,3.38-2.79,7.57a1.81,1.81,0,0,1-.78,1,1.54,1.54,0,0,1-1.2.21,2,2,0,0,1-1.06-.6,1.67,1.67,0,0,1-.42-1.17v-.07a1.22,1.22,0,0,1,.07-.5l12.2-43.21-4.41.89q-2.58.53-5.54,1.31A56.32,56.32,0,0,0,42.7,193.4q-4,2.06-5.25,4.19a3.24,3.24,0,0,0-.35,3.13,1.79,1.79,0,0,1-.11,1.35,1.88,1.88,0,0,1-1,.92,1.74,1.74,0,0,1-1.34-.11,1.88,1.88,0,0,1-.92-1,6.74,6.74,0,0,1,.71-6.11q1.83-3.2,7.41-5.9a48.23,48.23,0,0,1,4.58-1.92q2.54-.92,5.57-1.78,2.54-.71,4.87-1.21t4.13-.85q1.8-.35,2.89-.53l1.16-.18a2.09,2.09,0,0,1,1.62.57,1.91,1.91,0,0,1,.35,1.63l-5.57,19.83q2.61-5,5.15-8.85a52.1,52.1,0,0,1,5-6.57q7-7.68,13.47-6.61a7.8,7.8,0,0,1,2.08.64,8.43,8.43,0,0,1,2.15,1.46,12.16,12.16,0,0,1,2,2.52A16,16,0,0,1,93,191.91a38.91,38.91,0,0,1,1.27,7.39l1.34-1.63a59.79,59.79,0,0,1,11.43-10.73q6.56-4.4,11.43-3.2a7.2,7.2,0,0,1,4.94,4.62,19.45,19.45,0,0,1,1,7.75,71.42,71.42,0,0,1-1.06,9.67q-.92,5.33-2.12,11.16-1,5.19-1.94,10.52T118,237.57a42.44,42.44,0,0,0,.11,8.71,11.71,11.71,0,0,0,2.4,6.18q2.18,2.77,6.91,2.77a1.71,1.71,0,0,1,1.27.5,1.9,1.9,0,0,1,0,2.56A1.72,1.72,0,0,1,127.37,258.79Zm-37-48.12q-2.54,4-4.41,7.68A44.55,44.55,0,0,0,83.15,225a10.91,10.91,0,0,0-.63,3.38q.07,1,.28,1.1a.85.85,0,0,0,.46,0,2.42,2.42,0,0,0,1-.67A16,16,0,0,0,87.52,223,53.45,53.45,0,0,0,90,213.3,12.21,12.21,0,0,0,90.2,212Q90.27,211.38,90.35,210.67Z" transform="translate(-3.24 -9.02)"/><path class="cls-1" d="M172.58,214.72a1.69,1.69,0,0,1,.74,1.07,1.81,1.81,0,0,1-.18,1.35,4.62,4.62,0,0,1-.49.78q-.49.71-1.27,1.88t-1.9,2.63q-1.13,1.46-2.4,3-6.49,7.61-11.71,7.6a5.85,5.85,0,0,1-.67,0q-.32,0-.67-.11a5.64,5.64,0,0,1-3.88-2.77q-1.69-2.77-1.27-8.17a35.85,35.85,0,0,1-6.35,7.18,15.94,15.94,0,0,1-5.92,3.41,8.84,8.84,0,0,1-3,.5,7.14,7.14,0,0,1-2.54-.43,7.33,7.33,0,0,1-4.58-5.33,12.43,12.43,0,0,1-.42-4.26,23.52,23.52,0,0,1,.92-5,32.37,32.37,0,0,1,3.6-8.35,31.23,31.23,0,0,1,5.78-7,21.43,21.43,0,0,1,6.21-4.26,8.57,8.57,0,0,1,5.36-.71,4.88,4.88,0,0,1,3.39,3.06,11.41,11.41,0,0,1,.07,5.54,1.57,1.57,0,0,1-.74,1.14,1.92,1.92,0,0,1-1.38.21,1.62,1.62,0,0,1-1.09-.75,1.72,1.72,0,0,1-.25-1.31c0-.38.11-.81.18-1.28a6.7,6.7,0,0,0,.07-1.35,2.92,2.92,0,0,0-.28-1.14,1.19,1.19,0,0,0-.81-.64,6,6,0,0,0-3.39.64,18,18,0,0,0-5,3.41q-.85.78-2,2.06a30.57,30.57,0,0,0-2.29,3A34.19,34.19,0,0,0,132.2,214a25,25,0,0,0-1.8,4.8,15.69,15.69,0,0,0-.63,6.82,4.22,4.22,0,0,0,2.54,3.55,5.06,5.06,0,0,0,3.6-.21,15.5,15.5,0,0,0,4.37-2.63,40.76,40.76,0,0,0,4.94-5.47,50.58,50.58,0,0,0,5.85-10.31,1.75,1.75,0,0,1,.92-.92,1.69,1.69,0,0,1,1.27-.07,1.94,1.94,0,0,1,1,.89,1.78,1.78,0,0,1,.18,1.24q-1.06,4-1.55,6.82a32.16,32.16,0,0,0-.53,4.76,14.21,14.21,0,0,0,.21,3.09,6.71,6.71,0,0,0,.6,1.81,2.59,2.59,0,0,0,1.62,1.14,5.91,5.91,0,0,0,4.23-1.24,27.21,27.21,0,0,0,5.43-5q1.27-1.42,2.29-2.81t1.8-2.49q.77-1.1,1.62-2.52a1.62,1.62,0,0,1,1.09-.82A1.67,1.67,0,0,1,172.58,214.72Z" transform="translate(-3.24 -9.02)"/><path class="cls-1" d="M195.43,233a5.85,5.85,0,0,1-.67,0q-.32,0-.67-.11a6,6,0,0,1-3.81-2.63q-2.75-4.33-.21-15.78v-.07l.85-3q.56-2.06,1-3.8t.63-3.09a9.32,9.32,0,0,0,.14-2.1,3.11,3.11,0,0,0-.21-1l-.21-.18a2.24,2.24,0,0,0-.56-.25l-.46,0a3.22,3.22,0,0,0-1,.36,9.27,9.27,0,0,0-1.59,1.1,22.18,22.18,0,0,0-2.29,2.27,86.37,86.37,0,0,0-7.9,10.73q-1.9,3-3.56,5.93T172,226.7q-1.27,2.31-2.82,5.22a1.64,1.64,0,0,1-.92.82,1.8,1.8,0,0,1-1.27,0,1.77,1.77,0,0,1-.92-.89,1.9,1.9,0,0,1-.14-1.24l9-31.84a1.51,1.51,0,0,1,.78-1.07,1.86,1.86,0,0,1,2.43.67,2.1,2.1,0,0,1,.18,1.39l-4.94,17.27,2.12-3.41q2.33-3.62,4.37-6.47a51.82,51.82,0,0,1,3.88-4.83,24.45,24.45,0,0,1,4.16-3.7,6.2,6.2,0,0,1,4.51-1.14,4.84,4.84,0,0,1,3,2.06,7.06,7.06,0,0,1,.6,4.9q-.53,3-1.8,7.82-.21.71-.39,1.46t-.39,1.53a47.23,47.23,0,0,0-1,5.26,28.44,28.44,0,0,0-.21,3.77,11.44,11.44,0,0,0,.28,2.52,4.48,4.48,0,0,0,.6,1.46,2.66,2.66,0,0,0,1.55,1.07q1.76.36,4.23-1.28a28.22,28.22,0,0,0,5.43-5q1.2-1.42,2.26-2.81t1.8-2.49l1.66-2.45a1.61,1.61,0,0,1,1.06-.82,1.78,1.78,0,0,1,1.34.18,1.63,1.63,0,0,1,.81,1.1,1.88,1.88,0,0,1-.18,1.39s-.22.31-.53.78-.73,1.1-1.27,1.88-1.18,1.66-1.9,2.63-1.52,2-2.36,3Q200.58,233,195.43,233Z" transform="translate(-3.24 -9.02)"/><path class="cls-1" d="M255,214.72a1.68,1.68,0,0,1,.74,1.07,1.81,1.81,0,0,1-.18,1.35,4.57,4.57,0,0,1-.49.78q-.49.71-1.27,1.88t-1.9,2.63q-1.13,1.46-2.4,3Q243,233,237.75,233a5.86,5.86,0,0,1-.67,0q-.32,0-.67-.11a5.64,5.64,0,0,1-3.88-2.77q-1.69-2.77-1.27-8.17a35.84,35.84,0,0,1-6.35,7.18,15.94,15.94,0,0,1-5.92,3.41,8.83,8.83,0,0,1-3,.5,7.14,7.14,0,0,1-2.54-.43,7.33,7.33,0,0,1-4.58-5.33,12.45,12.45,0,0,1-.42-4.26,23.61,23.61,0,0,1,.92-5,32.39,32.39,0,0,1,3.6-8.35,31.21,31.21,0,0,1,5.78-7A21.41,21.41,0,0,1,225,198.3a8.57,8.57,0,0,1,5.36-.71,4.88,4.88,0,0,1,3.39,3.06,11.42,11.42,0,0,1,.07,5.54,1.57,1.57,0,0,1-.74,1.14,1.92,1.92,0,0,1-1.37.21,1.62,1.62,0,0,1-1.09-.75,1.72,1.72,0,0,1-.25-1.31q.07-.57.18-1.28a6.77,6.77,0,0,0,.07-1.35,2.92,2.92,0,0,0-.28-1.14,1.19,1.19,0,0,0-.81-.64,6,6,0,0,0-3.38.64,18,18,0,0,0-5,3.41,28.51,28.51,0,0,0-2,2.06,30.49,30.49,0,0,0-2.29,3,34,34,0,0,0-2.26,3.87,25,25,0,0,0-1.8,4.8,15.7,15.7,0,0,0-.63,6.82,4.22,4.22,0,0,0,2.54,3.55,5.06,5.06,0,0,0,3.6-.21,15.5,15.5,0,0,0,4.37-2.63,40.69,40.69,0,0,0,4.94-5.47,50.55,50.55,0,0,0,5.85-10.31,1.75,1.75,0,0,1,.92-.92,1.69,1.69,0,0,1,1.27-.07,1.94,1.94,0,0,1,1,.89,1.78,1.78,0,0,1,.18,1.24q-1.06,4-1.55,6.82a32,32,0,0,0-.53,4.76,14.21,14.21,0,0,0,.21,3.09,6.71,6.71,0,0,0,.6,1.81,2.59,2.59,0,0,0,1.62,1.14,5.9,5.9,0,0,0,4.23-1.24,27.19,27.19,0,0,0,5.43-5q1.27-1.42,2.29-2.81t1.8-2.49q.78-1.1,1.62-2.52a1.62,1.62,0,0,1,1.09-.82A1.67,1.67,0,0,1,255,214.72Z" transform="translate(-3.24 -9.02)"/><path class="cls-1" d="M289.16,214.72a1.68,1.68,0,0,1,.56,2.42,28.13,28.13,0,0,1-8.67,9,40.88,40.88,0,0,1-10,4.69,41.31,41.31,0,0,1-4.48,1.21q-2.08.43-3.67.64t-2.54.25l-1,0h-.07a1.19,1.19,0,0,1-.49-.07,3.36,3.36,0,0,1-.67.07h-.67a9.57,9.57,0,0,1-2.47-.28,7.86,7.86,0,0,1-5.36-4.26,1.53,1.53,0,0,1-.11-1.31,1.9,1.9,0,0,1,.88-1,1.66,1.66,0,0,1,1.34-.14,1.7,1.7,0,0,1,1.06.92,4.28,4.28,0,0,0,3,2.42,6.84,6.84,0,0,0,2.43.14,13.57,13.57,0,0,0,2.64-.57,15.13,15.13,0,0,0,2.54-1.07,19.3,19.3,0,0,0,2.19-1.35,18,18,0,0,0,2.89-2.67,15.08,15.08,0,0,0,2.19-3.23,10.7,10.7,0,0,0,1.06-3.55,8,8,0,0,0-.42-3.62,9.57,9.57,0,0,0-1.66-2.88q-1.09-1.32-2.36-2.67-.78-.85-1.55-1.67a14.07,14.07,0,0,1-1.41-1.74,28.76,28.76,0,0,1-2.61,4.55q-1.62,2.35-3.53,4.83-1,1.28-1.9,2.59t-1.83,2.67a1.82,1.82,0,0,1-1.16.71,1.74,1.74,0,0,1-1.3-.21,1.84,1.84,0,0,1-.71-1.17,1.79,1.79,0,0,1,.21-1.31l1.94-2.77q1-1.35,1.94-2.63Q258,208.18,260,205a10.9,10.9,0,0,0,2-5.79,1.8,1.8,0,0,1,.42-1.21,1.64,1.64,0,0,1,1.13-.57,1.7,1.7,0,0,1,1.9,1.42,7.56,7.56,0,0,0,1.59,3.38q1.23,1.53,2.72,3.09t2.71,3.16a13.25,13.25,0,0,1,2.08,3.59,11.86,11.86,0,0,1-.63,9.67,18.17,18.17,0,0,1-4.09,5.69c.09,0,.14,0,.14-.07q11.64-3.62,16.71-12.08a1.65,1.65,0,0,1,2.4-.57Z" transform="translate(-3.24 -9.02)"/><path class="cls-1" d="M337.62,252a1.94,1.94,0,0,1-.21,1.35,1.5,1.5,0,0,1-1.06.78,18.52,18.52,0,0,1-5,.71,12.54,12.54,0,0,1-9-3.55q-7.69-7.75-6.63-31.63L304,221.12l-2.68,3.48Q294.24,233,288.67,233a1.71,1.71,0,0,1-1.27-.5,1.9,1.9,0,0,1,0-2.56,1.71,1.71,0,0,1,1.27-.5,5.92,5.92,0,0,0,1.66-.28,8.48,8.48,0,0,0,2.15-1.07,21.91,21.91,0,0,0,2.71-2.17,33.55,33.55,0,0,0,3.35-3.66,2.08,2.08,0,0,0,.49-.57l-.78.07a.29.29,0,0,1-.21.07,1.57,1.57,0,0,1-1.16-.46,2.2,2.2,0,0,1-.6-1.1,1.77,1.77,0,0,1,.35-1.32,1.91,1.91,0,0,1,1.2-.67l4.16-.5q1.83-2.56,3.7-5.65t3.84-6.72q2.54-4.55,4.72-9t3.74-7.89q1.56-3.45,3.46-7.78a1.71,1.71,0,0,1,2.19-1.07,1.63,1.63,0,0,1,1,.82,1.94,1.94,0,0,1,.18,1.31s-.18.88-.53,2.49-.79,3.74-1.3,6.4-1.06,5.72-1.62,9.2-1,7.12-1.41,10.91q-.28,2.42-.42,4.83l10.08-1.28a1.67,1.67,0,0,1,1.27.39,2,2,0,0,1,.71,1.17,1.69,1.69,0,0,1-.39,1.31,2,2,0,0,1-1.16.68l-10.72,1.28q-.21,4.05-.18,7.57t.32,6.65q1.13,11,5.43,15.35,3.88,3.77,10.58,2a1.66,1.66,0,0,1,1.34.14A1.76,1.76,0,0,1,337.62,252Zm-21.65-36q.14-1.42.24-2.81t.24-2.88q.41-3.84.9-7.5t1-6.93q-1.24,2.63-2.68,5.47t-3.05,5.76q-1.55,2.77-3.07,5.26t-2.93,4.76Z" transform="translate(-3.24 -9.02)"/><path class="cls-1" d="M352.85,205.13a18.37,18.37,0,0,1,3.28-6.79,10.37,10.37,0,0,1,4.23-3.2,7.22,7.22,0,0,1,4.34-.28,7.49,7.49,0,0,1,3.56,2,7.35,7.35,0,0,1,1.94,3.63,7.79,7.79,0,0,1-.49,4.66,18.1,18.1,0,0,1-2.72,4.55q-1.73,2.13-3.74,4.16t-4.13,3.94a39.83,39.83,0,0,0-3.81,3.95,21.69,21.69,0,0,0-2.75,4.12,9.73,9.73,0,0,0-1.06,4.44,9.45,9.45,0,0,0-1.13-4.48,22.27,22.27,0,0,0-2.93-4.19,48.9,48.9,0,0,0-4-4q-2.15-2-4.16-4a44.71,44.71,0,0,1-3.63-4.12,13.79,13.79,0,0,1-2.33-4.37,8.09,8.09,0,0,1,1.8-8.42,7.49,7.49,0,0,1,3.53-2,6.71,6.71,0,0,1,4.23.32A10.25,10.25,0,0,1,347,198.3a19.56,19.56,0,0,1,3.21,6.82,34.89,34.89,0,0,1,1.27,6.25A42.46,42.46,0,0,1,352.85,205.13Z" transform="translate(-3.24 -9.02)"/></svg>